<?xml version="1.0" encoding="UTF-8" standalone="no"?>
<!-- Created with Inkscape (http://www.inkscape.org/) -->

<svg
   version="1.1"
   id="svg1"
   width="620"
   height="650"
   viewBox="0 0 620 650"
   sodipodi:docname="car.svg"
   inkscape:version="1.4.2 (ebf0e940d0, 2025-05-08)"
   xmlns:inkscape="http://www.inkscape.org/namespaces/inkscape"
   xmlns:sodipodi="http://sodipodi.sourceforge.net/DTD/sodipodi-0.dtd"
   xmlns="http://www.w3.org/2000/svg"
   xmlns:svg="http://www.w3.org/2000/svg">
  <defs
     id="defs1">
    <radialGradient
       fx="0"
       fy="0"
       cx="0"
       cy="0"
       r="1"
       gradientUnits="userSpaceOnUse"
       gradientTransform="matrix(4196.7,0,0,-4196.7,2500,2500)"
       spreadMethod="pad"
       id="radialGradient3">
      <stop
         style="stop-opacity:1;stop-color:#ffffff"
         offset="0"
         id="stop2" />
      <stop
         style="stop-opacity:1;stop-color:#ececec"
         offset="1"
         id="stop3" />
    </radialGradient>
    <linearGradient
       x1="0"
       y1="0"
       x2="1"
       y2="0"
       gradientUnits="userSpaceOnUse"
       gradientTransform="matrix(32.8938,-397.125,-397.125,-32.8938,2482.41,4045.03)"
       spreadMethod="pad"
       id="linearGradient5">
      <stop
         style="stop-opacity:1;stop-color:#696a6c"
         offset="0"
         id="stop4" />
      <stop
         style="stop-opacity:1;stop-color:#595a5c"
         offset="1"
         id="stop5" />
    </linearGradient>
    <clipPath
       clipPathUnits="userSpaceOnUse"
       id="clipPath5">
      <path
         d="m 820.156,3827.25 c 0,-13.99 0,-73.45 0,-88.84 0,-15.39 17.028,-22.62 17.028,-34.27 0,-11.66 7.671,-38.04 17.25,-48.97 0,0 27.976,-40.57 90.937,-51.76 62.949,-11.19 314.769,-16.79 463.069,-16.79 148.29,0 1962.78,0 2039.26,0 39.18,0 609.04,83.94 655.2,95.13 46.16,11.19 76.94,48.97 76.94,83.94 0,34.98 0,149.91 0,161.35 0,11.43 -9.78,24.72 -25.88,30.31 0,0 -5.72,25.31 -12.73,48.76 L 823.828,3841.36 c -2.195,-4.06 -3.672,-8.71 -3.672,-14.11 z"
         transform="translate(0,2.5e-5)"
         id="path5" />
    </clipPath>
    <linearGradient
       x1="0"
       y1="0"
       x2="1"
       y2="0"
       gradientUnits="userSpaceOnUse"
       gradientTransform="matrix(-32.8945,-397.133,397.133,-32.8945,2517.59,2618.48)"
       spreadMethod="pad"
       id="linearGradient31">
      <stop
         style="stop-opacity:1;stop-color:#696a6c"
         offset="0"
         id="stop30" />
      <stop
         style="stop-opacity:1;stop-color:#595a5c"
         offset="1"
         id="stop31" />
    </linearGradient>
    <clipPath
       clipPathUnits="userSpaceOnUse"
       id="clipPath31">
      <path
         d="m 4179.84,2400.69 c 0,-13.99 0,-73.44 0,-88.83 0,-15.4 -17.02,-22.62 -17.02,-34.28 0,-11.66 -7.66,-38.03 -17.25,-48.97 0,0 -27.98,-40.56 -90.94,-51.75 -62.95,-11.2 -314.77,-16.8 -463.07,-16.8 -148.29,0 -1962.78,0 -2039.26,0 -39.17,0 -609.03,83.94 -655.195,95.14 -46.167,11.19 -76.949,48.96 -76.949,83.94 0,34.97 0,149.9 0,161.34 0,11.43 9.793,24.72 25.883,30.32 0,0 5.719,25.3 12.731,48.76 l 3317.4,-164.76 c 2.2,-4.06 3.67,-8.71 3.67,-14.11 z"
         transform="translate(0,2.5e-5)"
         id="path31" />
    </clipPath>
    <linearGradient
       x1="0"
       y1="0"
       x2="1"
       y2="0"
       gradientUnits="userSpaceOnUse"
       gradientTransform="matrix(22.7041,-274.105,-274.105,-22.7041,1458.12,1033.97)"
       spreadMethod="pad"
       id="linearGradient61">
      <stop
         style="stop-opacity:1;stop-color:#696a6c"
         offset="0"
         id="stop60" />
      <stop
         style="stop-opacity:1;stop-color:#595a5c"
         offset="1"
         id="stop61" />
    </linearGradient>
    <clipPath
       clipPathUnits="userSpaceOnUse"
       id="clipPath61">
      <path
         d="m 846.719,937.582 c 0,-18.672 0,-33.641 0,-41.512 0,-29.84 53.168,-194.922 166.011,-194.922 112.86,0 455.15,0 455.15,0 0,0 342.29,0 455.13,0 112.85,0 166.02,165.082 166.02,194.922 0,7.871 0,22.84 0,41.512 z"
         transform="translate(0,2.5e-5)"
         id="path61" />
    </clipPath>
    <linearGradient
       x1="0"
       y1="0"
       x2="1"
       y2="0"
       gradientUnits="userSpaceOnUse"
       gradientTransform="matrix(-1.01e-5,-230.475,-230.475,1.01e-5,1467.88,1480.86)"
       spreadMethod="pad"
       id="linearGradient78">
      <stop
         style="stop-opacity:1;stop-color:#4f5052"
         offset="0"
         id="stop77" />
      <stop
         style="stop-opacity:1;stop-color:#414042"
         offset="1"
         id="stop78" />
    </linearGradient>
    <clipPath
       clipPathUnits="userSpaceOnUse"
       id="clipPath78">
      <path
         d="m 995.016,1279.39 c 17.714,0 472.624,0 472.864,0 0.24,0 455.14,0 472.85,0 17.72,0 25.19,22.39 20.52,33.58 -2.62,6.29 -17.63,45.02 -36.23,87.83 -229.67,-2.62 -637.41,68.91 -895.96,40.66 -26.28,-55.95 -51.122,-120.22 -54.556,-128.49 -4.668,-11.19 2.793,-33.58 20.512,-33.58 z"
         transform="translate(0,2.5e-5)"
         id="path78" />
    </clipPath>
    <linearGradient
       x1="0"
       y1="0"
       x2="1"
       y2="0"
       gradientUnits="userSpaceOnUse"
       gradientTransform="matrix(-7.5e-6,-170.769,-170.769,7.5e-6,3532.13,1273.34)"
       spreadMethod="pad"
       id="linearGradient88">
      <stop
         style="stop-opacity:1;stop-color:#696a6c"
         offset="0"
         id="stop87" />
      <stop
         style="stop-opacity:1;stop-color:#595a5c"
         offset="1"
         id="stop88" />
    </linearGradient>
    <clipPath
       clipPathUnits="userSpaceOnUse"
       id="clipPath88">
      <path
         d="m 2964.13,1241.86 c -19.58,-47.56 -53.15,-70.65 -53.15,-128.01 0,-29.85 0,-79.5 0,-124.498 h 1242.3 c 0,44.998 0,94.648 0,124.498 0,57.36 -33.57,80.45 -53.16,128.01 -3.36,8.14 -7.44,18.35 -12.05,29.91 h -1111.9 c -4.59,-11.56 -8.68,-21.77 -12.04,-29.91 z"
         transform="translate(0,2.5e-5)"
         id="path88" />
    </clipPath>
    <linearGradient
       x1="0"
       y1="0"
       x2="1"
       y2="0"
       gradientUnits="userSpaceOnUse"
       gradientTransform="matrix(-1.19e-5,-271.582,-271.582,1.19e-5,3532.13,1067.7)"
       spreadMethod="pad"
       id="linearGradient95">
      <stop
         style="stop-opacity:1;stop-color:#515254"
         offset="0"
         id="stop94" />
      <stop
         style="stop-opacity:1;stop-color:#545557"
         offset="1"
         id="stop95" />
    </linearGradient>
    <clipPath
       clipPathUnits="userSpaceOnUse"
       id="clipPath95">
      <path
         d="m 2910.98,1021.99 c 0,-53.181 0,-107.9 0,-125.92 0,-29.84 53.16,-194.922 166.01,-194.922 13.51,0 30.31,0 49.43,0 25.63,0 48.03,16.684 54.69,24.961 l 13.62,16.942 c 10.86,13.48 34.19,23.808 52.72,23.808 h 569.39 c 18.56,0 41.88,-10.328 52.71,-23.808 l 14.43,-17.969 c 7.54,-8.551 29.07,-23.934 53.75,-23.934 19.15,0 36,0 49.54,0 112.85,0 166.01,165.082 166.01,194.922 0,18.02 0,72.739 0,125.92 z"
         transform="translate(0,2.5e-5)"
         id="path95" />
    </clipPath>
  </defs>
  <sodipodi:namedview
     id="namedview1"
     pagecolor="#ffffff"
     bordercolor="#000000"
     borderopacity="0.25"
     inkscape:showpageshadow="2"
     inkscape:pageopacity="0.0"
     inkscape:pagecheckerboard="0"
     inkscape:deskcolor="#d1d1d1"
     inkscape:zoom="1.6845"
     inkscape:cx="212.52598"
     inkscape:cy="345.2063"
     inkscape:window-width="2560"
     inkscape:window-height="1312"
     inkscape:window-x="0"
     inkscape:window-y="0"
     inkscape:window-maximized="1"
     inkscape:current-layer="g1">
    <inkscape:page
       x="0"
       y="0"
       inkscape:label="1"
       id="page1"
       width="620"
       height="650"
       margin="0"
       bleed="0" />
  </sodipodi:namedview>
  <g
     id="g1"
     inkscape:groupmode="layer"
     inkscape:label="1"
     transform="translate(-102.01529,-101.00687)">
    <g
       id="group-R5"
       transform="matrix(1,0,0,0.88581347,0,54.690405)">
      <path
         id="path3"
         d="m 135.33277,266.17009 c 0,0 4.71118,7.36957 15.31386,9.40223 10.60066,2.03268 53.00734,3.04991 77.98119,3.04991 24.97213,0 330.53365,0 343.41294,0 6.59794,0 102.5628,-15.24775 110.3362,-17.28041 7.77337,-2.03267 12.95675,-8.89543 12.95675,-15.24775 0,-6.35413 0,-27.23122 0,-29.3093 0,-2.07628 -1.64696,-4.49041 -4.35821,-5.50583 0,0 -2.47213,-11.81819 -4.35654,-15.12059 -1.88609,-3.30422 -14.01935,-29.9887 -21.20502,-31.25843 -7.18566,-1.26974 -38.55872,-3.68387 -38.55872,-3.68387 0,0 -69.73476,-40.15203 -92.97912,-43.37088 -23.24604,-3.22065 -117.71887,-2.37236 -147.16711,1.94729 -29.44825,4.31966 -74.60491,32.78247 -112.45637,53.62142 0,0 -80.02235,13.46758 -95.09927,16.00887 -15.0786,2.54127 -33.92585,13.72188 -38.87313,22.11049 -4.94745,8.385 -6.71448,16.89895 -7.89328,18.04154 -1.17747,1.14439 -2.8266,2.7956 -2.8266,5.33689 0,2.54129 0,13.34223 0,16.13784 0,2.7956 2.86752,4.10893 2.86752,6.22515 0,2.11806 1.29181,6.90999 2.90491,8.89543"
         style="fill:#595a5c;fill-opacity:1;fill-rule:nonzero;stroke:none;stroke-width:0.1749" />
      <path
         id="path4"
         d="m 820.156,3827.25 c 0,-13.99 0,-73.45 0,-88.84 0,-15.39 17.028,-22.62 17.028,-34.27 0,-11.66 7.671,-38.04 17.25,-48.97 0,0 27.976,-40.57 90.937,-51.76 62.949,-11.19 314.769,-16.79 463.069,-16.79 148.29,0 1962.78,0 2039.26,0 39.18,0 609.04,83.94 655.2,95.13 46.16,11.19 76.94,48.97 76.94,83.94 0,34.98 0,149.91 0,161.35 0,11.43 -9.78,24.72 -25.88,30.31 0,0 -5.72,25.31 -12.73,48.76 L 823.828,3841.36 c -2.195,-4.06 -3.672,-8.71 -3.672,-14.11"
         style="fill:url(#linearGradient5);fill-opacity:1;fill-rule:nonzero;stroke:none"
         transform="matrix(0.16840077,0,0,-0.18165052,-8.5545678,930.13363)"
         clip-path="url(#clipPath5)" />
      <path
         id="path6"
         d="m 278.93923,181.71349 c 0.77801,-2.39597 -2.51424,-5.89818 -5.13959,-8.22513 -0.28629,0.0509 -0.71234,0.12166 -1.25628,0.21253 2.97565,2.54493 6.07927,5.91454 5.51681,7.64931 -1.44992,2.36871 -39.78468,10.79911 -60.37841,15.3313 -9.36645,2.05991 -16.76428,3.68568 -20.02621,4.53035 -5.25074,1.35877 -13.81224,3.88915 -22.09082,6.33417 -10.39874,3.0717 -20.22257,5.97448 -22.78682,6.3632 -3.83701,0.58311 -9.14416,0.94277 -14.09564,0.54133 -0.16773,0.32879 -0.32687,0.65576 -0.48483,0.97909 1.59727,0.14533 3.23195,0.21436 4.85079,0.21436 3.59889,0 7.10768,-0.30881 9.86255,-0.72661 2.62083,-0.39963 12.47412,-3.30966 22.90319,-6.39045 8.27352,-2.44503 16.8266,-4.96996 22.06049,-6.32508 3.24678,-0.84104 10.63788,-2.46682 19.99591,-4.52491 39.91603,-8.781 60.32115,-13.66193 61.06886,-15.96346"
         style="fill:#4a4b4c;fill-opacity:1;fill-rule:nonzero;stroke:none;stroke-width:0.1749" />
      <path
         id="path7"
         d="m 545.68772,194.39996 c -3.71323,4.61393 -7.92661,9.84547 -12.35555,16.67007 -9.11049,14.03796 -14.8159,29.87062 -18.59313,40.34822 -1.25796,3.49313 -2.34582,6.51035 -3.28044,8.6938 -3.04302,7.11163 -8.97577,10.71738 -17.63326,10.71738 H 435.5553 V 202.7232 c 0,-13.24051 5.21706,-22.68453 5.27263,-22.77717 l 0.0673,-0.24522 c 0.72582,-20.19046 4.17972,-49.13829 4.65292,-53.04377 0.0825,0 0.18186,-0.004 0.2627,-0.004 31.74355,0 56.10441,4.06715 76.66278,12.79727 18.03908,7.66202 33.86034,24.00693 33.86034,34.97863 0,6.74831 -4.4643,12.29592 -10.6463,19.97065 z M 434.61226,270.82943 H 306.92239 c -3.77049,0 -3.77049,-1.12079 -3.77049,-2.54129 v -20.83896 c 0,-4.73381 -0.54395,-10.92445 -1.11988,-17.47841 -0.91104,-10.3559 -1.94334,-22.09597 -1.08114,-31.09493 1.22428,-12.7664 11.64324,-20.01062 22.6735,-27.67627 1.48023,-1.02996 2.9689,-2.06537 4.44744,-3.12257 12.15687,-8.68654 54.64943,-29.57635 62.38744,-32.12673 19.8174,-6.53033 43.09039,-9.10433 54.13749,-9.28051 -0.53215,4.38686 -3.90859,32.85149 -4.63944,52.86393 -0.60625,1.14258 -5.34505,10.4558 -5.34505,23.18951 z M 522.8189,138.5061 c -20.67119,-8.77916 -45.14318,-12.86812 -77.00799,-12.86812 -10.54863,0 -34.97683,2.53403 -55.62781,9.33864 -7.30692,2.4087 -49.59572,22.93702 -62.63163,32.25388 -1.47687,1.05357 -2.96217,2.08535 -4.43903,3.1135 -11.22392,7.80369 -21.82812,15.17508 -23.09786,28.42647 -0.87231,9.1007 0.16503,20.89164 1.07945,31.29658 0.57425,6.52851 1.1165,12.69555 1.1165,17.38213 v 20.83896 c 0,1.94729 0.35363,3.55853 4.71186,3.55853 h 186.90295 c 9.05827,0 15.27731,-3.80558 18.48873,-11.30774 0.9464,-2.2125 2.03933,-5.24425 3.30569,-8.75374 3.75871,-10.43037 9.43889,-26.19401 18.48368,-40.13023 4.40368,-6.78284 8.59854,-11.99258 12.29663,-16.58833 6.31503,-7.84368 10.87867,-13.50935 10.87867,-20.63731 0,-11.53846 -15.78082,-27.98872 -34.45984,-35.92322"
         style="fill:#4a4b4c;fill-opacity:1;fill-rule:nonzero;stroke:none;stroke-width:0.1749" />
      <path
         id="path8"
         d="m 286.7446,278.62223 c 2.66241,-6.24151 4.15614,-13.17875 4.15614,-20.49925 0,-27.13314 -20.39166,-49.13103 -45.54736,-49.13103 -25.15404,0 -45.54736,21.99789 -45.54736,49.13103 0,7.22061 1.45667,14.07065 4.05003,20.24495 8.9202,0.16893 17.57094,0.2543 24.77177,0.2543 5.96475,0 27.9461,0 58.11678,0"
         style="fill:#4a4b4c;fill-opacity:1;fill-rule:nonzero;stroke:none;stroke-width:0.1749" />
      <path
         id="path9"
         d="m 615.60604,272.48972 c 1.28491,-4.54491 1.98208,-9.36773 1.98208,-14.36674 0,-27.13314 -20.39333,-49.13103 -45.54736,-49.13103 -25.1557,0 -45.54734,21.99789 -45.54734,49.13103 0,7.3205 1.49539,14.25774 4.15611,20.49925 23.13322,0 38.69177,0 41.39123,0 2.81903,0 21.96283,-2.7847 43.56528,-6.13251"
         style="fill:#4a4b4c;fill-opacity:1;fill-rule:nonzero;stroke:none;stroke-width:0.1749" />
      <path
         id="path10"
         d="m 283.67634,258.12298 c 0,22.82983 -17.15667,41.3382 -38.32296,41.3382 -21.16461,0 -38.32128,-18.50837 -38.32128,-41.3382 0,-22.82985 17.15667,-41.33821 38.32128,-41.33821 21.16629,0 38.32296,18.50836 38.32296,41.33821"
         style="fill:#3a3a3b;fill-opacity:1;fill-rule:nonzero;stroke:none;stroke-width:0.1749" />
      <path
         id="path11"
         d="m 265.78881,280.16444 c -11.28622,12.17422 -29.58465,12.17422 -40.86749,0 -11.28623,-12.17238 -11.28623,-31.91054 0,-44.08294 11.28284,-12.17423 29.58127,-12.17423 40.86749,0 11.28453,12.1724 11.28453,31.91056 0,44.08294"
         style="fill:#c4c2c1;fill-opacity:1;fill-rule:nonzero;stroke:none;stroke-width:0.1749" />
      <path
         id="path12"
         d="m 265.78881,280.16444 c 11.28453,-12.17238 11.28453,-31.91054 0,-44.08294 l -40.86749,44.08294 c 11.28284,12.17422 29.58127,12.17422 40.86749,0"
         style="fill:#a9a9a7;fill-opacity:1;fill-rule:nonzero;stroke:none;stroke-width:0.1749" />
      <path
         id="path13"
         d="m 610.36373,258.12298 c 0,22.82983 -17.15836,41.3382 -38.32297,41.3382 -21.1646,0 -38.32127,-18.50837 -38.32127,-41.3382 0,-22.82985 17.15667,-41.33821 38.32127,-41.33821 21.16461,0 38.32297,18.50836 38.32297,41.33821"
         style="fill:#3a3a3b;fill-opacity:1;fill-rule:nonzero;stroke:none;stroke-width:0.1749" />
      <path
         id="path14"
         d="m 592.47452,280.16444 c -11.28455,12.17422 -29.58297,12.17422 -40.8675,0 -11.28454,-12.17238 -11.28454,-31.91054 0,-44.08294 11.28453,-12.17423 29.58295,-12.17423 40.8675,0 11.28452,12.1724 11.28452,31.91056 0,44.08294"
         style="fill:#c4c2c1;fill-opacity:1;fill-rule:nonzero;stroke:none;stroke-width:0.1749" />
      <path
         id="path15"
         d="m 592.47452,280.16444 c 11.28452,-12.17238 11.28452,-31.91054 0,-44.08294 l -40.8675,44.08294 c 11.28453,12.17422 29.58295,12.17422 40.8675,0"
         style="fill:#a9a9a7;fill-opacity:1;fill-rule:nonzero;stroke:none;stroke-width:0.1749" />
      <path
         id="path16"
         d="m 302.95655,169.98251 c 3.88668,-2.5413 30.15551,-18.29586 41.93516,-24.77714 11.77962,-6.48129 24.50231,-12.07068 26.62079,-12.57929 2.12185,-0.50863 4.24202,-3.30422 2.35761,-4.44681 -1.49204,-0.90462 -5.93613,-1.09354 -12.09792,-1.00816 -26.84813,10.82819 -59.22318,30.66443 -87.51957,46.24277 0,0 11.74091,0 15.74549,0 4.00624,0 9.07006,-0.89008 12.95844,-3.43137"
         style="fill:#414042;fill-opacity:1;fill-rule:nonzero;stroke:none;stroke-width:0.1749" />
      <path
         id="path17"
         d="m 436.81326,129.70333 c -5.18001,0.20161 -29.84398,2.03448 -46.9636,8.47035 -17.11794,6.43769 -54.97106,27.61632 -61.41071,32.52998 -6.43796,4.91183 -5.65322,9.65654 0,9.65654 5.65488,0 96.7496,0 100.20518,0 3.45559,0 5.77279,-0.21254 6.83372,-4.534 1.05923,-4.31783 4.94592,-42.56617 4.94592,-44.09021 0,-1.52405 -0.39405,-2.15802 -3.61051,-2.03268"
         style="fill:#414042;fill-opacity:1;fill-rule:nonzero;stroke:none;stroke-width:0.1749" />
      <path
         id="path18"
         d="m 447.13959,133.00573 c -0.23575,2.92457 -1.29667,39.64522 -1.29667,41.16926 0,1.52586 -0.58941,6.18521 3.18108,6.18521 3.7688,0 92.35267,0 96.35556,0 4.00458,0 8.13038,-0.594 8.95386,-4.02538 0.82348,-3.43137 -11.78972,-23.86161 -24.14867,-30.49367 -30.0949,-16.15419 -68.55763,-16.15419 -78.33498,-16.15419 -4.12245,0 -4.60744,1.27519 -4.71018,3.31876"
         style="fill:#414042;fill-opacity:1;fill-rule:nonzero;stroke:none;stroke-width:0.1749" />
      <path
         id="path19"
         d="m 609.57897,160.58026 c 3.50611,0.37785 10.5941,0.54314 16.03345,-0.0763 -6.86403,-3.90911 -41.72466,-23.57278 -68.21243,-34.86599 -3.30737,0 -6.88758,0 -7.8963,0 -2.00396,0 -4.00625,1.49317 -2.71125,4.049 1.29668,2.55763 18.96698,11.32408 36.16406,19.9652 17.19877,8.64112 21.91231,10.41948 26.62247,10.92808"
         style="fill:#414042;fill-opacity:1;fill-rule:nonzero;stroke:none;stroke-width:0.1749" />
      <path
         id="path20"
         d="m 196.19383,198.82679 c -2.35425,0.0672 -24.65893,0.84831 -30.31214,3.21885 -5.65491,2.37052 -17.90573,12.19784 -20.41859,16.26317 -2.51289,4.06715 -6.8e-4,6.4377 3.141,6.26876 3.14169,-0.16894 23.71722,-1.35511 27.95757,-1.35511 4.24032,0 9.10879,-3.04991 11.46472,-5.59122 2.35591,-2.54127 10.40717,-13.0879 11.77963,-15.12057 1.37416,-2.03267 -0.59278,-3.7729 -3.61219,-3.68388"
         style="fill:#ffffff;fill-opacity:1;fill-rule:nonzero;stroke:none;stroke-width:0.1749" />
      <path
         id="path21"
         d="m 196.19383,198.82679 c -1.34384,0.0382 -9.19468,0.30881 -16.73567,0.97728 -4.81626,4.07079 -11.48662,12.45214 -13.78865,23.85253 4.80783,-0.23978 9.1812,-0.43414 10.89216,-0.43414 4.24032,0 9.10879,-3.04991 11.46472,-5.59122 2.35591,-2.54127 10.40717,-13.0879 11.77963,-15.12057 1.37416,-2.03267 -0.59278,-3.7729 -3.61219,-3.68388"
         style="fill:#fab30b;fill-opacity:1;fill-rule:nonzero;stroke:none;stroke-width:0.1749" />
      <path
         id="path22"
         d="m 144.43686,260.30641 c 0,2.04539 -1.53666,3.70386 -3.43385,3.70386 v 0 c -1.89502,0 -3.43168,-1.65847 -3.43168,-3.70386 v -10.88995 c 0,-2.04537 1.53666,-3.70386 3.43168,-3.70386 v 0 c 1.89719,0 3.43385,1.65849 3.43385,3.70386 v 10.88995"
         style="fill:#4a4b4c;fill-opacity:1;fill-rule:nonzero;stroke:none;stroke-width:0.1749" />
      <path
         id="path23"
         d="m 165.66951,264.83677 c 0,1.99999 -1.50383,3.6203 -3.35793,3.6203 h -6.30576 c -1.85426,0 -3.35674,-1.62031 -3.35674,-3.6203 v 0 c 0,-2.00179 1.50248,-3.62211 3.35674,-3.62211 h 6.30576 c 1.8541,0 3.35793,1.62032 3.35793,3.62211 v 0"
         style="fill:#4a4b4c;fill-opacity:1;fill-rule:nonzero;stroke:none;stroke-width:0.1749" />
      <path
         id="path24"
         d="m 691.15736,211.36068 c -0.0622,-0.0254 -0.11783,-0.0582 -0.18186,-0.0818 0,0 -2.47213,-11.81819 -4.35654,-15.12059 -1.06092,-1.85828 -5.36188,-11.10611 -10.19835,-19.07512 -7.62012,0.61761 -22.16155,1.92549 -26.94917,3.27697 -6.59458,1.86374 -7.85084,5.92907 -1.56949,12.19783 6.28302,6.26876 21.51824,16.43212 28.74264,18.12691 4.54682,1.0681 10.0872,1.19344 14.51277,0.67574"
         style="fill:#d4115e;fill-opacity:1;fill-rule:nonzero;stroke:none;stroke-width:0.1749" />
      <path
         id="path25"
         d="m 418.74891,197.04661 c 0,4.63209 -3.47916,8.38681 -7.77338,8.38681 -4.29422,0 -7.77506,-3.75472 -7.77506,-8.38681 0,-4.63208 3.48084,-8.38498 7.77506,-8.38498 4.29422,0 7.77338,3.7529 7.77338,8.38498"
         style="fill:#4a4b4c;fill-opacity:1;fill-rule:nonzero;stroke:none;stroke-width:0.1749" />
      <path
         id="path26"
         d="m 423.225,197.04661 c 0,1.96547 -1.47688,3.55853 -3.29896,3.55853 h -17.9027 c -1.82209,0 -3.29897,-1.59306 -3.29897,-3.55853 v 0 c 0,-1.96545 1.47688,-3.55672 3.29897,-3.55672 h 17.9027 c 1.82208,0 3.29896,1.59127 3.29896,3.55672 v 0"
         style="fill:#66686a;fill-opacity:1;fill-rule:nonzero;stroke:none;stroke-width:0.1749" />
      <path
         id="path27"
         d="m 522.01563,197.04661 c 0,4.63209 -3.47915,8.38681 -7.77337,8.38681 -4.29422,0 -7.77338,-3.75472 -7.77338,-8.38681 0,-4.63208 3.47916,-8.38498 7.77338,-8.38498 4.29422,0 7.77337,3.7529 7.77337,8.38498"
         style="fill:#4a4b4c;fill-opacity:1;fill-rule:nonzero;stroke:none;stroke-width:0.1749" />
      <path
         id="path28"
         d="m 526.49342,197.04661 c 0,1.96547 -1.4752,3.55853 -3.2973,3.55853 h -17.90605 c -1.82209,0 -3.29729,-1.59306 -3.29729,-3.55853 v 0 c 0,-1.96545 1.4752,-3.55672 3.29729,-3.55672 h 17.90605 c 1.8221,0 3.2973,1.59127 3.2973,3.55672 v 0"
         style="fill:#66686a;fill-opacity:1;fill-rule:nonzero;stroke:none;stroke-width:0.1749" />
      <path
         id="path29"
         d="m 689.56261,481.70933 c 0,0 -4.71186,7.36775 -15.31437,9.40043 -10.60083,2.03447 -53.00751,3.05171 -77.98134,3.05171 -24.97214,0 -330.53366,0 -343.41295,0 -6.59626,0 -102.56112,-15.24774 -110.33535,-17.28223 -7.77455,-2.03267 -12.95826,-8.89361 -12.95826,-15.24774 0,-6.35232 0,-27.22941 0,-29.30749 0,-2.07627 1.64914,-4.49041 4.3587,-5.50765 0,0 2.47348,-11.81637 4.3594,-15.12059 1.8839,-3.30423 14.01667,-29.98686 21.20267,-31.25842 7.18532,-1.26973 38.55838,-3.68388 38.55838,-3.68388 0,0 69.73477,-40.15202 92.98081,-43.37087 23.24436,-3.21884 117.71719,-2.37236 147.16543,1.94729 29.44825,4.32146 74.60491,32.78247 112.45635,53.62141 0,0 80.02236,13.46939 95.09928,16.01069 15.0786,2.54129 33.92771,13.72188 38.87363,22.10868 4.94762,8.38681 6.71414,16.89895 7.89295,18.04153 1.1788,1.14622 2.82577,2.79561 2.82577,5.33871 0,2.54129 0,13.34042 0,16.13602 0,2.79742 -2.86619,4.10894 -2.86619,6.22698 0,2.11804 -1.28994,6.90816 -2.90491,8.89542"
         style="fill:#595a5c;fill-opacity:1;fill-rule:nonzero;stroke:none;stroke-width:0.1749" />
      <path
         id="path30"
         d="m 4179.84,2400.69 c 0,-13.99 0,-73.44 0,-88.83 0,-15.4 -17.02,-22.62 -17.02,-34.28 0,-11.66 -7.66,-38.03 -17.25,-48.97 0,0 -27.98,-40.56 -90.94,-51.75 -62.95,-11.2 -314.77,-16.8 -463.07,-16.8 -148.29,0 -1962.78,0 -2039.26,0 -39.17,0 -609.03,83.94 -655.195,95.14 -46.167,11.19 -76.949,48.96 -76.949,83.94 0,34.97 0,149.9 0,161.34 0,11.43 9.793,24.72 25.883,30.32 0,0 5.719,25.3 12.731,48.76 l 3317.4,-164.76 c 2.2,-4.06 3.67,-8.71 3.67,-14.11"
         style="fill:url(#linearGradient31);fill-opacity:1;fill-rule:nonzero;stroke:none"
         transform="matrix(0.16840077,0,0,-0.18165052,-8.5545678,886.53751)"
         clip-path="url(#clipPath31)" />
      <path
         id="path32"
         d="m 545.95717,397.25092 c -0.77969,-2.39415 2.51254,-5.89819 5.1379,-8.22332 0.28797,0.0491 0.71235,0.1199 1.25628,0.21071 -2.97396,2.54675 -6.07759,5.91637 -5.51681,7.64931 1.44993,2.36872 39.78468,10.80095 60.37841,15.33131 9.36813,2.05991 16.7643,3.6875 20.02791,4.53218 5.24905,1.35874 13.81055,3.88731 22.08913,6.33234 10.40043,3.07352 20.22492,5.97447 22.7863,6.36503 3.83953,0.58128 9.14585,0.94096 14.09682,0.54132 0.16672,0.32878 0.3267,0.65394 0.48332,0.97908 -1.59476,0.14351 -3.22825,0.21437 -4.84825,0.21437 -3.60041,0 -7.1082,-0.30882 -9.86325,-0.72843 -2.62031,-0.39963 -12.47344,-3.30967 -22.90417,-6.39047 -8.27354,-2.44318 -16.82493,-4.96996 -22.06051,-6.32507 -3.24677,-0.84104 -10.6362,-2.46681 -19.99422,-4.52491 -39.91772,-8.77916 -60.32116,-13.66012 -61.06886,-15.96345"
         style="fill:#4a4b4c;fill-opacity:1;fill-rule:nonzero;stroke:none;stroke-width:0.1749" />
      <path
         id="path33"
         d="m 268.56069,389.96855 c 0,-10.97169 15.82293,-27.31661 33.86203,-34.97862 20.55668,-8.73013 44.91754,-12.79909 76.66277,-12.79909 0.0809,0 0.1785,0.004 0.26101,0.004 0.47321,3.90731 3.92879,32.85513 4.65292,53.04559 l 0.0673,0.24342 c 0.0556,0.0944 5.27262,9.53665 5.27262,22.77716 v 68.10623 h -58.27003 c -8.65749,0 -14.59024,-3.60395 -17.63324,-10.71738 -0.93463,-2.18162 -2.02081,-5.20247 -3.28045,-8.69198 -3.77723,-10.4776 -9.48265,-26.31207 -18.59313,-40.34822 -4.42894,-6.82643 -8.64065,-12.05614 -12.35557,-16.67006 -6.18199,-7.67655 -10.64629,-13.22416 -10.64629,-19.97067 z m 121.72175,28.29208 c 0,-12.73371 -4.73711,-22.04511 -5.34503,-23.18769 -0.72917,-20.01245 -4.10731,-48.4789 -4.63945,-52.86394 11.04709,0.17439 34.32008,2.74838 54.13748,9.2787 7.73802,2.55038 50.23058,23.44019 62.38744,32.12854 1.47855,1.05539 2.9689,2.09079 4.44915,3.12076 11.03024,7.66747 21.44753,14.90987 22.67179,27.67626 0.86222,8.99897 -0.1684,20.73904 -1.07945,31.09676 -0.57593,6.55213 -1.12155,12.7446 -1.12155,17.47659 v 20.84077 c 0,1.41869 0,2.53947 -3.77049,2.53947 H 390.28244 Z m -122.6648,-28.29208 c 0,7.12615 4.56367,12.79365 10.87701,20.63732 3.69976,4.59576 7.89462,9.80368 12.29662,16.58652 9.04481,13.93621 14.72665,29.70167 18.48535,40.13204 1.26469,3.50949 2.35762,6.53942 3.30403,8.75191 3.2114,7.50218 9.43043,11.30957 18.48871,11.30957 h 186.90297 c 4.3599,0 4.71354,-1.61124 4.71354,-3.55853 v -20.84077 c 0,-4.68477 0.54057,-10.85362 1.11649,-17.38032 0.91442,-10.40676 1.95009,-22.19769 1.07945,-31.29657 -1.26974,-13.25322 -11.87394,-20.6246 -23.09953,-28.4283 -1.47688,-1.02633 -2.96217,-2.05992 -4.43736,-3.11349 -13.03758,-9.31686 -55.32639,-29.84337 -62.63329,-32.25206 -20.64931,-6.80463 -45.07921,-9.34046 -55.62614,-9.34046 -31.86648,0 -56.33849,4.08895 -77.00969,12.86813 -18.67901,7.93448 -34.45816,24.38475 -34.45816,35.92501"
         style="fill:#4a4b4c;fill-opacity:1;fill-rule:nonzero;stroke:none;stroke-width:0.1749" />
      <path
         id="path34"
         d="m 538.15011,494.16147 c -2.66242,-6.24151 -4.15613,-13.18055 -4.15613,-20.49925 0,-27.13496 20.39165,-49.13102 45.54735,-49.13102 25.15571,0 45.54736,21.99606 45.54736,49.13102 0,7.22061 -1.45667,14.07065 -4.05004,20.24495 -8.9185,0.16711 -17.56925,0.2543 -24.77175,0.2543 -5.96475,0 -27.94611,0 -58.11679,0"
         style="fill:#4a4b4c;fill-opacity:1;fill-rule:nonzero;stroke:none;stroke-width:0.1749" />
      <path
         id="path35"
         d="m 209.29035,488.02714 c -1.28658,-4.5449 -1.98375,-9.3659 -1.98375,-14.36492 0,-27.13496 20.39332,-49.13102 45.54735,-49.13102 25.1557,0 45.54735,21.99606 45.54735,49.13102 0,7.3187 -1.4954,14.25774 -4.15445,20.49925 -23.13489,0 -38.69343,0 -41.3929,0 -2.81903,0 -21.96115,-2.78651 -43.5636,-6.13433"
         style="fill:#4a4b4c;fill-opacity:1;fill-rule:nonzero;stroke:none;stroke-width:0.1749" />
      <path
         id="path36"
         d="m 541.21837,473.66222 c 0,22.82983 17.15835,41.33639 38.32296,41.33639 21.16461,0 38.32129,-18.50656 38.32129,-41.33639 0,-22.82984 -17.15668,-41.33821 -38.32129,-41.33821 -21.16461,0 -38.32296,18.50837 -38.32296,41.33821"
         style="fill:#3a3a3b;fill-opacity:1;fill-rule:nonzero;stroke:none;stroke-width:0.1749" />
      <path
         id="path37"
         d="m 559.10759,495.70369 c 11.28454,12.17422 29.58295,12.17422 40.86581,0 11.2879,-12.1724 11.2879,-31.91236 0,-44.08476 -11.28286,-12.17241 -29.58127,-12.17241 -40.86581,0 -11.28454,12.1724 -11.28454,31.91236 0,44.08476"
         style="fill:#c4c2c1;fill-opacity:1;fill-rule:nonzero;stroke:none;stroke-width:0.1749" />
      <path
         id="path38"
         d="m 559.10759,495.70369 c -11.28454,-12.1724 -11.28454,-31.91236 0,-44.08476 l 40.86581,44.08476 c -11.28286,12.17422 -29.58127,12.17422 -40.86581,0"
         style="fill:#a9a9a7;fill-opacity:1;fill-rule:nonzero;stroke:none;stroke-width:0.1749" />
      <path
         id="path39"
         d="m 214.53267,473.66222 c 0,22.82983 17.15667,41.33639 38.32128,41.33639 21.1646,0 38.32296,-18.50656 38.32296,-41.33639 0,-22.82984 -17.15836,-41.33821 -38.32296,-41.33821 -21.16461,0 -38.32128,18.50837 -38.32128,41.33821"
         style="fill:#3a3a3b;fill-opacity:1;fill-rule:nonzero;stroke:none;stroke-width:0.1749" />
      <path
         id="path40"
         d="m 232.4202,495.70369 c 11.28453,12.17422 29.58296,12.17422 40.8675,0 11.28621,-12.1724 11.28621,-31.91236 0,-44.08476 -11.28454,-12.17241 -29.58297,-12.17241 -40.8675,0 -11.28454,12.1724 -11.28454,31.91236 0,44.08476"
         style="fill:#c4c2c1;fill-opacity:1;fill-rule:nonzero;stroke:none;stroke-width:0.1749" />
      <path
         id="path41"
         d="m 232.4202,495.70369 c -11.28454,-12.1724 -11.28454,-31.91236 0,-44.08476 l 40.8675,44.08476 c -11.28454,12.17422 -29.58297,12.17422 -40.8675,0"
         style="fill:#a9a9a7;fill-opacity:1;fill-rule:nonzero;stroke:none;stroke-width:0.1749" />
      <path
         id="path42"
         d="m 521.93986,385.52174 c -3.88838,-2.54129 -30.15722,-18.29765 -41.93685,-24.77894 -11.77964,-6.47947 -24.50232,-12.07067 -26.62079,-12.5793 -2.12017,-0.50861 -4.24202,-3.30423 -2.35762,-4.4468 1.49204,-0.90463 5.93782,-1.09173 12.0996,-1.00635 26.84645,10.82819 59.22318,30.66443 87.51788,46.24095 0,0 -11.73922,0 -15.74547,0 -4.00457,0 -9.07176,-0.89007 -12.95675,-3.42956"
         style="fill:#414042;fill-opacity:1;fill-rule:nonzero;stroke:none;stroke-width:0.1749" />
      <path
         id="path43"
         d="m 388.08313,345.24074 c 5.17833,0.20346 29.84398,2.03449 46.96193,8.47218 17.11961,6.4377 54.97274,27.61453 61.4107,32.52816 6.43797,4.91365 5.65321,9.65655 0,9.65655 -5.6549,0 -96.74961,0 -100.20519,0 -3.45559,0 -5.77109,-0.21253 -6.83202,-4.53218 -1.06092,-4.31965 -4.94761,-42.56617 -4.94761,-44.09203 0,-1.52405 0.39406,-2.15802 3.61219,-2.03268"
         style="fill:#414042;fill-opacity:1;fill-rule:nonzero;stroke:none;stroke-width:0.1749" />
      <path
         id="path44"
         d="m 377.7568,348.54496 c 0.23576,2.92276 1.295,39.64341 1.295,41.16927 0,1.52407 0.5894,6.1834 -3.17941,6.1834 -3.7705,0 -92.35266,0 -96.35723,0 -4.00457,0 -8.12871,-0.59218 -8.95219,-4.02357 -0.82516,-3.43137 11.78974,-23.86342 24.14699,-30.49548 30.09658,-16.15236 68.55763,-16.15236 78.33498,-16.15236 4.12245,0 4.60913,1.27518 4.71186,3.31874"
         style="fill:#414042;fill-opacity:1;fill-rule:nonzero;stroke:none;stroke-width:0.1749" />
      <path
         id="path45"
         d="m 215.31572,376.1177 c -3.50609,0.37784 -10.59408,0.54496 -16.03342,-0.0745 6.86401,-3.91093 41.72633,-23.57459 68.21409,-34.86781 3.30571,0 6.8876,0 7.89631,0 2.00229,0 4.00458,1.49499 2.70957,4.05081 -1.29668,2.55763 -18.96698,11.32408 -36.16406,19.96521 -17.19878,8.63929 -21.91063,10.41765 -26.62249,10.92627"
         style="fill:#414042;fill-opacity:1;fill-rule:nonzero;stroke:none;stroke-width:0.1749" />
      <path
         id="path46"
         d="m 628.70089,414.36422 c 2.35424,0.069 24.65892,0.8483 30.31213,3.21885 5.65322,2.37236 17.90606,12.19783 20.4186,16.26498 2.51254,4.06534 0.002,6.43589 -3.14068,6.26694 -3.14067,-0.16893 -23.71588,-1.35329 -27.95789,-1.35329 -4.23864,0 -9.1088,-3.05173 -11.46472,-5.59302 -2.35593,-2.53948 -10.40548,-13.08611 -11.77964,-15.1206 -1.37415,-2.03266 0.59277,-3.77105 3.6122,-3.68386"
         style="fill:#ffffff;fill-opacity:1;fill-rule:nonzero;stroke:none;stroke-width:0.1749" />
      <path
         id="path47"
         d="m 628.70089,414.36422 c 1.34552,0.04 9.19637,0.31062 16.73567,0.97727 4.81794,4.0708 11.48829,12.45396 13.79033,23.85254 -4.80784,-0.23978 -9.18289,-0.43233 -10.89384,-0.43233 -4.23864,0 -9.1088,-3.05173 -11.46472,-5.59302 -2.35593,-2.53948 -10.40548,-13.08611 -11.77964,-15.1206 -1.37415,-2.03266 0.59277,-3.77105 3.6122,-3.68386"
         style="fill:#fab30b;fill-opacity:1;fill-rule:nonzero;stroke:none;stroke-width:0.1749" />
      <path
         id="path48"
         d="m 680.45718,475.84384 c 0,2.0472 1.5375,3.70385 3.4337,3.70385 v 0 c 1.89618,0 3.43537,-1.65665 3.43537,-3.70385 v -10.88813 c 0,-2.04721 -1.53919,-3.70386 -3.43537,-3.70386 v 0 c -1.8962,0 -3.4337,1.65665 -3.4337,3.70386 v 10.88813"
         style="fill:#4a4b4c;fill-opacity:1;fill-rule:nonzero;stroke:none;stroke-width:0.1749" />
      <path
         id="path49"
         d="m 659.22689,480.37421 c 0,2.00178 1.50382,3.62029 3.35623,3.62029 h 6.30661 c 1.8541,0 3.35623,-1.61851 3.35623,-3.62029 v 0 c 0,-1.99999 -1.50213,-3.62211 -3.35623,-3.62211 h -6.30661 c -1.85241,0 -3.35623,1.62212 -3.35623,3.62211 v 0"
         style="fill:#4a4b4c;fill-opacity:1;fill-rule:nonzero;stroke:none;stroke-width:0.1749" />
      <path
         id="path50"
         d="m 133.73953,426.89811 c 0.0624,-0.0237 0.11705,-0.0582 0.17951,-0.0818 0,0 2.47348,-11.81637 4.3594,-15.12059 1.05975,-1.85646 5.35918,-11.10611 10.19683,-19.0733 7.62064,0.6158 22.16036,1.92367 26.948,3.27516 6.59625,1.86373 7.85085,5.93088 1.56949,12.19965 -6.28135,6.26694 -21.51774,16.4321 -28.74179,18.1269 -4.5475,1.06629 -10.08839,1.19164 -14.51144,0.67393"
         style="fill:#d4115e;fill-opacity:1;fill-rule:nonzero;stroke:none;stroke-width:0.1749" />
      <path
         id="path51"
         d="m 406.1458,412.58404 c 0,4.63391 3.48084,8.38863 7.77506,8.38863 4.29254,0 7.77338,-3.75472 7.77338,-8.38863 0,-4.63027 -3.48084,-8.38498 -7.77338,-8.38498 -4.29422,0 -7.77506,3.75471 -7.77506,8.38498"
         style="fill:#4a4b4c;fill-opacity:1;fill-rule:nonzero;stroke:none;stroke-width:0.1749" />
      <path
         id="path52"
         d="m 401.6697,412.58404 c 0,1.96546 1.47688,3.55854 3.29898,3.55854 h 17.90268 c 1.8221,0 3.29897,-1.59308 3.29897,-3.55854 v 0 c 0,-1.96546 -1.47687,-3.55671 -3.29897,-3.55671 h -17.90268 c -1.8221,0 -3.29898,1.59125 -3.29898,3.55671 v 0"
         style="fill:#66686a;fill-opacity:1;fill-rule:nonzero;stroke:none;stroke-width:0.1749" />
      <path
         id="path53"
         d="m 302.87908,412.58404 c 0,4.63391 3.47916,8.38863 7.77338,8.38863 4.29422,0 7.77506,-3.75472 7.77506,-8.38863 0,-4.63027 -3.48084,-8.38498 -7.77506,-8.38498 -4.29422,0 -7.77338,3.75471 -7.77338,8.38498"
         style="fill:#4a4b4c;fill-opacity:1;fill-rule:nonzero;stroke:none;stroke-width:0.1749" />
      <path
         id="path54"
         d="m 298.4013,412.58404 c 0,1.96546 1.47688,3.55854 3.29897,3.55854 h 17.90437 c 1.8221,0 3.29897,-1.59308 3.29897,-3.55854 v 0 c 0,-1.96546 -1.47687,-3.55671 -3.29897,-3.55671 h -17.90437 c -1.82209,0 -3.29897,1.59125 -3.29897,3.55671 v 0"
         style="fill:#66686a;fill-opacity:1;fill-rule:nonzero;stroke:none;stroke-width:0.1749" />
      <path
         id="path55"
         d="m 357.87025,593.04148 -11.38894,-9.7e-4 c -3.3916,0 -6.23588,2.73382 -6.23588,6.10345 v 4.69748 c 0,1.9691 -3.29728,3.74928 -4.65291,4.25789 l 2.32729,4.06534 c 0,0 3.09689,-1.90188 7.74476,-2.28518 l -0.0236,-0.0273 c 0.27787,0.0109 0.55238,0.0309 0.84033,0.004 l 11.38895,-1.07901 c 2.86113,-0.27428 5.11097,-2.87734 5.11097,-5.82734 v -4.56488 c 0,-2.9518 -2.24984,-5.34415 -5.11097,-5.34234"
         style="fill:#414042;fill-opacity:1;fill-rule:nonzero;stroke:none;stroke-width:0.1749" />
      <path
         id="path56"
         d="m 125.40242,593.04148 11.3881,-9.7e-4 c 3.39042,0 6.23487,2.73382 6.23487,6.10345 v 4.69748 c 0,1.9691 3.29897,3.74928 4.65341,4.25789 l -2.32678,4.06534 c 0,0 -3.09706,-1.90188 -7.74442,-2.28518 l 0.0231,-0.0273 c -0.27769,0.0109 -0.55403,0.0309 -0.84015,0.004 l -11.3881,-1.07901 c -2.86214,-0.27428 -5.11112,-2.87734 -5.11112,-5.82734 v -4.56488 c 0,-2.9518 2.24898,-5.34415 5.11112,-5.34234"
         style="fill:#414042;fill-opacity:1;fill-rule:nonzero;stroke:none;stroke-width:0.1749" />
      <path
         id="path57"
         d="m 165.89337,718.07136 c 0,3.3698 -2.53106,6.09819 -5.65489,6.09819 h -20.02537 c -3.12199,0 -5.6539,-2.72839 -5.6539,-6.09819 v -49.8084 c 0,-3.36762 2.53191,-6.10017 5.6539,-6.10017 h 20.02537 c 3.12383,0 5.65489,2.73255 5.65489,6.10017 v 49.8084"
         style="fill:#3a3a3b;fill-opacity:1;fill-rule:nonzero;stroke:none;stroke-width:0.1749" />
      <path
         id="path58"
         d="m 348.71261,718.07136 c 0,3.3698 -2.53274,6.09819 -5.65489,6.09819 h -20.02454 c -3.12215,0 -5.65489,-2.72839 -5.65489,-6.09819 v -49.8084 c 0,-3.36762 2.53274,-6.10017 5.65489,-6.10017 h 20.02454 c 3.12215,0 5.65489,2.73255 5.65489,6.10017 v 49.8084"
         style="fill:#3a3a3b;fill-opacity:1;fill-rule:nonzero;stroke:none;stroke-width:0.1749" />
      <path
         id="path59"
         d="m 337.28663,606.89052 c -3.29897,-8.64111 -10.60251,-29.35109 -16.96301,-44.85497 -6.36218,-15.50023 -18.61166,-19.05876 -26.38672,-19.05876 -7.77338,0 -52.30022,0 -52.30022,0 0,0 -44.52686,0 -52.3036,0 -7.77338,0 -20.02453,3.55853 -26.38504,19.05876 -6.36116,15.50388 -13.66421,36.21386 -16.9625,44.85497 -3.29829,8.63929 -8.95286,12.83361 -8.95286,23.25308 0,10.41948 0,34.13723 0,39.55985 0,5.42046 8.95353,35.40768 27.95637,35.40768 19.00572,0 76.64763,0 76.64763,0 0,0 57.64188,0 76.64424,0 19.00402,0 27.9579,-29.98722 27.9579,-35.40768 0,-5.42262 0,-29.14037 0,-39.55985 0,-10.41947 -5.65491,-14.61379 -8.95219,-23.25308"
         style="fill:#595a5c;fill-opacity:1;fill-rule:nonzero;stroke:none;stroke-width:0.1749" />
      <path
         id="path60"
         d="m 846.719,937.582 c 0,-18.672 0,-33.641 0,-41.512 0,-29.84 53.168,-194.922 166.011,-194.922 112.86,0 455.15,0 455.15,0 0,0 342.29,0 455.13,0 112.85,0 166.02,165.082 166.02,194.922 0,7.871 0,22.84 0,41.512 H 846.719"
         style="fill:url(#linearGradient61);fill-opacity:1;fill-rule:nonzero;stroke:none"
         transform="matrix(0.16840077,0,0,-0.18165052,-5.5554447,832.47504)"
         clip-path="url(#clipPath61)" />
      <path
         id="path62"
         d="m 325.21903,600.07317 c 0,0 -14.89337,18.4666 -32.77248,34.57718"
         style="fill:none;stroke:#4a4b4c;stroke-width:0.874502;stroke-linecap:butt;stroke-linejoin:miter;stroke-miterlimit:10;stroke-dasharray:none;stroke-opacity:1" />
      <path
         id="path63"
         d="m 159.96415,593.03967 c 0,0 -0.31979,2.47045 -3.29896,11.26961 -1.49204,4.4032 -8.55948,18.97338 -2.35561,23.71628 6.20373,4.74471 35.0235,6.692 38.40163,6.692 3.37642,0 48.92547,0 48.92547,0 0,0 45.54567,0 48.92379,0 3.37811,0 32.19822,-1.94729 38.40211,-6.692 6.20388,-4.7429 -0.8639,-19.31308 -2.35593,-23.71628 -2.97902,-8.79916 -3.29896,-11.26961 -3.29896,-11.26961"
         style="fill:none;stroke:#4a4b4c;stroke-width:0.874502;stroke-linecap:butt;stroke-linejoin:miter;stroke-miterlimit:10;stroke-dasharray:none;stroke-opacity:1" />
      <path
         id="path64"
         d="m 158.05314,600.07317 c 0,0 14.89286,18.4666 32.77197,34.57718"
         style="fill:none;stroke:#4a4b4c;stroke-width:0.874502;stroke-linecap:butt;stroke-linejoin:miter;stroke-miterlimit:10;stroke-dasharray:none;stroke-opacity:1" />
      <path
         id="path65"
         d="m 324.72056,593.97336 c -0.78475,-2.03268 -8.16743,-22.70269 -13.82064,-33.03678 -5.65321,-10.33593 -14.92201,-10.84273 -20.57522,-10.84273 -5.65321,0 -48.6695,0 -48.68802,0 v 0 c -0.0219,0 -43.03819,0 -48.68972,0 -5.65322,0 -14.92031,0.5068 -20.5752,10.84273 -5.65491,10.33409 -13.03658,31.0041 -13.81999,33.03678 -0.7861,2.03267 0.47035,6.09981 3.45425,6.09981 2.98303,0 79.59024,0 79.63066,0 v 0 c 0.0404,0 76.64592,0 79.6283,0 2.98406,0 4.24201,-4.06714 3.45558,-6.09981"
         style="fill:#414042;fill-opacity:1;fill-rule:nonzero;stroke:none;stroke-width:0.1749" />
      <path
         id="path66"
         d="m 273.99152,638.01997 c -1.88609,0 -32.35484,0 -32.35484,0 0,0 -30.47212,0 -32.35653,0 -1.8844,0 -4.71017,1.35692 -3.92542,3.90004 0.78475,2.53947 10.9932,17.44771 14.92031,17.44771 3.92711,0 21.36164,0 21.36164,0 0,0 17.43283,0 21.35995,0 3.9271,0 14.13555,-14.90824 14.9203,-17.44771 0.78475,-2.54312 -2.04101,-3.90004 -3.92541,-3.90004"
         style="fill:#414042;fill-opacity:1;fill-rule:nonzero;stroke:none;stroke-width:0.1749" />
      <path
         id="path67"
         d="m 288.83268,671.8215 c -1.8861,0 -44.44938,0 -44.44938,0 0,0 -48.0599,0 -49.9443,0 -1.88441,0 -4.71186,1.10262 -3.92712,3.16962 0.78644,2.06555 10.99489,14.19217 14.922,14.19217 3.92542,0 38.94942,0 38.94942,0 0,0 29.52738,0 33.45448,0 3.92711,0 14.13557,-12.12662 14.92032,-14.19217 0.78475,-2.067 -2.04102,-3.16962 -3.92542,-3.16962"
         style="fill:#414042;fill-opacity:1;fill-rule:nonzero;stroke:none;stroke-width:0.1749" />
      <path
         id="path68"
         d="m 338.52943,625.90933 c -2.35424,0.069 -24.65725,0.84649 -30.31214,3.22067 -5.65491,2.36872 -17.90606,12.19601 -20.41859,16.26316 -2.51255,4.06534 0,6.43607 3.14067,6.26858 3.14236,-0.17092 23.71587,-1.35493 27.9579,-1.35493 4.24032,0 9.11047,-3.05173 11.4664,-5.5912 2.35593,-2.54129 9.15258,-12.73007 10.52841,-14.76274 1.37247,-2.03267 0.65846,-4.13073 -2.36265,-4.04354"
         style="fill:#ffffff;fill-opacity:1;fill-rule:nonzero;stroke:none;stroke-width:0.1749" />
      <path
         id="path69"
         d="m 338.52943,625.90933 c -1.34554,0.0418 -9.19638,0.31062 -16.73567,0.97727 -4.81626,4.0708 -11.48662,12.45397 -13.78865,23.85254 4.80783,-0.24159 13.25145,-0.43233 14.96071,-0.43233 4.24203,0 9.11048,-3.05173 11.46641,-5.5912 2.35593,-2.54129 5.81151,-9.82729 7.71108,-15.12059 0.842,-2.34692 -0.59277,-3.77288 -3.61388,-3.68569"
         style="fill:#fab30b;fill-opacity:1;fill-rule:nonzero;stroke:none;stroke-width:0.1749" />
      <path
         id="path70"
         d="m 310.32566,687.38877 c 0,2.04721 -1.53749,3.70403 -3.43369,3.70403 v 0 c -1.89619,0 -3.432,-1.65682 -3.432,-3.70403 v -10.88759 c 0,-2.04793 1.53581,-3.70404 3.432,-3.70404 v 0 c 1.8962,0 3.43369,1.65611 3.43369,3.70404 v 10.88759"
         style="fill:#4a4b4c;fill-opacity:1;fill-rule:nonzero;stroke:none;stroke-width:0.1749" />
      <path
         id="path71"
         d="m 331.55764,691.91931 c 0,2.00179 -1.50383,3.62175 -3.35792,3.62175 h -6.30492 c -1.8541,0 -3.35792,-1.61996 -3.35792,-3.62175 v 0 c 0,-2.00159 1.50382,-3.62229 3.35792,-3.62229 h 6.30492 c 1.85409,0 3.35792,1.6207 3.35792,3.62229 v 0"
         style="fill:#4a4b4c;fill-opacity:1;fill-rule:nonzero;stroke:none;stroke-width:0.1749" />
      <path
         id="path72"
         d="m 144.74291,625.90933 c 2.35492,0.069 24.65826,0.84649 30.31147,3.22067 5.65489,2.36872 17.90605,12.19601 20.41859,16.26316 2.51423,4.06534 9e-4,6.43607 -3.14066,6.26858 -3.14069,-0.17092 -23.71589,-1.35493 -27.95622,-1.35493 -4.24102,0 -9.11082,-3.05173 -11.46642,-5.5912 -2.35558,-2.54129 -9.15409,-12.73007 -10.52842,-14.76274 -1.37414,-2.03267 -0.65844,-4.13073 2.36166,-4.04354"
         style="fill:#ffffff;fill-opacity:1;fill-rule:nonzero;stroke:none;stroke-width:0.1749" />
      <path
         id="path73"
         d="m 144.74291,625.90933 c 1.34451,0.0418 9.19554,0.31062 16.73619,0.97727 4.81675,4.0708 11.48711,12.45397 13.78915,23.85254 -4.80953,-0.24159 -13.25247,-0.43233 -14.96207,-0.43233 -4.24168,0 -9.11015,-3.05173 -11.46574,-5.5912 -2.35626,-2.54129 -5.81117,-9.82729 -7.71024,-15.12059 -0.84199,-2.34692 0.59261,-3.77288 3.61271,-3.68569"
         style="fill:#fab30b;fill-opacity:1;fill-rule:nonzero;stroke:none;stroke-width:0.1749" />
      <path
         id="path74"
         d="m 172.94769,687.38877 c 0,2.04721 1.53581,3.70403 3.43368,3.70403 v 0 c 1.89451,0 3.43202,-1.65682 3.43202,-3.70403 v -10.88759 c 0,-2.04793 -1.53751,-3.70404 -3.43202,-3.70404 v 0 c -1.89787,0 -3.43368,1.65611 -3.43368,3.70404 v 10.88759"
         style="fill:#4a4b4c;fill-opacity:1;fill-rule:nonzero;stroke:none;stroke-width:0.1749" />
      <path
         id="path75"
         d="m 151.71505,691.91931 c 0,2.00179 1.50314,3.62175 3.35757,3.62175 h 6.30576 c 1.85426,0 3.35639,-1.61996 3.35639,-3.62175 v 0 c 0,-2.00159 -1.50213,-3.62229 -3.35639,-3.62229 h -6.30576 c -1.85443,0 -3.35757,1.6207 -3.35757,3.62229 v 0"
         style="fill:#4a4b4c;fill-opacity:1;fill-rule:nonzero;stroke:none;stroke-width:0.1749" />
      <path
         id="path76"
         d="m 241.63668,705.11113 c 0,0 28.34185,0 51.83206,0 l -2.494,-3.9567 c -1.73285,-2.75383 -5.58754,-4.84989 -8.70969,-4.84989 h -81.26011 c -3.12552,0 -6.97011,2.09606 -8.708,4.84989 l -2.49403,3.9567 c 23.49192,0 51.83377,0 51.83377,0"
         style="fill:#414042;fill-opacity:1;fill-rule:nonzero;stroke:none;stroke-width:0.1749" />
      <path
         id="path77"
         d="m 995.016,1279.39 c 17.714,0 472.624,0 472.864,0 0.24,0 455.14,0 472.85,0 17.72,0 25.19,22.39 20.52,33.58 -2.62,6.29 -17.63,45.02 -36.23,87.83 -229.67,-2.62 -637.41,68.91 -895.96,40.66 -26.28,-55.95 -51.122,-120.22 -54.556,-128.49 -4.668,-11.19 2.793,-33.58 20.512,-33.58"
         style="fill:url(#linearGradient78);fill-opacity:1;fill-rule:nonzero;stroke:none"
         transform="matrix(0.16840077,0,0,-0.18165052,-5.5554447,832.47504)"
         clip-path="url(#clipPath78)" />
      <path
         id="path79"
         d="m 649.24197,696.23297 c 0,3.36762 -2.53106,6.1002 -5.65659,6.1002 h -114.7449 c -3.12216,0 -5.6549,-2.73258 -5.6549,-6.1002 v -5.1082 c 0,-3.36906 2.53274,-6.09946 5.6549,-6.09946 h 114.7449 c 3.12553,0 5.65659,2.7304 5.65659,6.09946 v 5.1082"
         style="fill:#3a3a3b;fill-opacity:1;fill-rule:nonzero;stroke:none;stroke-width:0.1749" />
      <path
         id="path80"
         d="m 702.4465,592.60879 -11.38726,-9.7e-4 c -3.3899,0 -6.2342,2.73384 -6.2342,6.10345 v 4.69748 c 0,1.9691 -3.29896,3.74928 -4.65458,4.25791 l 2.32729,4.06533 c 0,0 3.09689,-1.90188 7.74306,-2.28517 l -0.0219,-0.0273 c 0.27786,0.0109 0.55404,0.0309 0.84031,0.004 l 11.38726,-1.07901 c 2.86282,-0.27429 5.11265,-2.87733 5.11265,-5.82734 v -4.56488 c 0,-2.95181 -2.24983,-5.34416 -5.11265,-5.34233"
         style="fill:#414042;fill-opacity:1;fill-rule:nonzero;stroke:none;stroke-width:0.1749" />
      <path
         id="path81"
         d="m 469.97935,592.60879 11.38894,-9.7e-4 c 3.3916,0 6.23588,2.73384 6.23588,6.10345 v 4.69748 c 0,1.9691 3.29728,3.74928 4.65292,4.25791 l -2.3273,4.06533 c 0,0 -3.09857,-1.90188 -7.74475,-2.28517 l 0.0219,-0.0273 c -0.27617,0.0109 -0.55234,0.0309 -0.83863,0.004 l -11.38894,-1.07901 c -2.86113,-0.27429 -5.11097,-2.87733 -5.11097,-5.82734 v -4.56488 c 0,-2.95181 2.24984,-5.34416 5.11097,-5.34233"
         style="fill:#414042;fill-opacity:1;fill-rule:nonzero;stroke:none;stroke-width:0.1749" />
      <path
         id="path82"
         d="m 481.61248,607.39515 c 2.6102,0.24522 4.10729,-2.84466 4.10729,-4.49585 v -4.18887 c 0,-2.20523 -1.99219,-4.06896 -4.35148,-4.06896 l -11.39062,0.004 c -1.80863,0 -3.22489,1.44956 -3.22489,3.30605 v 4.56488 c 0,1.91639 1.52404,3.62393 3.39329,3.80376 l 11.46641,1.07536 v 0"
         style="fill:#dbdad8;fill-opacity:1;fill-rule:nonzero;stroke:none;stroke-width:0.1749" />
      <path
         id="path83"
         d="m 690.91948,607.39515 c -2.61189,0.24522 -4.10899,-2.84466 -4.10899,-4.49585 v -4.18887 c 0,-2.20523 1.99387,-4.06896 4.35149,-4.06896 l 11.39062,0.004 c 1.80861,0 3.22319,1.44956 3.22319,3.30605 v 4.56488 c 0,1.91639 -1.52066,3.62393 -3.39159,3.80376 l -11.46472,1.07536 v 0"
         style="fill:#dbdad8;fill-opacity:1;fill-rule:nonzero;stroke:none;stroke-width:0.1749" />
      <path
         id="path84"
         d="m 510.46964,717.63867 c 0,3.36979 -2.53107,6.09819 -5.65322,6.09819 h -20.02454 c -3.12215,0 -5.65489,-2.7284 -5.65489,-6.09819 v -49.8084 c 0,-3.36762 2.53274,-6.10017 5.65489,-6.10017 h 20.02454 c 3.12215,0 5.65322,2.73255 5.65322,6.10017 v 49.8084"
         style="fill:#3a3a3b;fill-opacity:1;fill-rule:nonzero;stroke:none;stroke-width:0.1749" />
      <path
         id="path85"
         d="m 693.29056,717.63867 c 0,3.36979 -2.53274,6.09819 -5.65489,6.09819 h -20.02455 c -3.12382,0 -5.65489,-2.7284 -5.65489,-6.09819 v -49.8084 c 0,-3.36762 2.53107,-6.10017 5.65489,-6.10017 h 20.02455 c 3.12215,0 5.65489,2.73255 5.65489,6.10017 v 49.8084"
         style="fill:#3a3a3b;fill-opacity:1;fill-rule:nonzero;stroke:none;stroke-width:0.1749" />
      <path
         id="path86"
         d="m 681.86457,606.45783 c -3.29899,-8.64112 -10.60083,-29.35109 -16.96301,-44.85497 -6.36051,-15.50023 -18.61166,-19.05876 -26.38672,-19.05876 -7.77506,0 -52.30023,0 -52.30023,0 0,0 -44.52853,0 -52.30359,0 -7.77338,0 -20.02286,3.55853 -26.38504,19.05876 -6.36049,15.50388 -13.66403,36.21385 -16.96302,44.85497 -3.29726,8.63929 -8.95048,12.83361 -8.95048,23.25308 0,10.41948 0,34.13723 0,39.55985 0,5.42046 8.95218,35.40768 27.9562,35.40768 2.2751,0 5.10424,0 8.32405,0 4.31611,0 8.0883,-3.03066 9.20984,-4.53418 l 2.29362,-3.07751 c 1.82884,-2.44865 5.75763,-4.32474 8.87809,-4.32474 h 95.88571 c 3.12552,0 7.05263,1.87609 8.87642,4.32474 l 2.43002,3.26408 c 1.26973,1.55329 4.89541,4.34761 9.05153,4.34761 3.22488,0 6.06242,0 8.34259,0 19.00402,0 27.9562,-29.98722 27.9562,-35.40768 0,-5.42262 0,-29.14037 0,-39.55985 0,-10.41947 -5.65322,-14.61379 -8.95218,-23.25308"
         style="fill:#595a5c;fill-opacity:1;fill-rule:nonzero;stroke:none;stroke-width:0.1749" />
      <path
         id="path87"
         d="m 2964.13,1241.86 c -19.58,-47.56 -53.15,-70.65 -53.15,-128.01 0,-29.85 0,-79.5 0,-124.498 h 1242.3 c 0,44.998 0,94.648 0,124.498 0,57.36 -33.57,80.45 -53.16,128.01 -3.36,8.14 -7.44,18.35 -12.05,29.91 h -1111.9 c -4.59,-11.56 -8.68,-21.77 -12.04,-29.91"
         style="fill:url(#linearGradient88);fill-opacity:1;fill-rule:nonzero;stroke:none"
         transform="matrix(0.16840077,0,0,-0.18165052,-8.598805,832.04235)"
         clip-path="url(#clipPath88)" />
      <path
         id="path89"
         d="m 627.44248,635.93607 h -82.45742 c -3.15584,0 -4.96614,-0.67936 -6.25105,-2.34329 -0.30985,-0.40143 -1.74967,-2.20342 -3.78059,-4.75016 -5.62458,-7.04621 -16.09575,-20.16684 -19.31221,-24.48105 -4.59229,-6.15613 -5.04865,-10.07251 -4.93414,-12.79362 0.1229,-2.93368 4.74049,-8.9445 4.9392,-9.19698 l 0.72243,0.65031 c -1.27983,1.66029 -4.62934,6.43951 -4.72027,8.59387 -0.10773,2.54312 0.33344,6.21791 4.72532,12.10883 3.20974,4.30331 13.67078,17.41303 19.29368,24.4538 2.03596,2.55583 3.48084,4.36324 3.78902,4.7647 1.10134,1.42413 2.65063,1.97636 5.52861,1.97636 h 82.45742 c 2.87798,0 4.42726,-0.55223 5.5286,-1.97636 0.30986,-0.40146 1.75137,-2.20887 3.79071,-4.7647 5.61953,-7.04077 16.08226,-20.15049 19.29199,-24.4538 4.3919,-5.89092 4.83311,-9.56571 4.72533,-12.10883 -0.0893,-2.15436 -3.43875,-6.93358 -4.72028,-8.59387 l 0.72244,-0.65031 c 0.19702,0.25248 4.81627,6.2633 4.93919,9.19698 0.11456,2.72111 -0.34016,6.63749 -4.93244,12.79362 -3.21984,4.31421 -13.68931,17.43484 -19.3139,24.48105 -2.0326,2.54674 -3.47074,4.34873 -3.7806,4.75016 -1.2849,1.66393 -3.0969,2.34329 -6.25104,2.34329"
         style="fill:#4a4b4c;fill-opacity:1;fill-rule:nonzero;stroke:none;stroke-width:0.1749" />
      <path
         id="path90"
         d="m 658.08805,604.89018 c 0,0 -20.92716,26.34296 -21.28079,27.10589 -0.35365,0.76293 -0.58941,2.2888 2.70956,2.2888 3.29729,0 30.27341,0 32.74722,0 2.47211,0 5.53702,-0.63577 5.53702,-4.44862 0,-3.81102 0,-17.33855 0,-20.07056 0,-2.73203 -0.82516,-4.87551 -4.24203,-4.87551 -3.41516,0 -15.47098,0 -15.47098,0"
         style="fill:#d4115e;fill-opacity:1;fill-rule:nonzero;stroke:none;stroke-width:0.1749" />
      <path
         id="path91"
         d="m 514.33949,604.89018 c 0,0 20.92716,26.34296 21.28079,27.10589 0.35365,0.76293 0.58941,2.2888 -2.70788,2.2888 -3.29897,0 -30.2751,0 -32.74889,0 -2.47213,0 -5.53703,-0.63577 -5.53703,-4.44862 0,-3.81102 0,-17.33855 0,-20.07056 0,-2.73203 0.82517,-4.87551 4.24202,-4.87551 3.41516,0 15.47099,0 15.47099,0"
         style="fill:#d4115e;fill-opacity:1;fill-rule:nonzero;stroke:none;stroke-width:0.1749" />
      <path
         id="path92"
         d="m 645.74092,556.26779 c -0.94306,-1.52587 -3.14236,-5.33689 -7.5393,-5.33689 -4.39695,0 -51.98701,0 -51.98701,0 0,0 -47.59005,0 -51.98701,0 -4.4003,0 -6.59793,3.81102 -7.54097,5.33689 -0.94138,1.52405 -12.40778,24.39384 -12.56439,26.42651 -0.15492,2.03449 1.09965,3.30423 6.59625,3.30423 5.4983,0 65.49612,0 65.49612,0 0,0 59.99614,0 65.49275,0 5.49827,0 6.75455,-1.26974 6.59626,-3.30423 -0.15493,-2.03267 -11.62134,-24.90246 -12.5627,-26.42651"
         style="fill:#414042;fill-opacity:1;fill-rule:nonzero;stroke:none;stroke-width:0.1749" />
      <path
         id="path93"
         d="m 612.83541,628.10149 h -53.24327 v -17.28224 h 53.24327 v 17.28224"
         style="fill:#ebeae9;fill-opacity:1;fill-rule:nonzero;stroke:none;stroke-width:0.1749" />
      <path
         id="path94"
         d="m 2910.98,1021.99 c 0,-53.181 0,-107.9 0,-125.92 0,-29.84 53.16,-194.922 166.01,-194.922 13.51,0 30.31,0 49.43,0 25.63,0 48.03,16.684 54.69,24.961 l 13.62,16.942 c 10.86,13.48 34.19,23.808 52.72,23.808 h 569.39 c 18.56,0 41.88,-10.328 52.71,-23.808 l 14.43,-17.969 c 7.54,-8.551 29.07,-23.934 53.75,-23.934 19.15,0 36,0 49.54,0 112.85,0 166.01,165.082 166.01,194.922 0,18.02 0,72.739 0,125.92 h -1242.3"
         style="fill:url(#linearGradient95);fill-opacity:1;fill-rule:nonzero;stroke:none"
         transform="matrix(0.16840077,0,0,-0.18165052,-8.598805,832.04235)"
         clip-path="url(#clipPath95)" />
    </g>
  </g>
</svg>
