<?xml version="1.0" encoding="UTF-8" standalone="no"?>
<svg
   version="1.0"
   width="1075.7993"
   height="920.33856"
   viewBox="0 0 1195.3325 920.33856"
   preserveAspectRatio="xMidYMid"
   id="svg38"
   sodipodi:docname="car.svg"
   inkscape:version="1.4.2 (ebf0e940d0, 2025-05-08)"
   xmlns:inkscape="http://www.inkscape.org/namespaces/inkscape"
   xmlns:sodipodi="http://sodipodi.sourceforge.net/DTD/sodipodi-0.dtd"
   xmlns="http://www.w3.org/2000/svg"
   xmlns:svg="http://www.w3.org/2000/svg">
  <defs
     id="defs38" />
  <sodipodi:namedview
     id="namedview38"
     pagecolor="#ffffff"
     bordercolor="#000000"
     borderopacity="0.25"
     inkscape:showpageshadow="2"
     inkscape:pageopacity="0.0"
     inkscape:pagecheckerboard="0"
     inkscape:deskcolor="#d1d1d1"
     inkscape:zoom="0.96369043"
     inkscape:cx="592.51393"
     inkscape:cy="391.7233"
     inkscape:window-width="2560"
     inkscape:window-height="1312"
     inkscape:window-x="0"
     inkscape:window-y="0"
     inkscape:window-maximized="1"
     inkscape:current-layer="g38" />
  <g
     transform="matrix(0.1,0,0,-0.1,-11.724227,878.6899)"
     stroke="none"
     id="g38">
    <path
       d="m 2095.6574,9281.84 c -296.6843,-66.9509 -527.7305,-292.746 -603.8707,-592.0558 -103.7082,-405.6435 135.2145,-824.4146 544.7964,-954.3782 133.9017,-42.0083 342.6309,-39.3827 475.2199,7.8767 129.9634,44.6339 204.7909,90.5805 304.5608,185.0995 219.2313,211.3546 300.6226,530.3559 207.4164,816.538 -81.3912,245.4865 -279.6183,442.4008 -521.1666,518.541 -112.8975,35.4447 -295.3715,43.3212 -406.9562,18.3788 z"
       id="path1"
       style="stroke-width:1.31276" />
    <path
       d="m 9355.2318,9293.6548 c -77.4523,-15.7531 -208.7283,-63.0126 -275.6793,-101.0827 -120.7747,-68.2636 -250.7379,-207.4164 -311.125,-337.3799 -66.9508,-140.4655 -84.0167,-213.9802 -84.0167,-354.4458 0,-140.4655 17.0659,-213.9802 81.3912,-350.5074 120.7742,-253.3632 375.4504,-424.0222 664.2581,-445.0265 290.1197,-21.0041 601.2449,148.3422 744.3349,403.0181 135.215,244.1738 132.589,551.3601 -7.876,796.8466 -89.268,158.8442 -253.3623,288.8076 -455.5285,359.6969 -72.2011,24.9424 -284.8696,42.0083 -355.7587,28.8807 z"
       id="path2"
       style="stroke-width:1.31276" />
    <path
       d="m 440.26418,8524.3761 -97.14443,-200.8525 -55.13596,-9.1894 c -70.88914,-11.8149 -129.96342,-42.0084 -156.21871,-82.704 -18.37866,-27.568 -18.37866,-53.8232 -5.25106,-223.1696 17.06591,-221.8568 31.50635,-275.68 82.70399,-313.7502 35.44457,-26.2552 49.885,-27.5679 309.81195,-23.6297 l 273.05453,5.2511 69.5764,-198.2271 c 38.07004,-110.272 66.95082,-202.1654 63.0125,-204.7909 -2.62548,-2.6255 -99.76991,-11.8148 -213.98015,-19.6914 -115.52309,-7.8766 -219.23132,-15.7532 -229.73344,-17.0659 -28.88077,-5.2511 148.34218,-106.3338 269.11622,-153.5932 345.25658,-137.8401 666.88328,-202.1654 1253.68798,-254.6759 853.2954,-77.453 972.7568,-89.2678 1131.601,-112.8975 328.1905,-49.885 475.2199,-99.7699 706.266,-240.2355 450.2775,-273.0545 1319.326,-757.4638 1411.2194,-787.6573 99.7699,-31.5063 270.429,-60.387 493.5986,-82.704 280.9311,-26.2553 1614.6975,-40.6956 1928.4476,-19.6915 530.3559,35.4447 1044.9587,108.9593 1384.9643,196.9143 202.1651,52.5105 380.7005,132.589 1102.7201,490.9731 346.569,171.9718 661.632,324.2523 702.327,337.3799 39.383,13.1276 173.285,44.634 295.372,70.8891 640.629,136.5274 833.604,236.2973 833.604,430.586 0,102.3955 -9.189,106.3337 -174.597,81.3913 -77.453,-11.8149 -144.404,-18.3787 -149.656,-13.1276 -7.876,7.8765 -55.135,397.7669 -56.448,462.0922 0,24.9426 10.502,28.8808 80.078,35.4447 162.783,17.0658 280.932,68.2636 325.566,140.4655 32.819,53.8233 59.074,219.2312 49.885,308.4991 -13.128,128.6507 -94.519,229.7334 -183.787,229.7334 -43.321,0 -55.136,18.3787 -85.33,124.7124 -47.259,164.0953 -74.827,204.7909 -161.469,229.7334 -26.255,7.8766 -282.244,13.1277 -610.435,13.1277 h -565.8 l -15.754,-81.3913 c -57.761,-295.3715 -212.667,-605.1835 -393.828,-783.719 -220.5438,-217.9186 -539.5455,-287.495 -849.3568,-183.7868 -332.1292,108.9593 -593.3689,463.4051 -695.7644,942.5632 l -22.3169,106.3339 H 5868.5358 3252.2008 l -6.5638,-42.0085 c -28.8807,-171.9718 -40.6956,-225.795 -69.5764,-319.0012 -119.4614,-379.3883 -368.8862,-634.0642 -698.3894,-710.2044 -112.8976,-26.2551 -362.3225,-26.2551 -467.3434,1.3128 -284.8694,72.202 -501.4751,276.9928 -632.7514,597.3068 -48.5722,116.8358 -93.2061,283.5567 -105.021,393.8287 l -7.8765,78.7658 H 901.04367 537.40861 Z m 782.40632,91.8934 c 7.8766,-53.8232 51.1978,-241.5482 66.9508,-288.8077 6.5638,-22.3169 -19.6913,-23.6297 -439.77527,-23.6297 -246.79934,0 -447.6519,3.9383 -447.6519,7.8766 0,5.2511 38.07005,87.9551 84.01673,183.7867 l 85.32958,175.9102 h 320.31396 321.6267 z m 2397.1037,17.0659 c -22.317,-31.5062 -61.6997,-137.84 -114.2102,-312.4374 -2.6256,-11.8149 -43.3212,-17.0659 -140.4657,-17.0659 -74.8273,0 -139.1528,2.6256 -143.091,6.5638 -3.9383,3.9383 6.5638,52.5105 23.6297,108.9593 15.7532,55.136 32.819,135.2144 38.0701,177.2229 l 9.1894,74.8275 h 177.2228 175.9102 z m 2978.6575,28.8808 c 0,-6.5638 -13.1276,-89.2678 -28.8808,-183.7867 l -28.8808,-174.5974 H 5051.9978 3563.3255 l 9.1893,49.885 c 15.7532,86.6423 69.5764,225.7951 105.021,271.7418 l 34.1318,45.9467 h 1444.0385 c 792.9083,0 1442.7256,-3.9383 1442.7256,-9.1894 z M 8257.763,8504.6847 c 27.568,-93.2061 52.5105,-175.9101 56.4488,-183.7867 5.2511,-13.1276 -171.9719,-17.0659 -855.9209,-17.0659 h -863.7976 l 9.1894,56.4488 c 3.9382,30.1935 18.3787,112.8975 30.1935,183.7867 l 21.0043,127.338 h 777.1551 775.8425 z m 196.9143,116.8359 c 6.5638,-48.5722 61.6999,-245.4865 81.3913,-295.3715 7.8766,-21.0042 1.3127,-23.6298 -74.8275,-19.6914 l -82.704,3.9382 -24.9424,65.6382 c -26.2553,68.2635 -86.6423,267.8034 -87.9551,286.1821 0,5.2511 40.6957,9.1894 90.5806,9.1894 h 89.2679 z m 3182.1357,35.4445 c 51.197,-18.3786 74.827,-53.8232 106.334,-166.7208 27.568,-102.3954 48.572,-145.7166 78.765,-169.3463 17.067,-13.1276 -128.651,-15.7531 -697.077,-15.7531 -396.454,0 -719.394,3.9382 -719.394,9.1893 0,5.2511 14.441,51.1977 32.82,103.7082 17.066,52.5105 39.382,129.9634 48.572,173.2847 l 15.753,80.0785 h 547.422 c 355.759,0 560.55,-5.2511 586.805,-14.4405 z M 1347.3829,8189.6218 c 137.84,-307.1863 361.0096,-510.6645 638.0024,-581.5536 140.4656,-36.7574 382.0139,-36.7574 525.1049,0 152.2805,38.0701 280.9311,107.6464 395.1414,215.293 114.2103,106.3337 183.7867,203.4781 255.9886,357.0713 l 51.1977,110.272 h 84.0169 84.0167 l -30.1935,-87.9551 c -64.3253,-187.7249 -148.3422,-328.1906 -282.2439,-468.6561 -206.1036,-213.9803 -443.7136,-317.6884 -769.2786,-332.1288 -405.6435,-18.3787 -732.5213,135.2145 -959.6291,451.5902 -64.3254,87.9551 -133.9018,231.0462 -170.6592,349.1947 -28.8808,93.2061 -49.8849,99.7699 -23.6297,6.5638 42.0085,-147.0293 207.4164,-448.9646 257.3015,-467.3433 5.251,-2.6255 10.502,-10.5021 10.502,-17.0659 0,-6.5638 -228.4206,-10.5021 -577.6154,-7.8766 -616.99821,5.251 -605.18336,3.9383 -631.43865,70.8892 -14.44033,39.3828 -40.69563,380.701 -31.50625,410.8945 3.93832,11.8149 23.62971,30.1935 43.3211,39.3829 87.95516,42.0084 182.47401,48.5722 632.75139,51.1978 l 452.90301,1.3127 z m 2147.679,59.0743 c -14.4405,-73.5147 -47.2595,-367.5734 -47.2595,-430.586 0,-123.3997 6.5638,-118.1486 -191.6632,-118.1486 -97.1445,0 -175.9103,2.6256 -175.9103,6.5639 0,3.9382 11.8149,21.0041 27.5681,36.7573 99.7699,103.7082 212.6675,299.3097 262.5524,452.9029 l 30.1936,94.5189 h 51.1977 c 51.1977,0 51.1977,0 43.3212,-42.0084 z m 3045.6082,19.6914 c -6.5638,-22.317 -60.3871,-510.6645 -60.3871,-550.0473 0,-15.7531 -196.9142,-18.3787 -1492.6105,-15.7531 l -1493.9234,3.9383 3.9382,78.7656 c 5.2511,112.8977 27.5681,328.1906 43.3212,424.0222 l 14.4404,81.3913 h 1496.5489 c 1417.7832,0 1495.2361,-1.3127 1488.6723,-22.317 z m 1835.2416,-98.4572 c 60.387,-144.4038 149.6548,-303.248 219.2312,-391.203 28.8808,-35.4446 51.1977,-68.2637 51.1977,-72.2019 0,-3.9383 -476.5326,-6.5639 -1058.0863,-6.5639 H 6530.168 l 7.8765,89.2679 c 22.317,225.7951 48.5723,469.9688 53.8234,485.7219 3.9382,11.8149 190.3504,15.7532 869.0485,15.7532 h 863.7975 z m 212.6674,39.3829 c 154.906,-328.1905 395.1415,-542.1707 685.2623,-609.1216 99.77,-23.6297 308.4982,-24.9425 410.8944,-3.9383 129.9628,26.2552 279.6184,108.9592 392.5152,216.6058 114.211,108.9593 186.412,210.0419 265.178,370.1989 l 53.823,107.6465 h 110.272 108.96 L 10576.1,8183.058 c -72.201,-196.9143 -217.918,-406.9563 -371.511,-532.9814 -91.894,-74.8275 -282.2431,-168.0336 -408.2689,-199.54 -308.4993,-77.4529 -664.257,-30.1935 -890.0525,116.836 -194.2888,126.0251 -346.5693,315.0629 -456.8413,564.4877 -70.8892,156.2187 -69.5764,158.8442 23.6297,158.8442 h 76.1403 z m 3371.1729,56.4488 c 57.762,-63.0126 76.141,-211.3547 42.009,-336.0671 -26.255,-99.7699 -40.696,-118.1486 -114.211,-150.9676 -135.214,-57.7616 -248.111,-65.6381 -934.686,-65.6381 h -641.942 l 51.199,63.0125 c 110.271,132.589 203.478,297.9971 248.111,439.7753 l 23.63,74.8275 h 651.131 c 628.813,0 653.755,-1.3127 674.759,-24.9425 z M 1515.4165,7627.7596 c 404.3308,-336.0671 1064.6501,-334.7544 1476.8574,2.6255 l 68.2637,56.4488 h 185.0994 185.0995 l 9.1893,-173.2847 c 14.4404,-286.1821 59.0743,-546.109 131.2763,-756.151 27.568,-84.0167 28.8807,-95.8315 10.5021,-87.955 -11.8149,3.9383 -78.7658,22.317 -148.3422,40.6956 -234.9844,59.0743 -454.2157,85.3296 -1363.9599,162.7825 -177.2229,15.7532 -404.3307,39.3829 -505.4135,53.8233 -313.7501,44.6339 -656.38102,137.84 -858.54642,232.3589 l -73.51472,34.1318 98.45717,9.1894 c 53.82322,3.9382 137.84006,9.1892 187.72496,10.5021 48.57227,0 87.95501,3.9382 87.95501,5.2509 0,3.9384 -94.51881,274.3674 -149.65477,426.6478 l -19.6915,55.136 h 295.37157 296.6842 z m 4964.8665,-56.4488 c 0,-174.5974 24.9426,-580.2409 45.9467,-750.9 19.6915,-164.0952 38.0701,-414.8328 59.0744,-853.2954 7.8765,-154.9059 17.0658,-296.6842 21.0041,-313.7502 l 6.5638,-31.5062 -325.565,9.1893 c -496.2241,14.4404 -901.8676,57.7615 -1046.2715,112.8976 -70.8891,26.2552 -1058.0863,585.4919 -1378.4003,778.468 -77.4529,48.5721 -152.2803,90.5805 -165.4079,94.5188 -45.9467,14.4404 -137.8401,320.314 -177.223,589.4302 -11.8148,78.7658 -24.9424,219.2313 -28.8808,311.1247 l -7.8765,169.3463 H 4981.1086 6480.283 Z m 2239.5723,74.8275 c 44.634,-47.2595 206.1036,-156.2188 350.5079,-236.2973 305.8732,-170.659 278.3054,-329.5032 -158.8446,-911.0569 -211.3548,-279.6183 -522.4793,-619.6237 -693.1384,-756.151 -74.8274,-59.0743 -85.3296,-64.3254 -190.3505,-76.1403 -237.61,-28.8807 -586.8047,-42.0083 -970.1313,-38.07 l -400.3925,3.9383 -9.1893,157.5315 c -5.2511,86.6423 -18.3787,320.3139 -30.1935,518.541 -11.8149,198.2271 -28.8808,429.2733 -39.3829,511.9772 -22.3169,174.5974 -45.9466,563.175 -45.9466,743.0235 v 123.3996 H 7606.633 8680.4725 Z m 2867.0727,-248.1121 30.193,-288.8076 40.696,6.5638 c 107.646,19.6913 271.741,40.6956 276.992,34.1318 3.939,-2.6256 6.565,-27.568 6.565,-55.1361 0,-148.3421 -210.043,-240.2354 -859.859,-378.0755 -101.083,-21.0041 -221.857,-52.5105 -269.117,-70.8891 -47.26,-17.0659 -316.376,-147.0294 -598.62,-288.8077 -851.982,-426.6477 -970.1306,-477.8454 -1239.2467,-542.1708 -133.9018,-31.5062 -511.9773,-98.4572 -656.3812,-116.8358 l -72.202,-9.1894 128.6507,122.0869 c 229.7335,215.293 557.9243,609.1217 769.2786,921.5591 148.3425,219.2313 206.1043,387.2649 173.2842,504.1007 -15.7524,56.4487 -80.0784,135.2145 -145.7164,177.2228 -30.1928,19.6915 -27.5678,19.6915 52.5106,2.6256 114.2105,-23.6297 406.9563,-23.6297 521.1668,0 183.7865,39.3828 309.8124,97.1443 458.1534,210.042 l 77.453,59.0742 638.003,1.3128 h 636.689 z"
       id="path3"
       style="stroke-width:1.31276" />
    <path
       d="m 2762.5406,7296.9435 c -6.5638,-7.8765 -10.5021,-38.0701 -7.8767,-65.6381 l 3.9383,-49.885 h 98.4572 98.4572 l 3.9383,51.1978 c 2.6255,27.568 -1.3128,56.4488 -7.8766,63.0126 -19.6914,19.6914 -173.2847,19.6914 -189.0377,1.3127 z"
       id="path4"
       style="stroke-width:1.31276" />
    <path
       d="m 5876.4125,7312.6967 c -26.2553,-31.5064 -21.0042,-126.0252 7.8765,-147.0294 34.1319,-24.9425 358.3841,-23.6298 392.5159,1.3128 30.1936,22.317 35.4446,111.5848 7.8766,144.4039 -24.9425,30.1935 -383.3266,31.5062 -408.269,1.3127 z"
       id="path5"
       style="stroke-width:1.31276" />
    <path
       d="m 3863.948,6664.1921 c 234.9845,-219.2313 1173.6094,-770.5913 1493.9233,-878.2379 105.021,-35.4445 317.6885,-65.638 584.1793,-81.3912 255.9886,-15.7532 577.6153,-17.0659 577.6153,-2.6255 0,24.9425 -66.9508,909.7442 -73.5146,971.444 l -6.5639,68.2636 H 5111.0721 l -1328.5154,-1.3128 z"
       id="path6"
       style="stroke-width:1.31276" />
    <path
       d="m 8549.1963,7303.5073 c -11.815,-15.7532 -21.0042,-44.6339 -21.0042,-63.0126 0,-18.3786 9.1892,-47.2594 21.0042,-63.0126 18.3787,-27.5679 28.8807,-28.8807 196.9142,-28.8807 98.4572,0 189.0376,6.5638 203.4781,13.1276 19.6916,10.5022 24.9427,27.5681 24.9427,76.1402 0,35.4446 -6.5642,69.5764 -15.7535,78.7657 -10.5023,10.5021 -74.8272,15.7532 -202.1651,15.7532 -178.5357,0 -189.0377,-1.3128 -207.4164,-28.8808 z"
       id="path7"
       style="stroke-width:1.31276" />
    <path
       d="m 6690.325,6693.0729 c 0,-27.568 9.1893,-227.1078 19.6914,-443.7136 10.5021,-216.6058 19.6914,-427.9605 19.6914,-469.9689 v -77.4529 l 620.9365,6.5638 c 673.4471,5.2511 693.1386,7.8765 809.9744,81.3913 139.1528,87.955 359.6968,336.0671 548.7345,620.9365 97.1445,144.4037 199.5398,312.4373 199.5398,325.565 0,2.6255 -498.8495,5.251 -1109.2839,5.251 H 6690.325 Z"
       id="path8"
       style="stroke-width:1.31276" />
    <path
       d="m 10364.746,7409.841 c -61.7,-35.4445 -90.581,-86.6422 -90.581,-158.8442 0,-115.5231 82.705,-189.0377 199.54,-178.5357 186.413,18.3788 227.108,274.3674 55.136,346.5693 -60.387,24.9425 -108.959,22.317 -164.095,-9.1894 z"
       id="path9"
       style="stroke-width:1.31276" />
    <path
       d="m 9449.7506,6742.9579 -81.3904,-7.8766 -299.31,-301.9353 c -441.0882,-445.0264 -636.6898,-649.8172 -630.1259,-656.3811 11.8148,-11.8149 196.9142,22.3169 355.7585,66.9509 263.8651,72.2019 619.6238,198.2271 778.4676,273.0545 192.9768,91.8934 1094.8436,613.0599 1094.8436,631.4387 0,9.1892 -1121.0984,3.9382 -1218.2434,-5.2511 z"
       id="path10"
       style="stroke-width:1.31276" />
    <path
       d="M 218.23873,4120 V 2620 H 601.33845 981.55779 V 4120 5620 H 601.33845 218.23873 Z m 705.71008,-5 V 2630 H 592.69717 261.44546 v 1485 1485 h 331.25171 331.25164 z"
       id="path25"
       style="stroke-width:1.69718" />
    <path
       d="m 1305.7551,5610.5298 c 0,-5 -26.7896,-191 -58.9372,-412 -56.7941,-383 -61.0804,-404 -91.0849,-450 l -32.1476,-48 v -565 -565 l 32.1476,-59 c 28.9329,-53 39.6487,-102 98.586,-465 l 66.4383,-405 1233.3959,2 1232.3242,3 600.0884,137 600.0883,136 251.8228,16 c 747.9673,47 1608.4511,49 2494.653,6 198.2434,-10 235.749,-15 1050.1546,-158 l 843.3384,-147 500.4331,-3 499.36,-3 11.787,53 c 36.434,176 94.3,592 108.23,783 13.931,194 13.931,1153 0,1360 -13.93,205 -58.937,511 -108.23,743 l -10.716,52 h -468.283 -468.2859 l -867.985,-150 c -803.6897,-140 -881.9155,-151 -1055.5125,-160 -850.8395,-43 -1793.8355,-42 -2603.9547,0 l -187.5276,10 -573.2987,147 -573.2987,148 -1261.2571,2 c -890.4882,2 -1262.3287,0 -1262.3287,-8 z m 2427.143,-40 c -34.2907,-15 -2528.9437,-836 -2532.1584,-833 -2.1432,1 3.2147,13 12.859,26 9.6443,15 35.3623,156 69.6531,398 30.0044,206 56.7941,385 60.0088,398 l 5.358,22 1203.3914,-1 c 772.6137,0 1194.8188,-4 1180.8881,-10 z m 6001.9555,-49 c 47.1494,-75 115.732,-236 148.9512,-351 55.7226,-196 58.9376,-246 58.9376,-1024 0,-776 -3.215,-818 -58.9376,-1023 -50.3654,-187 -163.9539,-452 -193.9583,-452 -7.5011,0 -184.3129,29 -392.2006,65 -721.1776,125 -1075.8727,186 -1203.3914,208 l -128.5904,22 -34.2908,160 c -68.5815,316 -68.5815,315 -65.3667,1062 4.2863,646 5.3579,683 26.7896,783 46.0782,208 68.5815,295 81.4406,306 7.5011,6 271.1113,55 586.1577,109 315.0464,54 694.3879,119 841.1953,146 147.8789,26 274.3261,46 282.8987,46 8.5727,-1 31.0761,-27 50.3651,-57 z m 861.5574,52 c 0,-4 11.788,-70 25.718,-147 80.369,-426 92.157,-589 92.157,-1275 0,-671 -11.788,-833 -95.371,-1337 -12.859,-72 -22.504,-134 -22.504,-137 0,-3 -195.029,-6 -433.993,-6 -238.9638,0 -433.9944,2 -433.9944,4 0,2 13.931,34 32.1482,70 96.4428,203 162.8824,420 187.5286,615 23.5752,183 23.5752,1391 0,1571 -26.7892,213 -83.5848,391 -176.8136,558 l -51.4359,92 h 438.2811 c 241.107,0 438.279,-3 438.279,-8 z m -6933.166,-184 c -91.0848,-178 -165.0243,-347 -211.1025,-485 l -30.0044,-88 v -680 -680 l 28.9328,-97 c 46.0782,-153 99.6576,-279 201.4583,-475 52.5077,-101 92.1564,-183 87.87,-183 -4.2863,0 -238.9637,79 -521.8625,176 -282.8988,97 -618.3053,211 -744.7525,254 -126.4472,43 -442.5651,151 -701.889,240 -259.3239,89 -500.4308,171 -535.7932,183 l -64.2952,22 -3.2147,248 c -1.0716,136 0,247 4.2863,247 3.2148,0 40.7203,-10 81.4406,-21 l 76.0826,-22 19.2886,24 c 11.7874,13 37.5055,47 58.9372,76 l 39.6487,52 -56.7941,70 c -30.0044,39 -63.2236,71 -72.8678,71 -10.7159,0 -47.1498,-9 -81.4406,-20 -35.3624,-11 -65.3668,-20 -67.5099,-20 -1.0716,0 -3.2148,94 -3.2148,209 0,153 3.2148,212 12.859,217 18.217,11 2539.6596,842 2555.7334,843 6.4295,1 -25.7181,-72 -71.7963,-161 z m 37.5055,-34 c -60.0088,-247 -58.9372,-241 -71.7962,-1164 l -11.7875,-866 27.8613,-160 c 16.0738,-87 42.8634,-212 60.0088,-277 16.0738,-64 27.8612,-117 25.7181,-117 -8.5727,0 -128.5904,243 -178.955,362 -26.7896,64 -62.152,156 -78.2258,205 l -30.0044,88 -3.2147,672 c -3.2148,767 -7.5011,727 92.1564,970 54.6509,132 185.3844,406 190.7424,400 2.1431,-2 -7.5011,-53 -22.5034,-113 z m 1682.3906,-95 c 410.4175,-18 873.3428,-24 1370.5589,-18 463.9968,7 1042.6535,24 1125.1656,34 40.7203,6 41.7919,5 35.3624,-22 -97.5144,-424 -93.2281,-377 -93.2281,-1113 0,-700 0,-700 64.2952,-1004 18.217,-87 32.1476,-160 30.0044,-162 -2.1431,-2 -91.0848,1 -196.1003,6 -874.4144,42 -1728.4687,40 -2468.9348,-6 -137.1631,-8 -251.8228,-14 -252.8944,-12 -6.4295,5 -37.5055,220 -53.5793,363 -11.7875,109 -16.0738,289 -16.0738,805 0,691 2.1432,737 50.3645,1038 l 18.217,114 69.6531,-6 c 38.5771,-3 182.1697,-11 317.1896,-17 z m -4030.2362,-1028 c 21.4317,-27 38.5771,-52 38.5771,-55 0,-4 -17.1454,-28 -38.5771,-55 l -39.6487,-49 -63.2236,20 -63.2236,20 3.2148,66 3.2148,65 53.5793,18 c 30.0044,10 56.794,18 61.0804,18 3.2148,1 23.5749,-21 45.0066,-48 z m 145.7358,-785 c 649.3813,-221 2001.7232,-684 2137.8147,-731 l 96.4427,-34 h -1186.246 l -1187.3177,-1 -5.3579,23 c -2.1432,12 -32.1476,189 -65.3668,392 -40.7202,250 -66.4383,382 -80.3689,407 -19.2886,36 -23.5749,48 -17.1454,48 1.0716,0 140.3778,-47 307.5453,-104 z"
       id="path26"
       style="stroke-width:1.03517" />
    <path
       d="m 9187.1816,5384.5298 c -129.662,-11 -652.5961,-127 -938.7096,-209 -19.2886,-5 -48.2214,-126 -79.2974,-334 -22.5033,-153 -22.5033,-1260 0,-1440 21.4317,-169 45.0066,-301 55.7225,-310 11.7874,-10 476.8559,-122 662.2403,-159 244.3217,-49 360.053,-61 577.5854,-61 h 199.315 v 1260 1260 l -216.461,-2 c -120.017,-1 -236.8203,-3 -260.3952,-5 z"
       id="path27"
       style="stroke-width:1.03517" />
    <path
       d="m 6163.2744,4811 c -52.5077,-23 -107.1586,-72 -137.163,-125 -23.5749,-40 -23.5749,-49 -26.7897,-555 -3.2147,-593 -4.2863,-587 83.5838,-671 77.1542,-74 118.9461,-82 399.7017,-78 210.0309,3 230.391,5 270.0397,25 61.0804,31 97.5144,66 131.8051,126 l 28.9329,52 v 520 c 0,508 -1.0716,521 -22.5033,566 -31.076,63 -81.4406,113 -138.2347,138 -45.0066,19 -66.4383,21 -296.8294,21 -220.7468,0 -255.0375,-3 -292.5431,-19 z m 595.802,-23 c 56.7941,-31 95.3712,-75 121.0893,-138 16.0738,-41 17.1454,-95 15.0022,-560 -3.2148,-508 -3.2148,-516 -26.7897,-556 -26.7896,-48 -88.9416,-101 -138.2346,-120 -26.7897,-11 -96.4428,-14 -276.4693,-14 H 6213.639 l -56.7941,28 c -69.6531,34 -121.0892,98 -138.2346,176 -7.5011,36 -10.7159,208 -8.5727,532 l 3.2148,479 25.718,53 c 30.0044,62 102.8723,126 159.6664,140 22.5033,6 140.3778,10 275.3977,9 234.6774,-2 235.749,-2 285.0419,-29 z"
       id="path28"
       style="stroke-width:1.03517" />
    <path
       d="m 6431.7897,2596.7737 c -682.9863,-12.4179 -957.4226,-34.7702 -1167.2856,-100.5852 -96.8599,-29.8031 -942.521,-499.2009 -1343.6202,-746.3177 -306.7229,-188.7526 -478.0904,-226.0064 -1447.9308,-307.9647 -240.9079,-21.1105 -486.7829,-43.4628 -548.8726,-49.6718 -314.1737,-36.012 -654.425,-110.5196 -868.0134,-193.7197 -122.93752,-47.1881 -334.04242,-155.2241 -324.10802,-165.1585 3.7253,-2.4836 98.1016,-12.4179 211.1048,-19.8687 111.76142,-7.4507 207.37952,-17.38508 212.34662,-21.11048 3.7254,-4.9671 -22.3522,-91.8927 -58.3642,-193.7197 L 1032.473,614.87184 H 767.97108 c -245.8751,1.24179 -264.502,0 -290.5796,-23.59407 -45.9464,-40.97918 -58.3643,-89.40911 -74.5076,-289.33781 -13.6597,-171.36745 -13.6597,-191.23614 6.2089,-221.03918 22.3523,-34.77021 88.1674,-67.05683 157.7078,-75.7493796 44.7045,-6.20897 45.9463,-7.45076 136.5972,-197.4451104 l 90.6509,-191.23615 340.25142,2.48359 340.2513,3.72537 22.3523,130.38829 c 49.6717,294.30497 176.3346,547.63078 355.1528,706.5803 78.233,70.78221 230.9735,150.25698 339.0095,176.33463 99.3435,24.83586 358.8783,21.11049 459.4635,-6.20896 245.875,-65.81504 434.6276,-227.24815 558.8069,-478.09037 73.2658,-145.2897996 104.3106,-254.5676 142.8062,-488.02471 l 7.4508,-47.18814 h 2473.652 2474.8937 l 28.5613,126.6629 c 111.7614,496.71726 382.4727,820.82528 750.0427,896.57466 391.165,80.71656 721.482,-101.82704 926.3779,-511.61878 58.364,-116.72856 129.147,-317.89905 150.257,-430.90223 l 14.902,-74.50759 553.839,1.2418 c 497.959,1.24179 558.807,3.72538 596.061,22.35227 52.155,27.31945 81.958,76.99118 109.278,180.06001 28.561,111.76139 43.463,132.87187 100.585,141.56442 95.618,16.14331 165.159,132.87187 165.159,274.43629 0,75.74938 -29.804,208.62125 -55.881,247.11684 -36.012,55.88069 -158.95,104.31062 -319.141,126.6629 -43.463,4.96717 -59.606,13.65973 -59.606,27.31945 0,24.83586 36.012,356.39464 43.463,408.54992 l 6.209,37.2538 144.048,-19.8687 144.048,-21.1105 11.176,29.8031 c 18.627,50.9135 12.418,131.63 -13.66,173.851 -28.561,47.1881 -106.794,106.7942 -186.269,141.5644 -88.167,38.4956 -326.592,105.5524 -555.081,153.9824 -114.245,24.8358 -247.117,55.8807 -294.305,70.7822 -45.947,14.9015 -373.78,170.1257 -726.4489,345.2185 -352.67,175.0928 -692.921,339.0095 -757.494,365.0872 -263.26,105.5524 -778.6046,198.6869 -1367.2145,249.6004 -302.9975,24.8359 -623.3802,29.803 -1285.2559,18.6269 z m 1297.6738,-69.5404 c 274.4363,-23.5941 249.6004,-12.418 422.2097,-167.6421 265.7437,-238.4243 722.7239,-812.1327 848.1449,-1064.2167 45.946,-93.1345 52.155,-116.7286 52.155,-189.9944 0,-115.48668 -29.803,-150.25698 -235.941,-269.46908 -89.409,-50.9135 -198.6865,-122.93752 -244.6328,-158.94952 l -83.2002,-67.05683 H 7476.1377 6462.8345 v 109.27779 c 0,170.12566 23.5941,553.83974 43.4628,704.09674 18.6269,145.2898 34.7702,377.5051 55.8806,819.5834 7.4508,150.257 16.1434,280.6453 18.6269,288.0961 11.1762,32.2866 745.0759,29.803 1148.6587,-3.7254 z m -1197.0886,-1.2418 c -2.4836,-12.4179 -8.6925,-91.8927 -13.6597,-177.5764 -23.5941,-459.4635 -45.9464,-804.682 -62.0897,-931.3449 -19.8687,-155.2241 -43.4627,-540.17998 -43.4627,-704.0967 V 609.90467 H 4997.5186 3581.8744 v 79.47476 c 0,257.05119 68.2986,645.73237 150.2569,845.66107 27.3195,69.5405 8.6926,55.8807 582.401,388.6813 635.7981,367.5708 906.509,512.8606 1004.6107,537.6964 202.4123,52.1554 537.6964,80.7166 973.5658,84.442 229.7318,1.2418 245.8751,0 239.6661,-19.8687 z m 1805.5673,-70.7822 c 368.8129,-58.3643 582.4009,-110.5196 769.9119,-189.9944 58.364,-24.8358 382.472,-181.3018 720.24,-347.7021 337.7679,-167.642 648.2159,-316.6572 689.1949,-332.8005 40.979,-14.9015 193.72,-54.6389 337.768,-85.6838 293.063,-64.5732 517.828,-130.3882 594.819,-175.0928 80.716,-47.1881 129.146,-109.2778 129.146,-167.6421 0,-58.3642 9.935,-55.8807 -168.884,-29.803 -72.024,9.9343 -132.872,17.3851 -135.355,14.9015 -1.242,-2.4836 -16.143,-124.1793 -32.287,-270.71088 l -29.803,-266.98552 -599.786,-3.72538 -601.028,-2.48359 -57.1219,47.18814 c -177.577,145.28985 -372.538,217.31385 -629.589,233.45715 -110.52,7.4507 -254.568,-4.9672 -351.428,-27.3195 -28.561,-7.4507 -24.836,-1.2418 27.32,45.9464 168.883,149.01508 140.322,312.93178 -119.213,680.50258 -212.346,301.7558 -409.7913,536.4547 -635.7976,756.252 -121.6958,117.9704 -150.257,151.4988 -127.9047,151.4988 14.9015,0 114.2449,-13.6597 219.7974,-29.803 z M 3667.5581,1503.9957 c -63.3315,-167.6421 -116.7286,-463.1888 -130.3883,-736.38328 l -8.6925,-157.70775 h -177.5765 -177.5764 l -90.6509,68.29862 c -207.3794,157.70773 -445.8037,227.24813 -730.1744,213.58843 -160.1913,-7.4508 -300.5139,-39.7374 -420.9678,-95.6181 -83.2002,-39.73736 -214.8303,-127.90468 -254.5676,-172.60923 -22.3523,-24.83586 -33.5285,-26.07766 -311.6901,-26.07766 h -288.096 l 78.2329,219.79739 c 43.4628,121.6957 79.4748,221.03918 79.4748,222.28098 0,1.2418 -57.1225,6.2089 -126.6629,9.9343 -70.7822,4.9672 -149.01522,11.1762 -175.09282,14.9015 l -48.43,7.4508 67.0569,31.0448 c 105.55242,48.43 295.54672,111.7614 459.46342,151.4988 259.5348,63.3314 459.4635,88.1673 1205.7812,150.257 558.8069,47.1881 892.8493,96.8598 1031.9301,155.2241 21.1105,9.9344 39.7374,14.9015 40.9792,13.6597 2.4836,-1.2418 -8.6926,-32.2866 -22.3523,-69.5404 z M 2712.6192,839.63642 c 346.4602,-94.3763 617.1712,-360.12004 743.8341,-730.1744 l 24.8358,-70.78221 h -83.2001 -83.2002 l -29.803,72.02401 c -80.7166,187.51076 -222.281,363.84539 -366.329,455.73808 -156.4659,99.34346 -372.5379,151.49877 -572.4666,137.83905 -271.9527,-18.6269 -471.8814,-120.45394 -632.0727,-320.38264 -69.5405,-85.68373 -145.2898,-217.3138 -180.06,-310.44829 -12.418,-32.28662 -17.3852,-34.77021 -88.1674,-34.77021 -40.9791,0 -74.5076,4.96718 -74.5076,9.93435 0,26.07765 63.3315,191.23614 101.8271,269.46911 141.5644,278.16167 391.1648,471.88145 692.9206,535.21285 114.2449,23.5941 439.5947,16.1433 546.389,-13.6597 z m 6834.8299,-11.1762 c 193.719,-54.6389 321.624,-125.42107 454.4959,-255.80935 99.343,-96.85987 170.126,-193.71973 229.732,-310.44829 33.528,-64.57324 80.716,-191.23615 80.716,-213.58842 0,-4.96717 -44.704,-9.93435 -99.343,-9.93435 h -98.102 l -62.09,121.69573 c -78.2329,151.49877 -202.4119,309.2065 -302.9969,383.71409 -255.81,189.99435 -588.61,216.07199 -889.124,69.54041 C 8691.8531,530.4299 8496.8917,313.1161 8404.999,105.73664 l -29.803,-67.05683 h -74.5076 c -57.1225,0 -74.5076,3.72538 -74.5076,18.6269 0,31.04483 119.2121,273.19449 175.0928,355.15284 151.4988,226.00636 368.8125,375.02157 619.6545,428.41867 109.278,22.3522 425.935,14.9015 526.521,-12.418 z M 3537.1698,557.74935 c 3.7254,-16.14331 9.9344,-85.68373 13.6597,-155.22414 3.7254,-69.54042 14.9016,-176.33463 24.8359,-235.9407 9.9343,-60.84787 18.6269,-113.00318 18.6269,-117.97035 0,-6.20897 -21.1105,-9.93435 -47.1881,-9.93435 -45.9464,0 -48.43,2.48359 -63.3315,53.39711 -39.7374,132.87187 -136.5972,307.9647 -240.9079,434.6276 l -48.4299,58.36428 h 168.8839 c 165.1585,0 168.8838,0 173.851,-27.31945 z m 2875.993,14.90152 c 0,-33.52841 50.9135,-505.40981 55.8807,-517.82775 C 6472.7688,42.40519 6185.9146,38.67981 5060.85,38.67981 H 3646.4476 l -13.6597,78.23297 c -12.4179,70.78221 -28.5613,221.03918 -43.4628,397.37381 l -6.2089,70.78221 h 1415.6442 c 956.1807,0 1414.4024,-3.72538 1414.4024,-12.41793 z m 2048.9587,1.24179 c 0,-6.20896 -9.9344,-18.62689 -21.1105,-27.31945 -42.221,-36.012 -161.4331,-233.45711 -219.7974,-367.57077 L 8159.1239,38.67981 h -820.8252 -822.0671 l -21.1105,208.62125 c -12.4179,114.24497 -24.8358,237.1825 -28.5612,273.1945 l -7.4508,64.57324 h 1002.1271 c 566.2577,0 1000.8853,-4.96717 1000.8853,-11.17614 z m 2926.9065,-17.3851 c 116.728,-26.07766 196.203,-60.84787 218.555,-98.10166 27.32,-43.46276 49.672,-173.85104 43.463,-249.60042 -2.483,-37.2538 -17.385,-88.16732 -31.045,-115.48677 l -24.835,-48.42993 -625.864,-3.72538 -625.864,-2.48359 -42.221,110.51959 c -47.188,129.14649 -126.663,263.26015 -214.83,365.08719 l -63.332,72.02401 638.282,-4.96718 c 522.795,-3.72538 654.425,-8.69255 727.691,-24.83586 z M 1578.862,519.25376 C 1509.3216,433.57004 1437.2976,304.42355 1396.3184,190.17858 1375.2079,130.57251 1356.581,72.20823 1355.3392,59.7903 1354.0974,37.43802 1335.4705,37.43802 961.69078,42.40519 c -550.1144,7.45076 -530.2457,-2.48358 -510.377,255.80939 14.9015,180.06001 26.0777,233.45712 58.3643,258.29298 13.6597,9.93434 173.851,13.65972 565.01592,14.90152 h 547.6308 z M 1508.0798,10.11857 c 0,-1.2417896 -9.9344,-39.73738 -23.5941,-84.44193 -12.4179,-44.70456 -29.803,-121.69573 -38.4956,-170.12567 l -14.9015,-89.4091 H 1128.0911 825.09358 l -80.7166,168.88387 c -44.7046,94.37627 -80.7166,172.6092404 -80.7166,173.8510404 0,2.4835796 189.9944,4.9671696 422.20972,4.9671696 232.2153,0 422.2097,-1.24179 422.2097,-3.72538 z m 2116.0155,-90.6509 c 12.418,-52.15531 40.9792,-130.38828 62.0897,-173.85104 l 40.9792,-79.47476 h -163.9167 -163.9167 l -14.9015,101.82703 c -8.6926,54.6389 -26.0777,132.87187 -38.4956,173.85105 l -22.3523,72.024 h 139.0808 139.0809 z m 2857.3661,36.012 c 4.9672,-33.52841 16.1433,-103.06883 26.0776,-157.70773 9.9344,-53.39711 17.3852,-104.31062 17.3852,-114.24497 0,-14.90152 -208.6213,-17.3851 -1365.9725,-17.3851 H 3792.9792 l -38.4956,59.60607 c -34.7702,54.6389 -98.1016,229.73173 -98.1016,270.7109104 0,14.9015096 187.5107,17.3850996 1408.1934,17.3850996 h 1409.4352 z m 1670.2118,54.6389 c 0,-1.2417896 -16.1433,-49.67173 -36.012,-108.036 -18.6269,-58.36428 -42.221,-135.35546 -52.1553,-171.36746 l -16.1433,-64.57324 -732.658,2.48358 -733.8998,3.72538 -19.8686,104.31063 c -11.1762,57.12248 -23.5941,132.87186 -28.5613,170.12566 l -7.4507,67.05683 h 813.3745 c 447.0455,0 813.3745,-1.24179 813.3745,-3.72538 z M 8362.778,8.8767804 c 0,-2.48359 -8.6925,-28.5612504 -19.8687,-58.3642804 -11.1761,-29.80304 -32.2866,-104.31063 -47.1881,-166.40028 l -28.5612,-111.76139 -84.442,-3.72538 -83.2001,-3.72538 7.4507,34.77021 c 4.9672,18.6269 28.5613,98.10166 52.1553,175.09284 l 44.7046,139.08083 h 79.4748 c 43.4627,0 79.4747,-2.48359 79.4747,-4.9671696 z M 11449.876,-14.71729 c -17.385,-17.38511 -37.254,-63.33145 -50.914,-117.97035 -26.077,-108.03601 -62.089,-165.15849 -113.003,-182.5436 -23.594,-7.45076 -242.15,-12.41793 -551.356,-12.41793 l -514.103,1.24179 -9.934,42.22097 c -16.143,64.57325 -69.54,250.84222 -78.233,276.9198804 -8.692,19.8686896 28.561,21.1104796 668.085,21.1104796 h 678.019 z"
       id="path30"
       style="stroke-width:1.24179" />
    <path
       d="m 6950.8592,2476.3198 -301.7557,-3.7254 v -72.024 c 0,-38.4956 -8.6926,-238.4243 -18.6269,-443.3202 -9.9344,-204.8958 -18.6269,-391.1648 -18.6269,-412.2753 v -40.9792 h 1049.3152 1050.5572 l -33.529,59.6061 c -65.8147,113.0032 -219.797,345.2185 -300.5136,448.2873 -238.4242,306.7229 -377.5051,419.7261 -550.1143,448.2874 -96.8599,14.9015 -469.3978,22.3522 -876.706,16.1433 z"
       id="path31"
       style="stroke-width:1.24179" />
    <path
       d="m 8361.5362,1073.0935 c -8.6925,-22.3523 -9.9343,-50.9135 -2.4836,-78.23298 l 9.9344,-43.4627 191.2361,-3.7254 c 145.29,-2.4836 193.72,1.2418 202.412,12.4179 14.902,24.8359 12.418,114.24498 -4.967,131.63008 -9.934,9.9343 -72.024,14.9015 -198.6868,14.9015 H 8375.196 Z"
       id="path32"
       style="stroke-width:1.24179" />
    <path
       d="m 6127.5503,2483.7705 c -440.8365,-11.1761 -669.3265,-38.4956 -819.5834,-98.1016 -346.4603,-136.5973 -1203.2976,-648.2161 -1372.1815,-819.5835 l -60.8478,-62.0897 h 1249.2439 1250.4857 l 6.2089,53.3971 c 9.9344,76.9912 70.7823,930.1031 67.0569,932.5867 -2.4836,0 -146.5316,-2.4836 -320.3827,-6.209 z"
       id="path33"
       style="stroke-width:1.24179" />
    <path
       d="m 5840.6961,1086.7532 c -18.6269,-23.5941 -21.1105,-111.76138 -2.4836,-130.38828 6.209,-6.2089 93.1345,-9.9343 202.4123,-8.6925 l 191.2362,3.7254 9.9343,37.2538 c 4.9672,22.35218 3.7254,53.39708 -3.7254,78.23288 l -13.6597,39.7374 h -183.7854 c -153.9823,0 -186.269,-3.7254 -199.9287,-19.8687 z"
       id="path34"
       style="stroke-width:1.24179" />
    <path
       d="m 8337.9422,2327.3046 c 319.1409,-339.0095 776.1209,-798.473 809.6489,-813.3745 53.397,-24.8359 506.652,-37.2538 927.6199,-26.0777 l 300.514,7.4508 -227.249,135.3554 c -366.3279,217.3138 -702.8539,407.3082 -823.3079,464.4307 -250.843,116.7285 -896.575,315.4154 -1026.9633,315.4154 h -38.4956 z"
       id="path35"
       style="stroke-width:1.24179" />
    <path
       d="m 2891.4374,1076.8189 c -3.7254,-8.6926 -4.9672,-38.4956 -2.4836,-64.5733 l 3.7254,-48.42988 h 93.1345 93.1344 v 62.08968 62.0896 l -90.6509,3.7254 c -69.5404,2.4836 -91.8927,0 -96.8598,-14.9015 z"
       id="path36"
       style="stroke-width:1.24179" />
    <path
       d="m 2268.0572,566.4419 c -417.2425,-94.37628 -678.0191,-511.61878 -573.7084,-917.68514 90.6509,-357.63643 416.0007,-598.5443 776.1207,-574.95023 565.0159,38.49559 889.1239,651.94141 602.2697,1138.72432 -53.3971,91.8927 -176.3347,214.83022 -264.502,265.74374 -151.4987,89.40911 -376.2633,125.42111 -540.18,88.16731 z"
       id="path37"
       style="stroke-width:1.24179" />
    <path
       d="m 9101.6451,566.4419 c -240.908,-53.3971 -425.935,-196.20331 -526.5204,-407.30815 -60.8479,-129.14649 -76.9912,-198.68691 -76.9912,-331.55877 0,-132.87187 16.1433,-202.41229 79.4747,-335.28416 85.6839,-180.06 247.1169,-319.14084 449.5289,-387.43946 115.487,-37.2538 325.35,-40.97918 428.419,-4.96717 142.806,48.42993 228.49,99.34345 317.899,187.51076 147.773,146.53159 213.588,291.82139 224.765,496.71727 12.4169,228.48994 -60.848,422.20967 -219.798,578.67561 -177.576,176.33463 -442.078,255.80939 -676.777,203.65407 z"
       id="path38"
       style="stroke-width:1.24179" />
    <path
       d="m 11041.551,4124.6394 v -1500 h 458.327 454.88 v 1500 1500 h -454.88 -458.327 z m 844.285,-5 v -1485 h -396.296 -396.297 v 1485 1485 h 396.297 396.296 z"
       id="path25-6"
       style="stroke-width:1.85635" />
  </g>
</svg>
