<?xml version="1.0" encoding="UTF-8" standalone="no"?>
<svg
   xml:space="preserve"
   width="130.373"
   height="103.78"
   x="180.35"
   y="110"
   data-layer-role="icon"
   data-root-id="3555674569195"
   preserveAspectRatio="xMidYMid"
   version="1.0"
   viewBox="109 156 130.373 103.78"
   id="svg35"
   sodipodi:docname="logo.svg"
   inkscape:version="1.4.2 (ebf0e940d0, 2025-05-08)"
   xmlns:inkscape="http://www.inkscape.org/namespaces/inkscape"
   xmlns:sodipodi="http://sodipodi.sourceforge.net/DTD/sodipodi-0.dtd"
   xmlns="http://www.w3.org/2000/svg"
   xmlns:svg="http://www.w3.org/2000/svg"><defs
     id="defs35" /><sodipodi:namedview
     id="namedview35"
     pagecolor="#ffffff"
     bordercolor="#000000"
     borderopacity="0.25"
     inkscape:showpageshadow="2"
     inkscape:pageopacity="0.0"
     inkscape:pagecheckerboard="0"
     inkscape:deskcolor="#d1d1d1"
     inkscape:zoom="11.23"
     inkscape:cx="65.004452"
     inkscape:cy="64.247551"
     inkscape:window-width="2560"
     inkscape:window-height="1312"
     inkscape:window-x="0"
     inkscape:window-y="0"
     inkscape:window-maximized="1"
     inkscape:current-layer="svg35" /><path
     fill="none"
     d="M 109,156 H 239.373 V 259.78 H 109 Z m 65.263,82.632 c 1.35,-0.997 2.615,-1.798 3.71,-2.771 1.754,-1.56 4.173,-1.746 6.127,-2.833 0.259,0.479 0.395,1.016 0.755,1.325 0.504,0.437 1.154,0.938 1.78,0.99 1.083,0.088 2.202,-0.146 3.303,-0.244 0.157,-0.013 0.328,-0.062 0.475,-0.026 2.636,0.609 3.363,-0.668 3.374,-2.332 0.004,-0.638 -0.074,-1.28 -0.116,-1.983 2.615,0.427 5.18,0.193 7.74,-0.198 2.988,-0.456 5.862,-0.14 8.672,0.925 a 30.693,30.693 0 0 0 7.736,1.826 c 1.716,0.18 3.464,0.17 5.15,0.479 2.037,0.374 4.016,1.013 6.03,1.504 1.562,0.384 3.135,0.463 4.683,-0.058 1.671,-0.56 2.664,-1.853 2.482,-3.302 -0.056,-0.443 -0.461,-0.866 -0.461,-1.3 -0.007,-1.979 -1.367,-2.81 -3.14,-3.047 -1.838,-0.244 -3.719,-0.26 -5.582,-0.267 -2.884,-0.01 -5.394,-0.87 -7.585,-2.602 -0.934,-0.739 -1.881,-1.472 -2.87,-2.149 -2.154,-1.478 -4.422,-2.82 -6.488,-4.396 -4.115,-3.142 -8.488,-5.897 -13.287,-8.026 -4.135,-1.837 -8.474,-3.136 -13.05,-3.588 -0.894,-0.088 -1.307,-0.404 -1.768,-1.065 -1.185,-1.693 -2.412,-3.374 -3.79,-4.933 -1.985,-2.247 -4.138,-4.367 -6.18,-6.571 -0.8,-0.863 -1.5,-1.807 -2.244,-2.716 0.06,-0.065 0.122,-0.13 0.182,-0.192 l 4.58,1.993 0.146,-0.277 c -1.496,-1.188 -3.457,-1.615 -5.177,-2.465 0.084,-0.143 0.136,-0.234 0.192,-0.322 1.696,-2.732 2.503,-5.637 2.042,-8.808 -0.074,-0.511 -0.074,-1.084 0.094,-1.57 1.213,-3.49 2.915,-6.85 3.328,-10.556 0.16,-1.436 0.297,-2.895 0.203,-4.328 -0.07,-1.1 -0.923,-1.664 -2.094,-1.53 -0.773,0.088 -1.59,0.339 -2.237,0.733 -1.654,1.006 -3.23,2.126 -4.824,3.22 -1.311,0.902 -2.685,1.228 -4.31,0.778 -2.038,-0.563 -4.15,-0.895 -6.275,-0.615 -0.902,0.117 -1.342,-0.114 -1.828,-0.785 -1.947,-2.703 -3.96,-5.37 -6.848,-7.3 -1.933,-1.293 -3.622,-0.873 -4.44,1.198 -1.097,2.787 -1.79,5.679 -1.936,8.652 -0.074,1.51 0.094,3.034 0.15,4.529 -0.34,0.146 -0.748,0.303 -1.136,0.498 -1.79,0.896 -3.052,2.306 -4.307,3.755 -1.314,1.514 -2.761,2.924 -4.139,4.389 -1.447,1.547 -2.988,3.028 -4.278,4.682 -1.433,1.837 -3.048,3.455 -5.069,4.702 -3.076,1.902 -5.376,4.39 -6.95,7.515 -2.174,4.318 -3.023,8.821 -2.474,13.559 0.262,2.273 0.56,4.542 0.713,6.822 a 11.151,11.151 0 0 0 1.335,4.61 c 0.657,1.222 1.203,2.501 1.682,3.794 0.604,1.638 1.377,3.162 2.663,4.441 2.38,2.377 5.17,4.224 8.439,5.32 2.174,0.73 4.46,1.176 6.704,1.717 0.783,0.189 1.36,0.563 1.738,1.22 0.912,1.603 1.86,3.185 2.726,4.807 0.98,1.827 2.391,2.96 4.699,2.927 0.597,-0.01 1.199,0.212 1.803,0.27 0.902,0.089 1.839,0.284 2.713,0.154 1.776,-0.264 3.412,-0.873 4.069,-2.667 0.175,-0.476 0.234,-0.99 0.335,-1.443 0.731,0.238 1.444,0.557 2.192,0.694 2.93,0.53 5.551,1.716 8.173,3.002 2.555,1.254 4.415,2.963 5.687,5.373 0.692,1.309 1.566,2.585 2.608,3.67 1.444,1.5 3.646,1.543 5.355,0.29 a 21.816,21.816 0 0 0 2.29,-1.941 c 0.783,-0.76 1.335,-1.651 1.444,-2.745 0.024,-0.254 0.185,-0.564 0.395,-0.723 1.248,-0.958 1.6,-2.547 0.608,-3.755 -0.57,-0.693 -1.461,-1.159 -2.181,-1.751 -0.35,-0.287 -0.808,-0.586 -0.934,-0.961 a 30.531,30.531 0 0 0 -2.877,-6.19 c -0.22,-0.384 -0.339,-0.814 -0.43,-1.032 z"
     data-layer-id="5975343169195"
     style="fill:#ffffff;fill-opacity:0;stroke-width:0.337378"
     id="path1" /><path
     fill="#141112"
     d="m 174.263,238.632 c 0.091,0.218 0.21,0.648 0.437,1.019 a 30.343,30.343 0 0 1 2.877,6.19 c 0.126,0.374 0.584,0.674 0.934,0.96 0.72,0.593 1.611,1.056 2.18,1.752 0.994,1.208 0.64,2.797 -0.607,3.755 -0.21,0.16 -0.37,0.469 -0.395,0.723 -0.109,1.094 -0.661,1.986 -1.444,2.745 a 21.816,21.816 0 0 1 -2.29,1.94 c -1.709,1.254 -3.915,1.211 -5.355,-0.29 -1.042,-1.084 -1.916,-2.36 -2.608,-3.67 -1.269,-2.409 -3.132,-4.118 -5.687,-5.372 -2.622,-1.286 -5.244,-2.471 -8.173,-3.002 -0.748,-0.137 -1.461,-0.456 -2.192,-0.694 -0.101,0.456 -0.16,0.967 -0.335,1.443 -0.66,1.794 -2.293,2.403 -4.07,2.667 -0.873,0.13 -1.81,-0.066 -2.712,-0.153 -0.604,-0.06 -1.202,-0.277 -1.804,-0.27 -2.307,0.032 -3.719,-1.101 -4.698,-2.928 -0.867,-1.622 -1.814,-3.204 -2.726,-4.806 -0.374,-0.658 -0.955,-1.032 -1.738,-1.221 -2.244,-0.54 -4.53,-0.987 -6.704,-1.716 -3.269,-1.098 -6.058,-2.947 -8.439,-5.32 -1.286,-1.284 -2.055,-2.804 -2.663,-4.442 -0.48,-1.293 -1.025,-2.573 -1.682,-3.794 a 11.047,11.047 0 0 1 -1.335,-4.61 c -0.154,-2.28 -0.451,-4.553 -0.713,-6.822 -0.549,-4.741 0.304,-9.244 2.475,-13.559 1.573,-3.122 3.873,-5.613 6.95,-7.515 2.02,-1.247 3.635,-2.865 5.068,-4.702 1.29,-1.654 2.831,-3.136 4.278,-4.682 1.374,-1.469 2.825,-2.879 4.14,-4.39 1.254,-1.445 2.516,-2.855 4.306,-3.754 0.388,-0.195 0.797,-0.352 1.136,-0.498 -0.056,-1.495 -0.224,-3.019 -0.15,-4.53 0.146,-2.97 0.839,-5.864 1.936,-8.651 0.818,-2.071 2.507,-2.491 4.44,-1.198 2.887,1.934 4.9,4.6 6.848,7.3 0.482,0.67 0.922,0.902 1.828,0.785 2.125,-0.277 4.233,0.055 6.274,0.615 1.626,0.45 3,0.12 4.31,-0.778 1.591,-1.094 3.171,-2.211 4.825,-3.22 0.646,-0.394 1.468,-0.645 2.237,-0.733 1.17,-0.134 2.024,0.43 2.094,1.53 0.094,1.433 -0.046,2.892 -0.203,4.328 -0.413,3.705 -2.115,7.066 -3.328,10.556 -0.168,0.485 -0.168,1.058 -0.094,1.57 0.461,3.171 -0.343,6.076 -2.042,8.808 -0.056,0.088 -0.108,0.179 -0.192,0.322 1.72,0.85 3.68,1.276 5.177,2.465 l -0.147,0.277 -4.58,-1.993 c -0.059,0.065 -0.121,0.13 -0.18,0.192 0.744,0.909 1.443,1.853 2.243,2.716 2.045,2.204 4.195,4.324 6.18,6.57 1.378,1.557 2.605,3.24 3.79,4.934 0.461,0.66 0.874,0.977 1.769,1.065 4.575,0.449 8.914,1.751 13.049,3.588 4.796,2.13 9.172,4.88 13.287,8.026 2.062,1.576 4.334,2.918 6.488,4.396 0.985,0.677 1.933,1.41 2.87,2.15 2.191,1.735 4.701,2.591 7.585,2.6 1.863,0.008 3.744,0.024 5.583,0.268 1.772,0.238 3.132,1.068 3.139,3.048 0,0.433 0.409,0.853 0.461,1.299 0.178,1.446 -0.81,2.742 -2.482,3.302 -1.548,0.517 -3.125,0.44 -4.684,0.058 -2.013,-0.495 -3.992,-1.13 -6.03,-1.504 -1.685,-0.31 -3.433,-0.3 -5.149,-0.479 a 30.692,30.692 0 0 1 -7.736,-1.827 c -2.81,-1.064 -5.684,-1.38 -8.672,-0.924 -2.556,0.39 -5.122,0.625 -7.74,0.198 0.042,0.704 0.119,1.342 0.116,1.983 -0.011,1.668 -0.738,2.94 -3.374,2.332 -0.147,-0.033 -0.318,0.013 -0.475,0.026 -1.105,0.097 -2.22,0.332 -3.304,0.244 -0.625,-0.052 -1.272,-0.554 -1.779,-0.99 -0.36,-0.31 -0.496,-0.846 -0.755,-1.325 -1.95,1.087 -4.373,1.273 -6.128,2.833 -1.097,0.986 -2.366,1.787 -3.716,2.784 z m -6.96,-5.262 c 0.06,0.039 0.116,0.081 0.175,0.12 0.032,0.043 0.074,0.056 0.126,0.046 1.713,1.179 3.423,2.364 5.15,3.526 0.199,0.134 0.503,0.127 0.758,0.186 l 0.363,-0.062 c 0.06,0.016 0.102,-0.01 0.123,-0.068 0.776,-0.479 1.66,-0.86 2.31,-1.46 1.622,-1.5 3.395,-2.653 5.716,-2.946 0.538,-0.068 1.07,-0.257 1.576,-0.456 0.2,-0.078 0.462,-0.342 0.448,-0.505 -0.12,-1.546 -0.182,-3.106 -0.472,-4.627 -0.381,-2.012 -1.877,-3.484 -3.16,-5.037 -1.073,-1.299 -1.986,-2.67 -2.57,-4.233 -0.422,-1.133 -0.89,-2.263 -1.485,-3.324 a 4.067,4.067 0 0 0 -2.475,-1.954 c -3.338,-1.215 -6.764,-1.452 -10.267,-0.808 -0.234,0.05 -0.465,0.101 -0.699,0.15 l 0.014,-0.013 c -0.2,0.056 -0.395,0.114 -0.594,0.17 l -0.053,0.016 c -1.027,0.013 -1.86,0.97 -3.023,0.534 0.23,-0.313 0.482,-0.58 0.8,-0.713 3.374,-1.427 6.9,-1.661 10.515,-1.127 0.968,0.143 1.926,0.361 3.118,0.59 -1.346,-2.153 -3.072,-3.563 -5.32,-4.439 -1.08,-0.257 -2.16,-0.517 -3.24,-0.775 -0.616,-0.065 -1.231,-0.127 -1.846,-0.192 -0.01,-0.088 -0.025,-0.176 -0.035,-0.26 0.507,-0.108 1.006,-0.28 1.52,-0.306 2.031,-0.101 3.853,0.57 5.618,1.406 0.087,0.059 0.175,0.114 0.262,0.173 l 0.238,0.146 c 0.146,0.118 0.293,0.235 0.444,0.352 1.454,1.143 2.922,2.27 3.373,4.132 0.042,0.176 0.23,0.365 0.405,0.466 1.584,0.882 2.318,2.308 2.947,3.836 0.563,1.37 1.098,2.777 1.905,4.024 1.06,1.638 2.367,3.133 3.57,4.689 l 0.188,0.313 -0.007,-0.007 0.171,0.322 -0.004,-0.007 c 0.556,1.387 0.87,2.807 0.906,4.301 0.024,1.12 0.276,2.234 0.426,3.354 0.343,1.189 0.867,1.59 2.035,1.547 0.112,-0.117 0.339,-0.264 0.318,-0.345 -0.206,-0.72 -0.458,-1.43 -0.696,-2.14 0.032,-0.153 0.06,-0.306 0.091,-0.459 1.101,-0.039 1.227,0.83 1.584,1.485 l -0.007,0.042 0.038,0.023 c 0.046,0.345 0.046,0.707 0.154,1.032 0.038,0.114 0.346,0.15 0.531,0.222 1.395,-0.57 1.395,-0.57 0.668,-1.771 a 4.546,4.546 0 0 0 -0.084,-0.13 c 0.056,-0.3 0.115,-0.597 0.171,-0.896 0.294,0.166 0.615,0.303 0.874,0.508 0.178,0.14 0.273,0.374 0.402,0.566 l 0.535,1.736 c 0.846,-0.316 1.003,-0.896 0.965,-1.576 -0.025,-0.967 0.16,-1.98 -0.727,-2.758 -0.077,-0.068 -0.084,-0.228 -0.088,-0.345 -0.02,-0.524 0.028,-1.058 -0.052,-1.576 -0.34,-2.136 -0.86,-4.246 -2.143,-6.066 -2.513,-3.563 -4.244,-7.5 -6.383,-11.24 -1.433,-2.508 -2.73,-5.13 -4.534,-7.389 -2.457,-3.077 -5.338,-5.858 -8.036,-8.766 a 7.253,7.253 0 0 1 -0.165,-0.16 c -0.048,-0.058 -0.097,-0.116 -0.143,-0.175 -0.342,-0.462 -0.682,-0.925 -1.024,-1.384 -0.23,-0.566 -0.462,-1.136 -0.717,-1.768 l -1.346,1.332 c 0.556,0.329 1.053,0.625 1.549,0.921 l 1.426,1.016 0.21,0.127 c -0.018,0.046 -0.003,0.078 0.045,0.095 -0.042,0.547 -0.35,0.309 -0.587,0.16 -0.587,-0.366 -1.16,-0.75 -1.74,-1.127 l -1.29,-0.883 c -0.448,0.3 -0.833,0.554 -1.263,0.84 0.35,0.349 0.686,0.68 1.018,1.013 0.154,0.3 0.304,0.602 0.458,0.902 l -0.263,0.127 c -0.237,-0.241 -0.471,-0.482 -0.71,-0.723 l -0.936,-1.032 c -3.656,1.367 -7.355,1.54 -11.095,1.442 -0.601,-0.185 -1.2,-0.374 -1.804,-0.557 -1.45,-0.433 -2.901,-0.856 -4.348,-1.286 -0.609,-0.179 -1.23,-0.325 -1.815,-0.553 -0.713,-0.28 -1.387,-0.58 -1.971,0.198 -0.039,0.052 -0.192,0.026 -0.521,0.059 0.311,-0.423 0.52,-0.707 0.724,-0.987 -0.637,-0.41 -1.248,-0.804 -1.895,-1.224 -0.776,0.485 -1.538,0.96 -2.297,1.436 -0.063,-0.075 -0.122,-0.15 -0.185,-0.225 0.423,-0.778 1.363,-1.048 2.094,-1.579 -0.206,-0.202 -0.434,-0.368 -0.58,-0.58 -0.427,-0.615 -0.94,-0.68 -1.622,-0.361 -1.192,0.554 -2.405,1.068 -3.615,1.589 -0.21,0.091 -0.437,0.14 -0.657,0.208 l -0.119,-0.263 c 1.479,-1.065 3.255,-1.612 4.953,-2.247 -1.314,-2.325 -1.828,-4.764 -1.447,-7.317 0.213,-1.42 0.678,-2.807 1.031,-4.207 l -0.003,0.003 c 0.056,-0.107 0.109,-0.218 0.165,-0.325 0.377,-0.658 0.772,-1.31 1.118,-1.983 0.074,-0.144 0.028,-0.495 -0.06,-0.531 -0.177,-0.072 -0.499,-0.068 -0.635,0.042 -1.2,0.97 -2.402,1.94 -3.541,2.973 -1.276,1.163 -2.43,2.446 -3.737,3.575 -2.073,1.798 -3.943,3.748 -5.506,5.946 a 18.738,18.738 0 0 1 -5.3,5.028 c -3.131,1.986 -5.543,4.526 -7.081,7.801 -1.905,4.06 -2.793,8.252 -2.245,12.68 0.284,2.296 0.637,4.581 0.836,6.884 0.122,1.396 0.43,2.692 1.119,3.95 0.692,1.266 1.394,2.555 1.82,3.91 1.312,4.142 4.594,6.483 8.443,8.359 l -0.01,-0.01 0.688,0.319 -0.014,-0.01 c 0.119,0.048 0.241,0.1 0.36,0.15 2.325,1.289 4.999,1.305 7.627,1.881 -0.646,-2.552 -1.338,-5.02 -3.044,-7.03 -1.566,-1.846 -3.426,-3.474 -5.08,-5.258 -1.387,-1.498 -2.978,-2.703 -4.893,-3.553 -0.497,-0.218 -1.028,-0.482 -1.37,-0.86 a 3.21,3.21 0 0 1 -0.745,-1.484 c -0.05,-0.254 0.38,-0.59 0.594,-0.886 0.28,0.208 0.59,0.39 0.829,0.635 0.17,0.176 0.24,0.436 0.356,0.661 0.678,0.348 1.356,0.697 2.038,1.045 l -0.003,-0.003 0.336,0.166 c 0.188,0.105 0.377,0.212 0.57,0.316 0.835,0.72 1.709,1.41 2.499,2.169 1.415,1.36 2.754,2.794 4.174,4.151 1.922,1.837 3.404,3.937 4.107,6.415 a 26.69,26.69 0 0 0 3.087,6.926 c 0.81,1.293 1.419,2.696 2.177,4.021 0.521,0.909 1.294,1.56 2.486,1.6 0.608,0.09 1.216,0.178 2,0.295 -0.179,-0.37 -0.224,-0.582 -0.357,-0.722 -0.455,-0.486 -0.969,-0.928 -1.402,-1.43 -0.168,-0.195 -0.192,-0.498 -0.283,-0.752 0.307,0.036 0.636,0.023 0.916,0.127 0.24,0.091 0.43,0.31 0.64,0.472 0.66,0.71 1.454,1.338 1.558,2.377 0.014,0.12 0.305,0.287 0.483,0.31 0.374,0.048 0.762,0.016 1.146,0.016 1.521,-0.088 1.947,-0.518 1.836,-1.84 -0.074,-0.84 -0.808,-1.172 -1.402,-1.625 -0.189,-0.143 -0.273,-0.41 -0.402,-0.619 0.272,-0.032 0.573,-0.146 0.814,-0.078 0.357,0.105 0.671,0.336 1.004,0.515 0.783,0.592 1.213,1.358 1.199,2.54 0.6,-0.85 0.912,-1.511 0.646,-2.312 -0.189,-0.612 -0.22,-1.329 -0.598,-1.81 -0.845,-1.085 -1.915,-2.02 -2.8,-3.081 -0.88,-1.055 -1.807,-2.12 -2.429,-3.312 -0.647,-1.24 -1.014,-2.618 -1.388,-3.966 -0.615,-2.22 -1.076,-4.48 -1.716,-6.698 -0.496,-1.712 -1.227,-3.366 -1.727,-5.082 -0.22,-0.753 -0.311,-1.602 0.266,-2.387 0.293,0.413 0.51,0.843 0.653,1.293 0.26,0.814 0.476,1.644 0.71,2.464 1.563,3.364 2.416,6.884 2.908,10.518 0.402,2.963 1.794,5.483 4.29,7.48 0.898,0.719 1.66,1.709 2.153,2.715 0.461,0.941 1.007,1.504 2.087,1.615 0.028,0.003 0.056,0 0.084,0 0.363,0.114 0.72,0.26 1.094,0.332 2.237,0.436 4.485,0.837 6.516,1.892 0.09,0.049 0.178,0.098 0.269,0.146 h -0.003 c 0.28,0.147 0.56,0.297 0.839,0.443 l 0.045,0.043 0.067,-0.003 0.223,0.127 0.042,0.039 0.056,-0.007 0.241,0.136 c 0.109,0.053 0.217,0.108 0.325,0.16 0.284,0.147 0.567,0.293 0.846,0.443 l 0.046,0.042 0.066,-0.003 c 0.123,0.065 0.245,0.134 0.367,0.199 l -0.024,-0.016 c 0.182,0.1 0.36,0.205 0.542,0.306 l 0.31,0.201 0.008,-0.003 c 0.02,0.05 0.056,0.072 0.112,0.072 1.66,1.169 2.775,2.722 3.708,4.432 a 25.631,25.631 0 0 0 2.077,3.174 c 0.5,0.655 1.216,1.14 2.167,1.147 1.192,0.114 2.206,-0.368 2.674,-1.293 -0.258,-0.134 -0.52,-0.26 -0.78,-0.4 -0.877,-0.47 -1.551,-1.114 -1.716,-2.068 -0.049,-0.284 0.196,-0.612 0.304,-0.922 0.308,0.153 0.626,0.29 0.913,0.466 0.098,0.062 0.126,0.225 0.185,0.339 0.507,0.823 1.227,1.354 2.283,1.4 0.905,-0.147 1.083,-0.87 1.314,-1.511 0.224,-0.632 -0.311,-0.814 -0.793,-1.055 -0.755,-0.371 -1.053,-1.11 -0.766,-1.775 0.063,-0.143 0.224,-0.25 0.34,-0.374 0.118,0.124 0.272,0.231 0.349,0.374 0.119,0.225 0.108,0.577 0.286,0.69 0.822,0.531 2.024,0.079 2.15,-0.853 0.06,-0.436 -0.066,-1.077 -0.38,-1.338 -0.728,-0.602 -1.591,-1.08 -2.458,-1.504 -0.528,-0.257 -1.182,-0.28 -1.745,-0.489 -0.262,-0.097 -0.444,-0.38 -0.66,-0.582 0.29,-0.147 0.566,-0.333 0.87,-0.43 0.175,-0.059 0.402,0.02 0.902,0.058 -0.86,-1.963 -1.643,-3.738 -2.419,-5.519 -0.178,-0.407 -0.426,-0.807 -0.482,-1.23 -0.133,-1.033 -0.633,-1.518 -1.773,-1.853 -1.338,-0.394 -2.576,-1.18 -3.764,-1.922 -1.654,-1.032 -3.332,-1.973 -5.338,-2.243 -0.553,-0.075 -1.056,-0.228 -1.031,-0.788 0.028,-0.655 0.646,-0.785 1.181,-0.642 1.426,0.378 2.824,0.837 4.237,1.264 0.084,0.049 0.168,0.097 0.251,0.15 z m 66.834,-0.918 -0.01,0.003 c -0.546,0.175 -1.105,0.814 -1.69,-0.079 a 419.87,419.87 0 0 1 1.567,-1.208 c 0.699,-0.866 0.601,-1.514 -0.357,-2.048 -0.35,-0.195 -0.755,-0.39 -1.15,-0.423 -1.325,-0.114 -2.66,-0.228 -3.988,-0.205 -2.828,0.049 -5.565,-0.199 -8.03,-1.641 a 24.349,24.349 0 0 1 -1.636,-1.081 c -3.15,-2.185 -6.274,-4.4 -9.441,-6.561 a 419.34,419.34 0 0 0 -8.565,-5.689 c -3.915,-2.527 -8.42,-3.842 -12.867,-5.236 -1.538,-0.482 -3.192,-0.635 -5.034,-0.987 0.462,0.867 0.804,1.505 1.143,2.143 0.399,0.817 0.776,1.648 1.203,2.455 1.674,3.175 3.383,6.333 5.04,9.518 0.696,1.342 1.364,2.706 1.895,4.106 0.374,0.99 0.56,2.051 0.717,3.097 0.09,0.612 0.447,0.749 0.982,0.827 2.342,0.335 4.68,0.143 6.98,-0.212 3.325,-0.511 6.52,-0.29 9.649,0.88 2.506,0.934 5.096,1.644 7.784,1.806 3.43,0.209 6.757,0.73 9.99,1.834 1.34,0.455 2.713,0.954 4.203,0.608 1.82,-0.309 2.894,-1.406 2.482,-2.569 l -0.818,0.635 z M 141.95,176.406 c 0.468,-0.074 0.933,-0.153 1.402,-0.228 0.328,0.04 0.66,0.114 0.989,0.108 3.244,-0.068 6.362,0.355 9.34,1.67 1.947,0.86 4.062,0.909 6.135,0.339 2.272,-0.625 4.562,-0.6 6.872,-0.313 1.43,0.18 2.86,0.368 4.258,0.55 0.095,-0.126 0.157,-0.182 0.185,-0.253 1.497,-3.68 2.713,-7.428 3.185,-11.351 0.108,-0.896 0.384,-1.863 -0.388,-2.67 -0.671,-0.476 -1.304,-0.14 -1.846,0.175 a 45.56,45.56 0 0 0 -3.153,2.045 c -1.531,1.072 -2.954,2.3 -4.866,2.79 -0.556,-0.01 -1.129,0.063 -1.66,-0.045 -2.552,-0.527 -5.1,-1 -7.74,-0.889 -0.346,0.013 -0.825,-0.123 -1.034,-0.358 -1.734,-1.918 -3.35,-3.933 -5.146,-5.796 -0.93,-0.964 -2.157,-1.677 -3.25,-2.5 -0.815,-0.414 -1.382,-0.115 -1.63,0.618 a 50.983,50.983 0 0 0 -1.178,3.953 c -0.65,2.589 -1.104,5.213 -0.535,7.864 0.305,1.416 0.626,2.79 -0.083,4.168 -1.678,2.855 -1.55,5.93 -1.189,9.01 0.094,0.804 0.409,1.608 0.752,2.363 0.475,1.055 0.527,1.036 1.656,0.554 2.29,-0.348 4.52,-1.065 6.862,-1.107 l 0.06,0.264 -6.425,1.328 -1.276,0.3 c 0.947,1.273 0.947,1.273 1.954,0.771 1.765,-0.52 3.436,-1.357 5.285,-1.611 0.035,0.094 0.07,0.189 0.102,0.28 -1.573,0.56 -3.15,1.12 -4.723,1.677 -0.346,0.127 -0.688,0.254 -1.164,0.426 0.465,0.316 0.8,0.534 1.122,0.769 0.465,0.342 0.881,0.384 1.238,-0.13 1.174,-0.727 2.349,-1.45 3.52,-2.176 l 0.237,0.32 -3.118,2.139 c -0.216,0.127 -0.43,0.254 -0.877,0.514 2.314,0.612 4.373,1.195 6.456,1.693 1.14,0.274 2.314,0.404 3.475,0.603 2.975,0.088 5.89,-0.192 8.781,-1.11 -0.916,-1.12 -2.15,-1.844 -2.964,-2.899 l 0.304,-0.27 c 1.07,0.957 2.14,1.912 3.244,2.901 0.339,-0.198 0.688,-0.403 1.083,-0.638 a 4432.302,4432.302 0 0 0 -4.642,-2.904 c 0.084,-0.12 0.172,-0.241 0.255,-0.365 1.608,0.967 3.216,1.937 4.894,2.947 l 1.448,-1.485 -6.37,-2.006 0.147,-0.41 c 2.16,0.651 4.324,1.3 6.478,1.95 1.82,-2.507 2.513,-5.825 1.782,-8.83 -0.307,1.035 -0.66,1.937 -0.831,2.872 -0.368,2.009 -1.762,2.917 -3.765,3.19 -0.657,0.092 -1.34,0.082 -2.003,0.04 -3.356,-0.218 -5.286,-1.645 -6.11,-4.507 -0.144,-0.501 -0.144,-1.052 -0.364,-1.514 -0.157,-0.329 -0.56,-0.742 -0.881,-0.768 -0.325,-0.023 -0.738,0.342 -1.017,0.622 -0.193,0.188 -0.214,0.524 -0.332,0.784 -1.605,3.455 -3.545,4.23 -6.516,4.113 -0.584,-0.023 -1.185,-0.03 -1.741,-0.173 -2.744,-0.703 -3.922,-1.592 -3.985,-4.073 -0.028,-1.052 -0.273,-2.097 -0.42,-3.146 -0.629,-0.667 -0.328,-1.439 -0.28,-2.185 z m 21.281,9.798 c -2.199,-0.785 -2.957,-2.445 -3.233,-4.428 -0.178,-1.28 0.14,-1.814 1.489,-2.166 0.783,-0.205 1.583,-0.364 2.373,-0.543 -0.02,-0.092 -0.045,-0.18 -0.066,-0.27 -1.258,0.26 -2.53,0.475 -3.772,0.794 -1.02,0.264 -1.36,0.863 -1.202,1.827 0.042,0.257 0.084,0.51 0.115,0.768 0.283,2.341 1.947,3.94 4.296,4.018 z M 147.277,177.8 c -2.282,-0.24 -3.038,0.277 -3.464,2.57 -0.56,2.982 0.787,4.29 4.153,4.6 -2.535,-0.524 -3.394,-2.08 -3.07,-4.288 0.193,-1.339 0.539,-2.65 2.381,-2.882 z"
     data-layer-id="1371761669195"
     style="fill:#141112;stroke-width:0.337378"
     id="path2" /><path
     fill="#D0A8BC"
     d="m 143.858,245.089 c -0.213,-0.163 -0.398,-0.384 -0.64,-0.472 -0.279,-0.105 -0.607,-0.092 -0.915,-0.127 0.09,0.254 0.112,0.556 0.283,0.752 0.437,0.501 0.947,0.94 1.402,1.43 0.133,0.143 0.178,0.354 0.356,0.722 -0.783,-0.117 -1.39,-0.205 -2,-0.296 -0.401,-0.59 -0.849,-1.156 -1.195,-1.772 a 116.715,116.715 0 0 1 -2.503,-4.666 54.842,54.842 0 0 1 -1.677,-3.708 c -0.521,-1.257 -0.923,-2.556 -1.455,-3.807 -0.88,-2.074 -2.565,-3.617 -4.131,-5.233 a 77.051,77.051 0 0 0 -2.692,-2.663 c -0.979,-0.912 -1.961,-1.83 -3.03,-2.644 -0.511,-0.388 -1.228,-0.534 -1.85,-0.791 -0.189,-0.105 -0.378,-0.212 -0.57,-0.316 l -0.335,-0.166 0.003,0.003 c -0.186,-0.339 -0.329,-0.704 -0.567,-1.006 -0.21,-0.27 -0.486,-0.573 -0.8,-0.665 -0.143,-0.039 -0.444,0.4 -0.671,0.626 -0.116,-0.222 -0.186,-0.486 -0.357,-0.661 -0.238,-0.245 -0.549,-0.427 -0.828,-0.635 -0.214,0.3 -0.644,0.635 -0.595,0.885 0.105,0.525 0.374,1.075 0.745,1.485 0.343,0.378 0.874,0.638 1.37,0.86 1.916,0.85 3.506,2.054 4.894,3.552 1.654,1.785 3.513,3.413 5.08,5.259 1.705,2.009 2.397,4.474 3.044,7.03 -2.629,-0.576 -5.303,-0.593 -7.627,-1.882 l -0.36,-0.15 0.013,0.01 -0.688,-0.319 0.01,0.01 c -0.6,-0.472 -1.181,-0.97 -1.803,-1.41 -2.035,-1.44 -3.66,-3.145 -4.573,-5.425 -0.727,-1.823 -1.66,-3.572 -2.39,-5.392 -0.382,-0.95 -0.591,-1.98 -0.756,-2.99 -0.182,-1.122 -0.182,-2.269 -0.332,-3.395 -0.196,-1.488 -0.58,-2.96 -0.66,-4.451 -0.126,-2.332 -0.12,-4.673 0.475,-6.969 1.31,-5.063 3.67,-9.475 8.424,-12.568 1.647,-1.072 3.195,-2.368 4.485,-3.8 2.017,-2.237 3.678,-4.751 5.96,-6.796 1.685,-1.51 3.307,-3.084 4.971,-4.614 0.224,-0.205 0.535,-0.335 0.804,-0.498 -0.353,1.4 -0.818,2.787 -1.031,4.207 -0.385,2.553 0.133,4.991 1.447,7.316 -1.695,0.635 -3.471,1.18 -4.953,2.247 0.038,0.088 0.08,0.176 0.119,0.264 0.22,-0.069 0.45,-0.117 0.657,-0.209 1.21,-0.52 2.422,-1.035 3.614,-1.589 0.682,-0.315 1.196,-0.25 1.622,0.362 0.147,0.212 0.374,0.378 0.58,0.58 -0.73,0.53 -1.667,0.8 -2.093,1.579 0.063,0.075 0.122,0.15 0.185,0.224 0.758,-0.475 1.52,-0.947 2.297,-1.436 0.646,0.417 1.258,0.815 1.894,1.225 l -0.723,0.986 c 0.328,-0.032 0.482,-0.007 0.52,-0.058 0.58,-0.778 1.255,-0.479 1.972,-0.199 0.584,0.228 1.206,0.375 1.814,0.554 1.45,0.43 2.902,0.856 4.349,1.286 0.601,0.179 1.202,0.371 1.803,0.557 0.354,0.172 0.707,0.491 1.063,0.495 2.146,0.029 4.303,0.088 6.44,-0.072 1.523,-0.11 3.02,-0.547 4.526,-0.837 l 0.71,0.723 0.262,-0.127 c -0.154,-0.3 -0.304,-0.602 -0.458,-0.902 0.51,-0.325 1.02,-0.648 1.534,-0.973 0.58,0.377 1.154,0.761 1.741,1.126 0.238,0.15 0.549,0.388 0.587,-0.16 h 0.168 c 2.699,2.908 5.58,5.69 8.037,8.766 1.803,2.26 3.104,4.881 4.534,7.388 2.135,3.742 3.87,7.679 6.383,11.24 1.283,1.821 1.803,3.931 2.142,6.067 0.08,0.518 0.032,1.052 0.053,1.576 0.003,0.117 0.01,0.277 0.087,0.345 0.888,0.775 0.703,1.788 0.727,2.758 -0.583,-0.674 -0.891,-0.957 -1.503,-0.16 -0.133,-0.192 -0.224,-0.426 -0.402,-0.566 -0.258,-0.205 -0.58,-0.342 -0.874,-0.508 -0.056,0.3 -0.115,0.596 -0.171,0.895 -1.182,-0.283 -1.182,-0.283 -1.3,0.587 -0.357,-0.655 -0.483,-1.524 -1.584,-1.485 -0.126,-0.27 -0.37,-0.547 -0.36,-0.811 0.098,-2.592 -0.654,-4.933 -2.422,-6.936 -1.927,-2.181 -3.458,-4.542 -4.405,-7.251 a 8.111,8.111 0 0 0 -1.636,-2.755 c -0.807,-0.886 -1.919,-1.517 -2.17,-2.79 -0.053,-0.277 -0.343,-0.531 -0.57,-0.756 -0.672,-0.651 -1.304,-1.354 -2.066,-1.898 -0.724,-0.515 -1.367,-1.26 -2.44,-1.185 -0.08,-0.05 -0.161,-0.098 -0.238,-0.147 -0.087,-0.059 -0.175,-0.114 -0.262,-0.173 -1.769,-0.836 -3.59,-1.51 -5.618,-1.406 -0.51,0.026 -1.013,0.198 -1.52,0.306 0.01,0.088 0.024,0.176 0.035,0.26 0.615,0.065 1.23,0.127 1.845,0.193 -0.213,0.367 -0.129,0.602 0.346,0.631 0.965,0.056 1.93,0.098 2.895,0.143 2.248,0.876 3.974,2.286 5.32,4.439 -1.192,-0.228 -2.15,-0.446 -3.118,-0.59 -3.614,-0.537 -7.145,-0.3 -10.515,1.127 -0.318,0.133 -0.57,0.404 -0.8,0.713 1.164,0.436 1.992,-0.524 3.023,-0.534 l -1.38,1.09 c 0.531,0.584 1.027,0.294 1.45,0.128 2.835,-1.107 5.768,-1.452 8.81,-1.049 0.901,0.12 1.81,0.209 2.715,0.313 a 4.078,4.078 0 0 1 2.475,1.954 c 0.595,1.061 1.06,2.191 1.486,3.324 0.587,1.563 1.496,2.934 2.57,4.233 1.282,1.553 2.778,3.028 3.16,5.037 0.29,1.521 0.352,3.08 0.471,4.627 0.014,0.163 -0.248,0.427 -0.447,0.505 -0.507,0.199 -1.038,0.39 -1.577,0.456 -2.324,0.293 -4.097,1.446 -5.715,2.947 -0.65,0.599 -1.531,0.98 -2.31,1.459 -0.043,0.02 -0.085,0.045 -0.123,0.068 l -0.364,0.062 c -1.436,-1.042 -2.852,-2.113 -4.324,-3.113 -0.447,-0.303 -1.052,-0.404 -1.583,-0.6 -0.053,0.01 -0.095,-0.002 -0.126,-0.045 -0.06,-0.039 -0.115,-0.081 -0.175,-0.12 l 0.01,0.007 a 10.127,10.127 0 0 1 -0.251,-0.15 c -1.409,-0.427 -2.81,-0.886 -4.237,-1.263 -0.535,-0.144 -1.153,-0.013 -1.181,0.641 -0.025,0.557 0.475,0.713 1.031,0.788 2.006,0.27 3.684,1.211 5.338,2.244 1.188,0.742 2.426,1.524 3.765,1.92 1.14,0.336 1.636,0.821 1.772,1.854 0.056,0.423 0.304,0.827 0.482,1.23 0.776,1.778 1.56,3.556 2.42,5.52 -0.5,-0.04 -0.724,-0.114 -0.903,-0.059 -0.307,0.1 -0.583,0.283 -0.87,0.43 0.217,0.198 0.399,0.485 0.66,0.583 0.563,0.208 1.217,0.23 1.745,0.488 0.867,0.423 1.73,0.902 2.457,1.504 0.315,0.26 0.44,0.902 0.381,1.339 -0.125,0.93 -1.328,1.387 -2.15,0.853 -0.178,-0.114 -0.167,-0.47 -0.286,-0.69 -0.077,-0.144 -0.23,-0.251 -0.35,-0.375 -0.115,0.124 -0.276,0.231 -0.339,0.374 -0.286,0.668 0.01,1.404 0.766,1.775 0.482,0.238 1.017,0.423 0.793,1.055 -0.227,0.642 -0.405,1.364 -1.314,1.511 -0.13,-0.195 -0.273,-0.384 -0.391,-0.583 -0.654,-1.104 -0.65,-1.104 -1.895,-0.814 -0.06,-0.117 -0.087,-0.28 -0.185,-0.339 -0.29,-0.175 -0.609,-0.312 -0.913,-0.465 -0.108,0.31 -0.353,0.638 -0.304,0.921 0.164,0.954 0.84,1.6 1.717,2.068 0.258,0.137 0.52,0.267 0.779,0.4 -0.465,0.925 -1.482,1.407 -2.674,1.293 -0.776,-1.13 -1.601,-2.234 -2.314,-3.396 -0.927,-1.51 -1.741,-3.093 -3.251,-4.19 -0.71,-0.515 -1.329,-1.258 -2.388,-1.163 -0.056,0 -0.094,-0.023 -0.112,-0.072 0.032,-0.036 0.067,-0.071 0.22,-0.24 -0.16,0.169 -0.195,0.204 -0.23,0.244 l -0.311,-0.202 c -0.182,-0.101 -0.36,-0.206 -0.542,-0.306 l 0.025,0.016 c -0.123,-0.065 -0.245,-0.134 -0.368,-0.199 l -0.066,0.003 -0.045,-0.042 a 67.302,67.302 0 0 1 -0.846,-0.443 c -0.109,-0.052 -0.217,-0.107 -0.325,-0.16 l -0.242,-0.136 -0.056,0.007 -0.042,-0.04 c -0.073,-0.042 -0.146,-0.084 -0.223,-0.126 l -0.067,0.003 -0.045,-0.043 c -0.28,-0.146 -0.56,-0.296 -0.839,-0.442 h 0.003 l -0.27,-0.147 c -2.03,-1.055 -4.278,-1.456 -6.515,-1.892 -0.374,-0.071 -0.727,-0.218 -1.094,-0.332 -0.189,-1.215 -0.947,-2.136 -1.81,-2.99 -0.84,-0.83 -1.756,-1.601 -2.539,-2.47 -1.769,-1.967 -2.23,-4.396 -2.695,-6.829 -0.367,-1.927 -0.706,-3.868 -1.255,-5.753 -0.629,-2.166 -1.461,-4.279 -2.227,-6.409 -0.129,-0.358 -0.384,-0.674 -0.58,-1.009 -0.094,0.023 -0.189,0.046 -0.286,0.065 -0.056,0.313 -0.158,0.625 -0.161,0.941 -0.014,0.71 0.017,1.42 0.031,2.13 -0.234,-0.824 -0.45,-1.651 -0.71,-2.465 a 4.68,4.68 0 0 0 -0.653,-1.293 c -0.577,0.785 -0.486,1.635 -0.266,2.387 0.497,1.713 1.23,3.367 1.727,5.083 0.64,2.214 1.101,4.474 1.717,6.698 0.374,1.348 0.74,2.725 1.387,3.966 0.619,1.191 1.549,2.256 2.43,3.311 0.888,1.062 1.954,1.996 2.8,3.08 0.377,0.482 0.409,1.199 0.597,1.811 -0.042,0.537 -0.321,0.205 -0.545,0.137 -0.43,-0.13 -0.867,-0.244 -1.3,-0.362 -0.332,-0.179 -0.647,-0.41 -1.003,-0.514 -0.242,-0.069 -0.542,0.045 -0.815,0.078 0.13,0.208 0.213,0.475 0.402,0.619 0.594,0.452 1.328,0.781 1.402,1.624 0.112,1.322 -0.315,1.752 -1.835,1.84 -0.098,-0.986 -0.927,-1.527 -1.556,-2.181 -0.409,-0.434 -0.898,-0.83 -1.618,-0.521 z"
     data-layer-id="7413885269195"
     style="fill:#f5f5f5;fill-opacity:1;stroke-width:0.337378"
     id="path3" /><path
     fill="#D0A8BC"
     d="m 232.522,234.363 c -1.493,0.348 -2.867,-0.153 -4.202,-0.609 -3.234,-1.104 -6.561,-1.625 -9.99,-1.833 -2.689,-0.163 -5.283,-0.873 -7.785,-1.807 -3.129,-1.17 -6.324,-1.394 -9.648,-0.88 -2.3,0.355 -4.639,0.548 -6.981,0.212 -0.538,-0.078 -0.891,-0.215 -0.982,-0.827 -0.158,-1.045 -0.343,-2.107 -0.717,-3.097 -0.531,-1.403 -1.199,-2.767 -1.895,-4.106 -1.653,-3.184 -3.362,-6.343 -5.04,-9.517 -0.427,-0.808 -0.804,-1.635 -1.203,-2.456 0.504,0.03 1.024,-0.007 1.507,0.101 4.394,0.97 8.676,2.293 12.623,4.35 2.782,1.453 5.45,3.117 8.07,4.813 2.14,1.387 4.122,2.983 6.199,4.451 2.097,1.489 4.26,2.898 6.337,4.41 2.363,1.719 4.971,2.702 7.991,2.676 1.367,-0.013 2.737,-0.052 4.1,0.013 1.102,0.052 2.227,0.143 3.101,0.912 l -1.566,1.208 c 0.584,0.892 1.143,0.254 1.689,0.078 -0.252,0.325 -0.493,0.658 -0.759,0.97 -0.273,0.322 -0.566,0.625 -0.85,0.938 z"
     data-layer-id="6079396569195"
     style="fill:#f5f5f5;fill-opacity:1;stroke-width:0.337378"
     id="path4" /><path
     fill="#CFA8BC"
     d="m 173.924,164.26 c 0.776,0.805 0.497,1.772 0.388,2.671 -0.475,3.924 -1.688,7.675 -3.184,11.351 -0.028,0.072 -0.091,0.127 -0.185,0.254 -1.399,-0.182 -2.828,-0.371 -4.258,-0.55 -2.31,-0.29 -4.597,-0.313 -6.872,0.312 -2.073,0.57 -4.188,0.521 -6.135,-0.338 -2.979,-1.32 -6.097,-1.74 -9.34,-1.67 -0.33,0.006 -0.661,-0.072 -0.99,-0.108 0.364,-1.166 0.37,-2.3 0.056,-3.51 -0.454,-1.765 -0.587,-3.605 -0.175,-5.396 0.587,-2.546 1.322,-5.063 1.996,-7.593 1.094,0.827 2.321,1.54 3.251,2.5 1.797,1.863 3.412,3.879 5.146,5.796 0.21,0.232 0.692,0.372 1.034,0.359 2.64,-0.111 5.188,0.361 7.74,0.889 0.531,0.11 1.104,0.035 1.66,0.045 1.353,0.143 2.545,-0.25 3.657,-0.94 0.234,-0.147 0.545,-0.19 0.818,-0.278 -0.672,0.622 -1.343,1.244 -2.01,1.87 -0.353,0.328 -0.44,0.64 0.087,0.924 0.821,-0.664 1.622,-1.306 2.419,-1.954 1.035,-0.843 2.104,-1.611 3.53,-1.823 0.21,-0.033 0.36,-0.417 0.539,-0.641 -0.255,-0.144 -0.531,-0.437 -0.759,-0.404 -0.57,0.078 -1.115,0.303 -1.667,0.469 0.066,-0.137 0.09,-0.33 0.203,-0.398 1.01,-0.628 2.034,-1.23 3.051,-1.836 z m -22.816,4.322 -0.132,-0.078 c -0.025,-0.205 -0.028,-0.417 -0.077,-0.616 -0.675,-2.706 -2.786,-4.399 -4.915,-6.082 -0.021,-0.017 -0.053,-0.033 -0.077,-0.03 -0.224,0.023 -0.448,0.05 -0.671,0.075 0.031,0.215 -0.021,0.502 0.108,0.639 0.66,0.7 1.35,1.377 2.059,2.035 1.234,1.146 1.965,2.546 2.478,4.073 0.12,0.352 0.381,0.664 0.574,0.997 0.22,-0.34 0.437,-0.674 0.653,-1.013 z"
     data-layer-id="1475549869195"
     style="fill:#f5f5f5;fill-opacity:1;stroke-width:0.337378"
     id="path5" /><path
     fill="#CDA6BA"
     d="m 142.219,178.598 c 0.147,1.048 0.395,2.094 0.42,3.145 0.062,2.478 1.244,3.37 3.984,4.074 0.556,0.143 1.161,0.15 1.741,0.172 2.972,0.114 4.912,-0.657 6.516,-4.112 0.123,-0.26 0.14,-0.596 0.332,-0.785 0.28,-0.277 0.692,-0.645 1.017,-0.622 0.322,0.023 0.724,0.436 0.881,0.769 0.22,0.462 0.22,1.012 0.364,1.514 0.825,2.859 2.754,4.288 6.11,4.506 0.664,0.043 1.346,0.049 2.003,-0.039 2.003,-0.273 3.395,-1.182 3.765,-3.19 0.171,-0.935 0.524,-1.837 0.832,-2.873 0.73,3.009 0.038,6.324 -1.783,8.83 -2.153,-0.647 -4.317,-1.298 -6.477,-1.95 l -0.147,0.41 c 2.08,0.655 4.16,1.313 6.37,2.006 -0.532,0.544 -0.973,0.997 -1.448,1.485 -1.678,-1.01 -3.286,-1.976 -4.894,-2.947 -0.084,0.121 -0.171,0.241 -0.255,0.365 1.503,0.941 3.01,1.882 4.642,2.905 -0.395,0.23 -0.748,0.44 -1.084,0.638 a 1860.13,1860.13 0 0 0 -3.244,-2.901 l -0.304,0.27 c 0.818,1.055 2.052,1.778 2.965,2.898 -2.888,0.918 -5.807,1.198 -8.781,1.11 -1.504,-0.41 -3.024,-0.778 -4.51,-1.237 -1.53,-0.476 -3.03,-1.045 -4.544,-1.573 1.038,-0.713 2.08,-1.426 3.118,-2.14 a 60.98,60.98 0 0 1 -0.238,-0.318 c -1.174,0.726 -2.349,1.449 -3.52,2.175 l -1.195,-1.065 c 1.573,-0.56 3.15,-1.12 4.722,-1.677 -0.035,-0.094 -0.07,-0.189 -0.101,-0.28 -1.85,0.257 -3.517,1.094 -5.285,1.612 -0.228,-0.355 -0.451,-0.713 -0.679,-1.068 l 6.425,-1.329 c -0.02,-0.087 -0.038,-0.175 -0.06,-0.263 -2.338,0.045 -4.568,0.758 -6.861,1.107 -0.178,-0.378 -0.398,-0.743 -0.528,-1.133 -0.905,-2.814 -0.856,-5.643 -0.269,-8.49 z m 13.123,11.468 c 0.104,0.104 0.213,0.215 0.328,0.326 1.308,1.286 3.28,1.214 4.415,-0.215 0.2,-0.251 0.126,-0.69 0.178,-1.045 -0.374,0.022 -0.776,-0.026 -1.115,0.09 -0.377,0.131 -0.67,0.48 -1.048,0.61 -0.647,0.228 -1.164,-0.079 -1.469,-0.593 -0.328,-0.554 0.186,-0.755 0.588,-1 0.416,-0.254 0.832,-0.527 1.192,-0.846 0.377,-0.332 0.706,-0.788 0.237,-1.215 -0.52,-0.472 -0.804,0.04 -1.118,0.365 -1.136,1.169 -2.066,1.169 -3.129,-0.003 -0.335,-0.371 -0.723,-0.645 -1.216,-0.329 -0.493,0.313 -0.308,0.775 -0.028,1.1 0.52,0.613 1.115,1.17 1.678,1.75 -0.948,1.263 -2.342,0.51 -3.646,0.458 0.71,1.319 1.838,1.443 4.153,0.547 z"
     data-layer-id="7707271669195"
     style="fill:#f5f5f5;fill-opacity:1;stroke-width:0.337378"
     id="path6" /><path
     fill="#C6C1BB"
     d="m 163.231,186.204 c -2.349,-0.078 -4.013,-1.677 -4.292,-4.015 -0.032,-0.257 -0.074,-0.51 -0.116,-0.768 -0.157,-0.964 0.182,-1.566 1.203,-1.827 1.24,-0.319 2.513,-0.534 3.772,-0.794 0.02,0.09 0.045,0.179 0.066,0.27 -0.794,0.18 -1.59,0.339 -2.374,0.544 -1.349,0.351 -1.667,0.885 -1.489,2.165 0.273,1.98 1.031,3.64 3.23,4.425 z"
     data-layer-id="2317365669195"
     style="fill:#ffffff;fill-opacity:1;stroke-width:0.337378"
     id="path7" /><path
     fill="#C8C3BD"
     d="m 147.277,177.8 c -1.842,0.234 -2.185,1.543 -2.384,2.882 -0.325,2.207 0.535,3.764 3.07,4.288 -3.363,-0.312 -4.71,-1.618 -4.153,-4.6 0.43,-2.293 1.181,-2.81 3.467,-2.57 z"
     data-layer-id="2175267369195"
     style="fill:#ffffff;fill-opacity:1;stroke-width:0.337378"
     id="path8" /><path
     fill="#D8BECB"
     d="m 120.871,220.29 c 0.227,-0.225 0.528,-0.664 0.671,-0.625 0.315,0.088 0.591,0.39 0.8,0.664 0.235,0.303 0.382,0.667 0.567,1.006 z"
     data-layer-id="5263806969195"
     style="fill:#f5f5f5;fill-opacity:1;stroke-width:0.337378"
     id="path9" /><path
     fill="#D0A8BC"
     d="m 187.257,234.45 -0.381,-2.484 c 0.237,0.714 0.49,1.42 0.695,2.14 0.028,0.081 -0.202,0.228 -0.314,0.345 z"
     data-layer-id="8799273869195"
     style="fill:#f5f5f5;fill-opacity:1;stroke-width:0.337378"
     id="path10" /><path
     fill="#D8BECB"
     d="m 161.113,246.495 c 0.28,0.147 0.56,0.297 0.839,0.443 -0.276,-0.146 -0.556,-0.296 -0.84,-0.443 z"
     data-layer-id="5761834769195"
     style="fill:#f5f5f5;fill-opacity:1;stroke-width:0.337378"
     id="path11" /><path
     fill="#D8BECB"
     d="m 162.952,247.433 c 0.283,0.147 0.566,0.293 0.846,0.443 -0.284,-0.146 -0.567,-0.293 -0.846,-0.443 z"
     data-layer-id="6790254869195"
     style="fill:#f5f5f5;fill-opacity:1;stroke-width:0.337378"
     id="path12" /><path
     fill="#DAC0CD"
     d="m 125.566,235.724 0.688,0.32 c -0.23,-0.105 -0.457,-0.213 -0.688,-0.32 z"
     data-layer-id="653640169195"
     style="fill:#d9d9d9;fill-opacity:1;stroke-width:0.337378"
     id="path13" /><path
     fill="#D8BECB"
     d="m 164.252,248.097 c 0.182,0.101 0.36,0.206 0.542,0.307 -0.182,-0.101 -0.36,-0.206 -0.542,-0.307 z"
     data-layer-id="4013157969195"
     style="fill:#f5f5f5;fill-opacity:1;stroke-width:0.337378"
     id="path14" /><path
     fill="#D0A8BC"
     d="m 163.616,211.762 c -0.234,0.049 -0.465,0.1 -0.7,0.15 0.235,-0.05 0.47,-0.098 0.7,-0.15 z"
     data-layer-id="1294669195"
     style="fill:#f5f5f5;fill-opacity:1;stroke-width:0.337378"
     id="path15" /><path
     fill="#D0A8BC"
     d="m 162.934,211.902 c -0.196,0.055 -0.395,0.114 -0.59,0.17 0.195,-0.06 0.39,-0.115 0.59,-0.17 z"
     data-layer-id="250685569195"
     style="fill:#f5f5f5;fill-opacity:1;stroke-width:0.337378"
     id="path16" /><path
     fill="#D8BECB"
     d="m 122.906,221.332 0.335,0.166 c -0.112,-0.052 -0.224,-0.11 -0.335,-0.166 z"
     data-layer-id="6126408169196"
     style="fill:#f5f5f5;fill-opacity:1;stroke-width:0.337378"
     id="path17" /><path
     fill="#CCA6B9"
     d="m 183.54,224.624 0.19,0.312 z"
     data-layer-id="4527131269196"
     style="fill:#d9d9d9;fill-opacity:1;stroke-width:0.337378"
     id="path18" /><path
     fill="#CCA6B9"
     d="m 183.726,224.933 c 0.056,0.108 0.115,0.215 0.171,0.322 l -0.17,-0.322 z"
     data-layer-id="8083482569196"
     style="fill:#d9d9d9;fill-opacity:1;stroke-width:0.337378"
     id="path19" /><path
     fill="#DAC0CD"
     d="m 126.24,236.033 0.36,0.15 a 11.593,11.593 0 0 1 -0.36,-0.15 z"
     data-layer-id="146937469196"
     style="fill:#d9d9d9;fill-opacity:1;stroke-width:0.337378"
     id="path20" /><path
     fill="#D8BECB"
     d="M 163.91,247.915 Z"
     data-layer-id="5620713969196"
     style="fill:#f5f5f5;fill-opacity:1;stroke-width:0.337378"
     id="path21" /><path
     fill="#D0A8BC"
     d="m 140.181,177.429 c 0.056,-0.108 0.108,-0.218 0.164,-0.326 -0.056,0.108 -0.108,0.215 -0.164,0.326 z"
     data-layer-id="7508803369196"
     style="fill:#f5f5f5;fill-opacity:1;stroke-width:0.337378"
     id="path22" /><path
     fill="#D9BDCB"
     d="m 170.397,206.81 c 0.088,0.058 0.175,0.113 0.262,0.172 -0.087,-0.059 -0.174,-0.117 -0.262,-0.173 z"
     data-layer-id="2772521869196"
     style="fill:#d9d9d9;fill-opacity:1;stroke-width:0.337378"
     id="path23" /><path
     fill="#D0A8BC"
     d="m 234.186,232.429 c 0.014,0.02 0.031,0.036 0.045,0.055 -0.031,-0.01 -0.063,-0.02 -0.094,-0.032 z"
     data-layer-id="4270453869196"
     style="fill:#f5f5f5;fill-opacity:1;stroke-width:0.337378"
     id="path24" /><path
     fill="#C09CAE"
     d="m 170.838,194.605 h -0.168 c -0.049,-0.016 -0.066,-0.049 -0.045,-0.094 a 0.471,0.471 0 0 1 0.048,-0.065 l 0.165,0.16 z"
     data-layer-id="911027269196"
     style="fill:#c09cae;stroke-width:0.337378"
     id="path25" /><path
     fill="#D3B9C5"
     d="m 167.062,233.227 c 0.084,0.048 0.168,0.097 0.252,0.15 -0.084,-0.05 -0.168,-0.102 -0.252,-0.15 z"
     data-layer-id="1941972569196"
     style="fill:#d9d9d9;fill-opacity:1;stroke-width:0.337378"
     id="path26" /><path
     fill="#D3B9C5"
     d="m 167.304,233.37 c 0.06,0.039 0.115,0.081 0.174,0.12 -0.055,-0.039 -0.115,-0.081 -0.174,-0.12 z"
     data-layer-id="6229162569196"
     style="fill:#d9d9d9;fill-opacity:1;stroke-width:0.337378"
     id="path27" /><path
     fill="#D3B9C5"
     d="m 173.875,237.186 a 0.902,0.902 0 0 1 0.123,-0.068 c -0.021,0.058 -0.063,0.081 -0.123,0.068 z"
     data-layer-id="3059339269196"
     style="fill:#d9d9d9;fill-opacity:1;stroke-width:0.337378"
     id="path28" /><path
     fill="#D8BECB"
     d="m 160.847,246.352 0.27,0.147 c -0.092,-0.052 -0.182,-0.101 -0.27,-0.147 z"
     data-layer-id="5682557169196"
     style="fill:#f5f5f5;fill-opacity:1;stroke-width:0.337378"
     id="path29" /><path
     fill="#D8BECB"
     d="m 162.064,246.977 c 0.073,0.043 0.147,0.085 0.223,0.127 z"
     data-layer-id="6764550569196"
     style="fill:#f5f5f5;fill-opacity:1;stroke-width:0.337378"
     id="path30" /><path
     fill="#D8BECB"
     d="m 162.385,247.137 0.241,0.137 -0.24,-0.137 z"
     data-layer-id="4054241669196"
     style="fill:#f5f5f5;fill-opacity:1;stroke-width:0.337378"
     id="path31" /><path
     fill="#D8BECB"
     d="m 165.101,248.605 c 0.035,-0.035 0.07,-0.074 0.231,-0.244 -0.154,0.17 -0.189,0.205 -0.22,0.241 l -0.01,0.003 z"
     data-layer-id="1773762569196"
     style="fill:#f5f5f5;fill-opacity:1;stroke-width:0.337378"
     id="path32" /><path
     fill="#150F12"
     d="m 151.108,168.582 c -0.216,0.335 -0.43,0.674 -0.646,1.01 -0.196,-0.333 -0.455,-0.642 -0.574,-0.997 -0.513,-1.527 -1.244,-2.927 -2.478,-4.074 a 43.313,43.313 0 0 1 -2.059,-2.035 c -0.13,-0.136 -0.077,-0.42 -0.108,-0.638 0.223,-0.026 0.447,-0.052 0.67,-0.075 0.025,-0.003 0.057,0.013 0.078,0.03 2.129,1.683 4.24,3.376 4.915,6.082 0.049,0.202 0.052,0.41 0.077,0.615 0.038,0.033 0.08,0.056 0.125,0.082 z"
     data-layer-id="4303906869197"
     style="fill:#150f12;stroke-width:0.337378"
     id="path33" /><path
     fill="#181215"
     d="m 168.534,168.051 c 0.713,-0.52 1.423,-1.042 2.136,-1.56 0.556,-0.166 1.101,-0.39 1.667,-0.469 0.228,-0.032 0.504,0.261 0.759,0.404 -0.178,0.222 -0.329,0.61 -0.538,0.642 -1.427,0.211 -2.493,0.98 -3.531,1.823 -0.797,0.648 -1.598,1.29 -2.419,1.954 -0.528,-0.283 -0.44,-0.596 -0.087,-0.925 0.67,-0.625 1.342,-1.247 2.013,-1.869 z"
     data-layer-id="1077370369197"
     style="fill:#181215;stroke-width:0.337378"
     id="path34" /><path
     fill="#161013"
     d="m 155.342,190.066 c -2.318,0.892 -3.444,0.772 -4.153,-0.547 1.3,0.052 2.698,0.804 3.646,-0.46 -0.563,-0.579 -1.157,-1.136 -1.678,-1.748 -0.276,-0.325 -0.462,-0.788 0.028,-1.1 0.493,-0.316 0.88,-0.043 1.216,0.329 1.066,1.172 1.993,1.175 3.129,0.003 0.315,-0.326 0.601,-0.837 1.119,-0.365 0.468,0.426 0.14,0.882 -0.238,1.214 -0.36,0.32 -0.773,0.593 -1.192,0.847 -0.406,0.244 -0.916,0.446 -0.587,1 0.304,0.514 0.821,0.82 1.468,0.592 0.377,-0.133 0.667,-0.478 1.048,-0.609 0.34,-0.117 0.741,-0.065 1.115,-0.09 -0.052,0.35 0.021,0.794 -0.178,1.044 -1.136,1.43 -3.107,1.502 -4.415,0.215 -0.112,-0.107 -0.223,-0.221 -0.328,-0.325 z"
     data-layer-id="2227320669197"
     style="fill:#550000;stroke-width:0.337378"
     id="path35" /></svg>
