<?xml version="1.0" encoding="UTF-8" standalone="no"?>
<svg
   viewBoxSize="575"
   data-root-id="3555674569195"
   version="1.0"
   id="Layer_1"
   x="180.35"
   y="110"
   viewBox="109 156 130.37254 103.78062"
   enable-background="new 0 0 612 792"
   xml:space="preserve"
   height="80"
   width="100.499"
   preserveAspectRatio="xMinYMin"
   zoom="1"
   editorType="buyer"
   data-layer-role="icon"
   sodipodi:docname="logo.svg"
   inkscape:version="1.2.2 (b0a8486541, 2022-12-01)"
   xmlns:inkscape="http://www.inkscape.org/namespaces/inkscape"
   xmlns:sodipodi="http://sodipodi.sourceforge.net/DTD/sodipodi-0.dtd"
   xmlns="http://www.w3.org/2000/svg"
   xmlns:svg="http://www.w3.org/2000/svg"><defs
     id="defs131" /><sodipodi:namedview
     id="namedview129"
     pagecolor="#ffffff"
     bordercolor="#000000"
     borderopacity="0.25"
     inkscape:showpageshadow="2"
     inkscape:pageopacity="0.0"
     inkscape:pagecheckerboard="0"
     inkscape:deskcolor="#d1d1d1"
     showgrid="false"
     inkscape:zoom="8.5718647"
     inkscape:cx="25.373709"
     inkscape:cy="47.714239"
     inkscape:window-width="2560"
     inkscape:window-height="1312"
     inkscape:window-x="0"
     inkscape:window-y="35"
     inkscape:window-maximized="1"
     inkscape:current-layer="Layer_1" /><path
     fill="#FFFFFF"
     d="m 109,156 c 43.4577,0 86.9154,0 130.3731,0 0,34.59354 0,69.18708 0,103.78062 -43.4577,0 -86.9154,0 -130.3731,0 0,-34.59354 0,-69.18708 0,-103.78062 z m 65.26345,82.6318 c 1.34932,-0.99639 2.61474,-1.79741 3.70887,-2.771 1.75481,-1.55971 4.17379,-1.74531 6.12784,-2.83287 0.25868,0.47866 0.39501,1.01593 0.75506,1.32526 0.50337,0.43633 1.15356,0.93778 1.77928,0.98988 1.08364,0.0879 2.20225,-0.14653 3.30337,-0.24421 0.1573,-0.013 0.32859,-0.0619 0.47541,-0.026 2.6357,0.6089 3.36279,-0.66752 3.37328,-2.33142 0.004,-0.63821 -0.0734,-1.27968 -0.11535,-1.98301 2.61473,0.42656 5.18052,0.19212 7.73933,-0.19862 2.98876,-0.45587 5.86217,-0.14002 8.67266,0.92475 2.4819,0.94103 5.06867,1.54993 7.73583,1.82671 1.71636,0.17909 3.46417,0.16932 5.14907,0.47866 2.03795,0.37446 4.01648,1.01266 6.02996,1.50435 1.56255,0.38422 3.13559,0.46237 4.68415,-0.0586 1.67091,-0.56006 2.66367,-1.85276 2.4819,-3.30175 -0.0559,-0.44284 -0.46142,-0.86614 -0.46142,-1.29921 -0.007,-1.97975 -1.36679,-2.81008 -3.13908,-3.04778 -1.8387,-0.24421 -3.71935,-0.26049 -5.58252,-0.267 -2.8839,-0.01 -5.39377,-0.8694 -7.58553,-2.60168 -0.93333,-0.73915 -1.88065,-1.47179 -2.86991,-2.14907 -2.15331,-1.4783 -4.42198,-2.81984 -6.48789,-4.39583 -4.11436,-3.1422 -8.4874,-5.89692 -13.2869,-8.02646 -4.13534,-1.83648 -8.47342,-3.13569 -13.0492,-3.5883 -0.89488,-0.0879 -1.30736,-0.40376 -1.76879,-1.06476 -1.18502,-1.69321 -2.41198,-3.37339 -3.78926,-4.9331 -1.98552,-2.24675 -4.13883,-4.36652 -6.18028,-6.57095 -0.8005,-0.86288 -1.49963,-1.80717 -2.2442,-2.71564 0.0594,-0.0651 0.12235,-0.13025 0.18178,-0.19212 1.52759,0.66426 3.05168,1.32852 4.57927,1.99278 0.0489,-0.0912 0.0979,-0.1856 0.14682,-0.27677 -1.49613,-1.18851 -3.45718,-1.61506 -5.17703,-2.46492 0.0839,-0.14328 0.13633,-0.23445 0.19226,-0.32237 1.69538,-2.73192 2.50287,-5.63642 2.04145,-8.80793 -0.0734,-0.51122 -0.0734,-1.08431 0.0944,-1.56948 1.21298,-3.49061 2.91536,-6.85098 3.32784,-10.5565 0.1608,-1.43597 0.29713,-2.89473 0.20275,-4.32744 -0.0699,-1.10059 -0.92285,-1.66391 -2.09388,-1.5304 -0.77254,0.0879 -1.59052,0.33864 -2.23721,0.73263 -1.65343,1.00616 -3.22996,2.12628 -4.82397,3.22036 -1.31086,0.90195 -2.68465,1.22757 -4.31012,0.77822 -2.03795,-0.56332 -4.14931,-0.89545 -6.27466,-0.61542 -0.90187,0.11723 -1.34232,-0.11396 -1.82821,-0.78473 -1.94707,-2.70262 -3.96055,-5.36943 -6.84795,-7.30033 -1.93308,-1.2927 -3.62147,-0.87266 -4.43945,1.19827 -1.09763,2.78728 -1.78976,5.67876 -1.93658,8.65164 -0.0734,1.51086 0.0944,3.03475 0.15031,4.52933 -0.33907,0.14653 -0.74806,0.30282 -1.13608,0.49819 -1.78976,0.89545 -3.05168,2.30537 -4.30662,3.75437 -1.31435,1.51411 -2.76155,2.92403 -4.13883,4.38931 -1.44719,1.54668 -2.98876,3.02824 -4.27865,4.68237 -1.43321,1.83648 -3.04819,3.4548 -5.06867,4.70191 -3.07615,1.9016 -5.37628,4.38932 -6.94931,7.51524 -2.17429,4.31768 -3.02372,8.82096 -2.47491,13.55869 0.26217,2.2728 0.5593,4.54235 0.71311,6.82167 0.11186,1.64111 0.54881,3.14546 1.33533,4.61073 0.65718,1.22107 1.2025,2.50074 1.6814,3.79344 0.60474,1.63785 1.37728,3.16174 2.66367,4.44142 2.38053,2.377 5.17004,4.22325 8.43846,5.32058 2.17428,0.72938 4.46042,1.17547 6.70462,1.716 0.78302,0.18885 1.3598,0.56331 1.73733,1.22106 0.91236,1.60203 1.85968,3.18453 2.72659,4.80611 0.97878,1.82671 2.39101,2.95985 4.69813,2.92729 0.59776,-0.01 1.199,0.21165 1.80375,0.27026 0.90187,0.0879 1.8387,0.28329 2.71261,0.15304 1.77578,-0.26375 3.41174,-0.87265 4.06891,-2.6668 0.17479,-0.4754 0.23421,-0.98987 0.33559,-1.44248 0.73058,0.2377 1.44369,0.5568 2.19176,0.69356 2.92934,0.53076 5.55106,1.716 8.17279,3.00219 2.5553,1.25362 4.41498,2.96311 5.68739,5.37268 0.69213,1.30898 1.56604,2.5854 2.60774,3.6697 1.4437,1.50109 3.64595,1.54342 5.35531,0.2898 0.81099,-0.59262 1.57653,-1.25037 2.28964,-1.94068 0.78302,-0.75868 1.33533,-1.65087 1.44369,-2.74495 0.0245,-0.25398 0.18527,-0.56331 0.39501,-0.72287 1.24794,-0.95731 1.601,-2.54632 0.60824,-3.75436 -0.56979,-0.69356 -1.46117,-1.1592 -2.18127,-1.75182 -0.34957,-0.28654 -0.80749,-0.58611 -0.93334,-0.96057 -0.72709,-2.16209 -1.6779,-4.22325 -2.8769,-6.18998 -0.22023,-0.38422 -0.33908,-0.81404 -0.42997,-1.0322 z"
     name="Layer %{number}"
     style="fill:#ffffff;fill-opacity:0;stroke-width:0.337378"
     zoom="1"
     data-layer-id="5975343169195"
     id="path2" /><path
     fill="#141112"
     d="m 174.26345,238.6318 c 0.0909,0.21816 0.20974,0.64798 0.43696,1.01918 1.199,1.96673 2.15331,4.02788 2.8769,6.18998 0.12585,0.37446 0.58377,0.67402 0.93334,0.96057 0.7201,0.59262 1.61148,1.055 2.18127,1.75182 0.99276,1.20803 0.6397,2.79704 -0.60824,3.75436 -0.20974,0.15955 -0.37053,0.46889 -0.395,0.72287 -0.10837,1.09407 -0.66068,1.98626 -1.4437,2.74495 -0.71311,0.69031 -1.47865,1.34805 -2.28964,1.94067 -1.70936,1.25363 -3.91511,1.2113 -5.35531,-0.28979 -1.0417,-1.08431 -1.9156,-2.36073 -2.60774,-3.66971 -1.26891,-2.40956 -3.13209,-4.11905 -5.68739,-5.37268 -2.62173,-1.28618 -5.24345,-2.47143 -8.17279,-3.00218 -0.74807,-0.13676 -1.46118,-0.45587 -2.19176,-0.69357 -0.10138,0.45587 -0.1608,0.96709 -0.33558,1.44249 -0.66068,1.79414 -2.29314,2.40305 -4.06892,2.6668 -0.87391,0.13024 -1.81074,-0.0651 -2.71261,-0.15304 -0.60474,-0.0586 -1.2025,-0.27678 -1.80375,-0.27026 -2.30711,0.0326 -3.71935,-1.10059 -4.69813,-2.9273 -0.86691,-1.62157 -1.81423,-3.20407 -2.72659,-4.8061 -0.37403,-0.65775 -0.95431,-1.03221 -1.73733,-1.22107 -2.24419,-0.54052 -4.53034,-0.98662 -6.70462,-1.716 -3.26842,-1.09733 -6.05793,-2.94683 -8.43846,-5.32058 -1.28639,-1.28293 -2.05543,-2.80356 -2.66367,-4.44141 -0.4789,-1.2927 -1.02422,-2.57238 -1.6814,-3.79344 -0.79001,-1.46528 -1.22697,-2.96963 -1.33533,-4.61074 -0.15381,-2.27931 -0.45094,-4.55212 -0.71311,-6.82167 -0.54881,-4.74098 0.30412,-9.24426 2.47491,-13.55869 1.57303,-3.12266 3.87316,-5.61363 6.94932,-7.51523 2.02047,-1.24712 3.63545,-2.86543 5.06866,-4.70191 1.28989,-1.65414 2.83146,-3.13569 4.27866,-4.68237 1.37378,-1.46854 2.82447,-2.87846 4.13882,-4.38932 1.25494,-1.44574 2.51686,-2.85566 4.30662,-3.75436 0.38802,-0.19537 0.79701,-0.35167 1.13608,-0.4982 -0.0559,-1.49458 -0.22372,-3.01846 -0.15031,-4.52933 0.14682,-2.96962 0.83895,-5.86436 1.93658,-8.65164 0.81798,-2.07092 2.50637,-2.49097 4.43946,-1.19827 2.88739,1.93417 4.90087,4.60097 6.84794,7.30033 0.4824,0.67077 0.92285,0.90196 1.82821,0.78474 2.12535,-0.27678 4.23322,0.0554 6.27466,0.61542 1.62547,0.44935 2.99926,0.12047 4.31012,-0.77823 1.59051,-1.09407 3.17054,-2.21094 4.82397,-3.22035 0.64669,-0.394 1.46817,-0.64472 2.23721,-0.73264 1.17103,-0.1335 2.02397,0.42982 2.09388,1.5304 0.0944,1.43272 -0.0454,2.89148 -0.20275,4.32745 -0.41248,3.70552 -2.11485,7.06589 -3.32784,10.5565 -0.16779,0.48517 -0.16779,1.05825 -0.0944,1.56947 0.46142,3.17151 -0.34257,6.07601 -2.04145,8.80794 -0.0559,0.0879 -0.10836,0.17909 -0.19226,0.32236 1.71985,0.84986 3.6809,1.27642 5.17703,2.46492 -0.0489,0.0912 -0.0979,0.1856 -0.14681,0.27677 -1.5276,-0.66425 -3.05169,-1.32851 -4.57928,-1.99277 -0.0594,0.0651 -0.12235,0.13025 -0.18178,0.19211 0.74457,0.90847 1.4437,1.85276 2.2442,2.71565 2.04494,2.20442 4.19476,4.32419 6.18028,6.57095 1.37728,1.55645 2.60424,3.23989 3.78926,4.93309 0.46143,0.66101 0.87391,0.97685 1.76879,1.06477 4.57579,0.44935 8.91387,1.75182 13.0492,3.5883 4.79601,2.12953 9.17254,4.881 13.2869,8.02645 2.06242,1.57599 4.33458,2.91753 6.48789,4.39583 0.98577,0.67729 1.93308,1.40992 2.86991,2.14907 2.19177,1.73554 4.70163,2.59191 7.58553,2.60168 1.86317,0.007 3.74382,0.0228 5.58252,0.26701 1.77229,0.2377 3.13209,1.06802 3.13908,3.04777 0,0.43307 0.40899,0.85312 0.46142,1.29921 0.17828,1.44574 -0.81098,2.7417 -2.4819,3.30176 -1.54856,0.51773 -3.12509,0.43958 -4.68414,0.0586 -2.01349,-0.49494 -3.99202,-1.12989 -6.02997,-1.50435 -1.68489,-0.30934 -3.43271,-0.29957 -5.14907,-0.47866 -2.66716,-0.27677 -5.25393,-0.88567 -7.73583,-1.82671 -2.81049,-1.06476 -5.6839,-1.38061 -8.67266,-0.92475 -2.55531,0.39074 -5.12111,0.62519 -7.73933,0.19863 0.0419,0.70333 0.11885,1.34154 0.11535,1.983 -0.0105,1.66716 -0.73758,2.94033 -3.37328,2.33142 -0.14682,-0.0326 -0.31811,0.013 -0.47541,0.026 -1.10462,0.0977 -2.21973,0.33213 -3.30337,0.24421 -0.62572,-0.0521 -1.27241,-0.55355 -1.77928,-0.98987 -0.36005,-0.30934 -0.49638,-0.84661 -0.75505,-1.32526 -1.95057,1.08756 -4.37304,1.27316 -6.12785,2.83286 -1.09763,0.98662 -2.36654,1.78764 -3.71586,2.78403 z m -6.9598,-5.26197 c 0.0594,0.0391 0.11536,0.0814 0.17478,0.12048 0.0315,0.0423 0.0734,0.0554 0.12585,0.0456 1.71286,1.17874 3.42222,2.36398 5.14906,3.52644 0.19925,0.1335 0.50337,0.12699 0.75855,0.1856 0.12235,-0.0195 0.2412,-0.0423 0.36355,-0.0619 0.0594,0.0163 0.10137,-0.01 0.12235,-0.0684 0.77603,-0.47866 1.66042,-0.85963 2.31061,-1.45876 1.62197,-1.5011 3.39426,-2.65378 5.71536,-2.94684 0.53833,-0.0684 1.06966,-0.25723 1.57653,-0.45586 0.19925,-0.0782 0.46142,-0.3419 0.44744,-0.50471 -0.11885,-1.54668 -0.18177,-3.10638 -0.47191,-4.62701 -0.38102,-2.01231 -1.87716,-3.4841 -3.16005,-5.0373 -1.07316,-1.29921 -1.98552,-2.67005 -2.56929,-4.23302 -0.42297,-1.13314 -0.89139,-2.26303 -1.48565,-3.32454 -0.51735,-0.92801 -1.35281,-1.62809 -2.4749,-1.9537 -3.33833,-1.21456 -6.76405,-1.45226 -10.26668,-0.80753 -0.2342,0.0488 -0.46491,0.10094 -0.69912,0.14978 l 0.014,-0.013 c -0.19925,0.0554 -0.39501,0.11397 -0.59426,0.16933 l -0.0524,0.0163 c -1.02772,0.013 -1.85968,0.97033 -3.02372,0.53401 0.23071,-0.31259 0.48239,-0.5796 0.8005,-0.7131 3.37328,-1.42621 6.90037,-1.66065 10.51486,-1.12664 0.96829,0.14327 1.92609,0.36144 3.1181,0.58937 -1.34582,-2.15233 -3.07266,-3.56225 -5.32035,-4.43816 -1.08015,-0.25724 -2.1603,-0.51773 -3.24045,-0.77497 -0.61523,-0.0651 -1.23046,-0.12699 -1.8457,-0.19211 -0.0105,-0.0879 -0.0245,-0.17583 -0.035,-0.2605 0.50687,-0.10745 1.00674,-0.28003 1.5206,-0.30608 2.03096,-0.10094 3.85219,0.56983 5.61748,1.40667 0.0874,0.0586 0.17478,0.11397 0.26217,0.17258 0.0804,0.0488 0.1608,0.0977 0.23771,0.14652 0.14681,0.11723 0.29363,0.23445 0.44394,0.35167 1.45418,1.14292 2.92235,2.26955 3.37329,4.13208 0.0419,0.17583 0.23071,0.36469 0.40549,0.46563 1.58352,0.88242 2.3176,2.30863 2.94682,3.83577 0.56279,1.37085 1.09763,2.77751 1.90512,4.02462 1.05917,1.63786 2.36654,3.13244 3.56904,4.68889 0.0629,0.10419 0.12584,0.20839 0.18876,0.31259 l -0.007,-0.007 c 0.0559,0.10745 0.11536,0.2149 0.17129,0.32236 l -0.004,-0.007 c 0.55581,1.38713 0.87041,2.80682 0.90537,4.3014 0.0245,1.12013 0.27615,2.23374 0.42647,3.35386 0.34257,1.1885 0.86691,1.58901 2.03445,1.54668 0.11186,-0.11722 0.33908,-0.26375 0.31811,-0.34516 -0.20625,-0.71961 -0.45793,-1.42945 -0.69563,-2.1393 0.0315,-0.15304 0.0594,-0.30608 0.0909,-0.45912 1.10113,-0.0391 1.22697,0.83032 1.58352,1.48481 l -0.007,0.0423 c 0,0 0.0384,0.0228 0.0384,0.0228 0.0455,0.34515 0.0455,0.70659 0.15381,1.0322 0.0385,0.11397 0.34607,0.14979 0.53134,0.22142 1.39476,-0.56983 1.39476,-0.56983 0.66766,-1.77135 -0.028,-0.0456 -0.0559,-0.0879 -0.0839,-0.13025 0.0559,-0.29957 0.11535,-0.59588 0.17129,-0.89545 0.29363,0.16607 0.61523,0.30283 0.8739,0.50797 0.17828,0.14001 0.27266,0.37446 0.402,0.56657 0.17478,0.56657 0.34956,1.13315 0.53483,1.73554 0.84595,-0.31585 1.00325,-0.89545 0.9648,-1.57599 -0.0245,-0.96708 0.1608,-1.97975 -0.72709,-2.75797 -0.0769,-0.0684 -0.0839,-0.22794 -0.0874,-0.34516 -0.021,-0.52424 0.028,-1.05825 -0.0524,-1.57598 -0.33908,-2.13605 -0.85993,-4.24605 -2.14282,-6.06625 -2.51336,-3.56224 -4.2437,-7.49895 -6.38303,-11.24029 -1.43321,-2.50725 -2.73009,-5.12847 -4.53383,-7.38825 -2.45743,-3.07708 -5.33783,-5.85785 -8.03646,-8.76561 -0.0559,-0.0521 -0.11186,-0.10745 -0.1643,-0.15955 -0.0489,-0.0586 -0.0979,-0.11722 -0.14332,-0.17583 -0.34257,-0.46238 -0.68164,-0.92475 -1.02422,-1.38387 -0.23071,-0.56658 -0.46142,-1.13641 -0.7166,-1.7681 -0.44744,0.44284 -0.87041,0.85963 -1.34582,1.33177 0.55581,0.32887 1.05219,0.62519 1.54857,0.9215 0.4754,0.33864 0.95081,0.67728 1.42621,1.01592 0.0699,0.0423 0.13983,0.0847 0.20974,0.12699 -0.0175,0.0456 -0.003,0.0781 0.0454,0.0944 -0.0419,0.54704 -0.34956,0.30934 -0.58726,0.15955 -0.58727,-0.36469 -1.16055,-0.74892 -1.74083,-1.12663 -0.43345,-0.29631 -0.86691,-0.59262 -1.28988,-0.88242 -0.44745,0.29956 -0.83197,0.55355 -1.26193,0.84009 0.34957,0.34841 0.68515,0.68054 1.01723,1.01267 0.15381,0.29956 0.30412,0.60239 0.45793,0.90196 -0.0874,0.0423 -0.17478,0.0847 -0.26217,0.12699 -0.23771,-0.24096 -0.47191,-0.48192 -0.70962,-0.72287 -0.33558,-0.36795 -0.66766,-0.7359 -0.93683,-1.03221 -3.65643,1.36759 -7.35481,1.54017 -11.09513,1.44248 -0.60125,-0.1856 -1.19901,-0.37445 -1.80375,-0.5568 -1.45069,-0.43307 -2.90137,-0.85637 -4.34857,-1.28619 -0.60824,-0.17909 -1.23046,-0.32561 -1.81423,-0.55355 -0.71311,-0.28003 -1.38777,-0.57959 -1.97154,0.19863 -0.0385,0.0521 -0.19226,0.026 -0.52084,0.0586 0.31111,-0.4233 0.52084,-0.70659 0.72359,-0.98662 -0.6362,-0.41027 -1.24794,-0.80427 -1.89463,-1.22432 -0.77603,0.48517 -1.53808,0.96057 -2.29663,1.43597 -0.0629,-0.0749 -0.12235,-0.14978 -0.18527,-0.22467 0.42297,-0.77823 1.3633,-1.04849 2.09388,-1.57924 -0.20624,-0.20189 -0.43346,-0.36795 -0.58027,-0.5796 -0.42647,-0.61542 -0.94033,-0.68054 -1.62198,-0.36144 -1.19201,0.55355 -2.40499,1.06803 -3.61448,1.58901 -0.20974,0.0912 -0.43695,0.14002 -0.65718,0.2084 -0.0385,-0.0879 -0.0804,-0.17584 -0.11885,-0.26375 1.47865,-1.06477 3.25443,-1.61181 4.95331,-2.24676 -1.31436,-2.3249 -1.82821,-4.76377 -1.44719,-7.31661 0.21323,-1.41969 0.67815,-2.80682 1.03121,-4.20697 0,0 -0.003,0.003 -0.003,0.003 0.0559,-0.10746 0.10836,-0.21817 0.16429,-0.32562 0.37753,-0.65775 0.77254,-1.30898 1.1186,-1.98301 0.0734,-0.14327 0.028,-0.49494 -0.0594,-0.53075 -0.17828,-0.0716 -0.49988,-0.0684 -0.63621,0.0423 -1.199,0.97034 -2.4015,1.94067 -3.54107,2.97288 -1.27591,1.16245 -2.42947,2.44538 -3.73683,3.57527 -2.07291,1.79741 -3.94308,3.74785 -5.50563,5.94577 -1.42272,2.00254 -3.17403,3.67947 -5.29937,5.02752 -3.13209,1.98627 -5.54408,4.52608 -7.08215,7.80178 -1.90512,4.06045 -2.79302,8.25113 -2.2442,12.67952 0.28315,2.2956 0.6362,4.58143 0.83546,6.88355 0.12234,1.39689 0.42996,2.69285 1.1186,3.94973 0.69213,1.26665 1.39475,2.55609 1.82122,3.91066 1.31086,4.14184 4.59326,6.48303 8.44195,8.35858 0,0 -0.0105,-0.01 -0.0105,-0.01 0.23071,0.10746 0.45792,0.21166 0.68864,0.31911 l -0.014,-0.01 c 0.11886,0.0488 0.2412,0.10094 0.36005,0.14978 2.3246,1.28945 4.99876,1.30573 7.62747,1.88207 -0.64669,-2.55284 -1.33882,-5.02101 -3.04469,-7.03007 -1.56605,-1.84625 -3.42572,-3.47433 -5.07916,-5.25871 -1.38776,-1.49784 -2.97827,-2.70262 -4.89388,-3.55248 -0.49638,-0.21817 -1.02772,-0.48191 -1.37029,-0.85963 -0.37054,-0.40702 -0.6397,-0.95731 -0.74457,-1.48481 -0.0489,-0.25398 0.38103,-0.58937 0.59426,-0.88568 0.27965,0.20839 0.59076,0.39074 0.82846,0.63495 0.17129,0.17583 0.2412,0.43633 0.35656,0.661 0.67815,0.34841 1.3563,0.69682 2.03795,1.04523 l -0.003,-0.003 c 0.11186,0.0554 0.22372,0.11071 0.33558,0.16606 0.18876,0.1042 0.37753,0.21165 0.56979,0.31585 0.83545,0.71961 1.70936,1.40992 2.49937,2.16861 1.41573,1.36108 2.75456,2.79379 4.17379,4.15161 1.9226,1.83648 3.40474,3.93671 4.10737,6.41466 0.69912,2.45189 1.71635,4.74098 3.08664,6.92587 0.81099,1.2927 1.41923,2.69611 2.17778,4.02137 0.52085,0.90847 1.29338,1.5597 2.48539,1.59878 0.60824,0.0912 1.21648,0.17909 1.9995,0.29631 -0.17827,-0.37121 -0.22372,-0.58286 -0.35655,-0.72287 -0.45443,-0.48517 -0.96829,-0.92801 -1.40175,-1.42946 -0.16779,-0.19537 -0.19226,-0.49819 -0.28315,-0.75217 0.30762,0.0358 0.63621,0.0228 0.91586,0.12699 0.2412,0.0912 0.42996,0.30933 0.6397,0.47214 0.66068,0.70985 1.45418,1.33829 1.55905,2.377 0.014,0.12048 0.30412,0.28655 0.4824,0.30934 0.37403,0.0488 0.76205,0.0163 1.14657,0.0163 1.5206,-0.0879 1.94706,-0.51773 1.8352,-1.83973 -0.0734,-0.8401 -0.80749,-1.17223 -1.40174,-1.62483 -0.18877,-0.14327 -0.27266,-0.41028 -0.402,-0.61868 0.27266,-0.0326 0.57328,-0.14652 0.81448,-0.0781 0.35655,0.10419 0.67116,0.33538 1.00325,0.51447 0.78302,0.59262 1.21298,1.35782 1.199,2.53981 0.60125,-0.84986 0.91236,-1.51086 0.64669,-2.31188 -0.18876,-0.61216 -0.22022,-1.32851 -0.59775,-1.81043 -0.84595,-1.0843 -1.91561,-2.01882 -2.8,-3.08033 -0.8809,-1.055 -1.80725,-2.11977 -2.42947,-3.31153 -0.64669,-1.2406 -1.01373,-2.61796 -1.38776,-3.96601 -0.61524,-2.22071 -1.07666,-4.48049 -1.71636,-6.69794 -0.49638,-1.71274 -1.22697,-3.36688 -1.72684,-5.08288 -0.22023,-0.75217 -0.31111,-1.60203 0.26567,-2.38677 0.29363,0.41353 0.51036,0.84335 0.65368,1.2927 0.25868,0.81404 0.47541,1.64436 0.70961,2.46492 1.56255,3.36362 2.41548,6.88354 2.90837,10.51742 0.402,2.96312 1.79326,5.48339 4.28914,7.47942 0.89838,0.71962 1.66042,1.70949 2.15331,2.71565 0.46142,0.94103 1.00674,1.50435 2.08689,1.61506 0.028,0.003 0.0559,0 0.0839,0 0.36354,0.11396 0.7201,0.26049 1.09413,0.33213 2.2372,0.43632 4.4849,0.83683 6.51586,1.89183 0.0909,0.0488 0.17828,0.0977 0.26916,0.14653 h -0.003 c 0.27965,0.14653 0.5593,0.29631 0.83895,0.44284 l 0.0454,0.0423 0.0664,-0.003 c 0.0734,0.0423 0.14681,0.0847 0.22372,0.12699 l 0.042,0.0391 0.0559,-0.007 c 0.0804,0.0456 0.1608,0.0912 0.24119,0.13676 0.10837,0.0521 0.21673,0.10746 0.3251,0.15956 0.28314,0.14652 0.56629,0.29305 0.84594,0.44283 l 0.0454,0.0423 0.0664,-0.003 c 0.12235,0.0651 0.2447,0.1335 0.36704,0.19863 l -0.0245,-0.0163 c 0.18178,0.10095 0.36005,0.20514 0.54183,0.30608 0.10487,0.0684 0.20624,0.13351 0.31111,0.20189 l 0.007,-0.003 c 0.021,0.0488 0.0559,0.0716 0.11186,0.0716 1.66042,1.16896 2.77553,2.72215 3.70887,4.43164 0.60474,1.10059 1.30736,2.16535 2.0764,3.17477 0.49988,0.65449 1.21648,1.13966 2.16729,1.14617 1.19201,0.11396 2.20575,-0.36795 2.67416,-1.2927 -0.25868,-0.1335 -0.52085,-0.26049 -0.77952,-0.40051 -0.87741,-0.46889 -1.55206,-1.11361 -1.71636,-2.06767 -0.0489,-0.28328 0.19576,-0.61216 0.30412,-0.92149 0.30762,0.15304 0.62572,0.2898 0.91236,0.46563 0.0979,0.0619 0.12584,0.22468 0.18527,0.33864 0.50687,0.82381 1.22697,1.35457 2.28265,1.40015 0.90537,-0.14652 1.08364,-0.86939 1.31435,-1.51086 0.22372,-0.6317 -0.31111,-0.81404 -0.7935,-1.055 -0.75506,-0.3712 -1.05219,-1.11035 -0.76555,-1.77461 0.0629,-0.14327 0.22372,-0.25072 0.33908,-0.37446 0.11885,0.12374 0.27266,0.23119 0.34956,0.37446 0.11885,0.22468 0.10837,0.57634 0.28664,0.69031 0.82148,0.53075 2.02397,0.0781 2.14982,-0.85312 0.0594,-0.43632 -0.0664,-1.07779 -0.38103,-1.33828 -0.72709,-0.60239 -1.59051,-1.08105 -2.45743,-1.50435 -0.52784,-0.25724 -1.18152,-0.28003 -1.74432,-0.48843 -0.26217,-0.0977 -0.44394,-0.38097 -0.66067,-0.58285 0.29014,-0.14653 0.56629,-0.33213 0.87041,-0.42982 0.17478,-0.0586 0.402,0.0195 0.90187,0.0586 -0.85992,-1.96347 -1.64294,-3.73808 -2.41897,-5.5192 -0.17828,-0.40702 -0.42647,-0.80753 -0.4824,-1.23083 -0.13283,-1.03221 -0.63271,-1.51738 -1.77229,-1.85276 -1.33882,-0.394 -2.57628,-1.17874 -3.76479,-1.92114 -1.65344,-1.03221 -3.33134,-1.97324 -5.33783,-2.2435 -0.55231,-0.0749 -1.05568,-0.22794 -1.03121,-0.788 0.028,-0.65449 0.64669,-0.78473 1.18152,-0.64146 1.42622,0.37771 2.82447,0.83683 4.23671,1.26339 0.0839,0.0488 0.16779,0.0977 0.25168,0.14978 z m 66.83299,-0.91824 -0.0105,0.003 c -0.54532,0.17583 -1.10462,0.81404 -1.68839,-0.0781 0.53832,-0.41679 1.05218,-0.81404 1.56604,-1.20804 0.69913,-0.86614 0.60125,-1.51412 -0.35655,-2.04813 -0.34957,-0.19537 -0.75506,-0.39074 -1.15007,-0.4233 -1.32484,-0.11397 -2.66017,-0.22793 -3.98851,-0.20514 -2.82797,0.0488 -5.56505,-0.19863 -8.02947,-1.64111 -0.56629,-0.33213 -1.10113,-0.70659 -1.63596,-1.08105 -3.14956,-2.18489 -6.27466,-4.39908 -9.4417,-6.56118 -2.83146,-1.92765 -5.6839,-3.82925 -8.5643,-5.68853 -3.91511,-2.52678 -8.42098,-3.84228 -12.86742,-5.23592 -1.53808,-0.48191 -3.19151,-0.63495 -5.03371,-0.98661 0.46142,0.86614 0.80399,1.50435 1.14307,2.14255 0.3985,0.8173 0.77603,1.64763 1.2025,2.45516 1.67441,3.17476 3.38377,6.33324 5.0407,9.51778 0.69563,1.34154 1.3633,2.70587 1.89463,4.10603 0.37403,0.98987 0.5593,2.05138 0.71661,3.09661 0.0909,0.61216 0.44744,0.74892 0.98227,0.82707 2.34207,0.33539 4.68065,0.14327 6.98078,-0.21165 3.32434,-0.51122 6.51935,-0.2898 9.64794,0.87916 2.50637,0.93453 5.09663,1.64437 7.78478,1.80718 3.42921,0.20839 6.75705,0.72938 9.99051,1.83322 1.33883,0.45587 2.71261,0.95406 4.20175,0.60891 1.82123,-0.30934 2.89439,-1.40667 2.4819,-2.56912 -0.27615,0.21491 -0.54881,0.42656 -0.81798,0.63495 z m -92.18681,-56.04518 c 0.46841,-0.0749 0.93333,-0.15304 1.40175,-0.22793 0.32859,0.0391 0.66067,0.11396 0.98926,0.10745 3.24395,-0.0684 6.36205,0.35492 9.34033,1.67042 1.94707,0.85963 4.06193,0.90847 6.13484,0.33864 2.27216,-0.62519 4.5618,-0.59914 6.87241,-0.31259 1.42971,0.17909 2.85943,0.36794 4.25768,0.55029 0.0944,-0.12699 0.1573,-0.18235 0.18527,-0.25398 1.49613,-3.67947 2.71261,-7.42732 3.18452,-11.35101 0.10836,-0.89544 0.38452,-1.86253 -0.38802,-2.67006 -0.67116,-0.4754 -1.30387,-0.14001 -1.84569,0.17584 -1.08365,0.63169 -2.12884,1.32851 -3.15306,2.04487 -1.53109,1.07128 -2.95381,2.29886 -4.86592,2.79054 -0.55581,-0.01 -1.12909,0.0619 -1.66043,-0.0456 -2.55181,-0.5275 -5.10012,-0.99964 -7.73933,-0.88893 -0.34606,0.013 -0.82496,-0.12374 -1.0347,-0.35818 -1.73384,-1.91788 -3.34882,-3.93345 -5.14557,-5.79598 -0.92984,-0.96383 -2.15681,-1.67693 -3.25094,-2.50074 -0.81448,-0.41353 -1.38078,-0.11397 -1.62897,0.61867 -0.44394,1.30247 -0.84244,2.62448 -1.17802,3.95299 -0.65019,2.58866 -1.10462,5.21313 -0.53484,7.86365 0.30412,1.41643 0.62572,2.79054 -0.0839,4.1679 -1.6779,2.85566 -1.54857,5.92948 -1.18852,9.00982 0.0944,0.80427 0.40899,1.60854 0.75156,2.36397 0.47541,1.055 0.52785,1.03547 1.65693,0.55355 2.28964,-0.34841 4.51986,-1.06476 6.86193,-1.10709 0.021,0.0879 0.0385,0.17583 0.0594,0.26375 -2.14283,0.44283 -4.28215,0.88567 -6.42498,1.32851 -0.41598,0.0977 -0.83545,0.19537 -1.2759,0.29957 0.94731,1.27316 0.94731,1.27316 1.95406,0.77171 1.76529,-0.52099 3.4362,-1.35782 5.28539,-1.6118 0.035,0.0944 0.0699,0.18886 0.10138,0.28003 -1.57304,0.56006 -3.14957,1.12012 -4.7226,1.67693 -0.34607,0.12699 -0.68864,0.25398 -1.16405,0.42655 0.46492,0.31585 0.8005,0.53402 1.1221,0.76846 0.46492,0.3419 0.8809,0.38423 1.23745,-0.13025 1.17454,-0.72612 2.34907,-1.44899 3.52011,-2.17512 0.0804,0.10746 0.16079,0.21491 0.2377,0.31911 -1.0382,0.7131 -2.0799,1.4262 -3.11811,2.1393 -0.21673,0.12699 -0.42996,0.25398 -0.8774,0.51447 2.31411,0.61216 4.37304,1.19502 6.45643,1.69321 1.13958,0.27352 2.31411,0.40377 3.47466,0.60239 2.97478,0.0879 5.89014,-0.19211 8.78103,-1.11035 -0.91586,-1.12012 -2.14981,-1.84299 -2.9643,-2.89799 0.10138,-0.0912 0.20275,-0.17909 0.30412,-0.27026 1.06967,0.95731 2.13933,1.91137 3.24395,2.90124 0.33908,-0.19862 0.68864,-0.40376 1.08365,-0.63821 -1.63246,-1.02243 -3.13559,-1.96347 -4.6422,-2.9045 0.0839,-0.12048 0.17128,-0.24095 0.25518,-0.36469 1.60799,0.96708 3.21598,1.93742 4.89388,2.94683 0.47541,-0.48842 0.91586,-0.93777 1.4472,-1.48481 -2.20924,-0.69682 -4.28915,-1.35131 -6.36905,-2.0058 0.0489,-0.13676 0.0979,-0.27352 0.14682,-0.41028 2.1603,0.65124 4.3241,1.29922 6.47741,1.95045 1.82122,-2.50725 2.51336,-5.82529 1.78277,-8.83073 -0.30762,1.03546 -0.66068,1.93742 -0.83196,2.87194 -0.36704,2.00906 -1.7618,2.91753 -3.7648,3.19105 -0.65718,0.0912 -1.33882,0.0814 -2.003,0.0391 -3.3558,-0.21816 -5.28539,-1.64437 -6.11036,-4.50654 -0.14332,-0.50145 -0.14332,-1.05174 -0.36355,-1.51412 -0.1573,-0.32887 -0.5593,-0.7424 -0.8809,-0.76845 -0.32509,-0.0228 -0.73757,0.34189 -1.01722,0.62193 -0.19226,0.18885 -0.21324,0.52424 -0.33209,0.78473 -1.60449,3.4548 -3.54457,4.22977 -6.51586,4.11254 -0.58377,-0.0228 -1.18502,-0.0293 -1.74082,-0.17257 -2.74407,-0.70334 -3.9221,-1.59227 -3.98502,-4.07347 -0.028,-1.05174 -0.27266,-2.09697 -0.41948,-3.14546 -0.62921,-0.66751 -0.32859,-1.43923 -0.27965,-2.18489 z m 21.28141,9.79781 c -2.19875,-0.78473 -2.95731,-2.44538 -3.23346,-4.42839 -0.17828,-1.27967 0.13982,-1.81368 1.48914,-2.16535 0.78302,-0.20514 1.58352,-0.36469 2.37353,-0.54378 -0.021,-0.0912 -0.0454,-0.17909 -0.0664,-0.27026 -1.25843,0.26049 -2.53084,0.4754 -3.77179,0.7945 -1.02073,0.26375 -1.3598,0.86289 -1.2025,1.82671 0.042,0.25724 0.0839,0.51122 0.11536,0.76846 0.28314,2.34119 1.94706,3.93996 4.29613,4.01811 z m -15.95407,-8.40417 c -2.28264,-0.24096 -3.0377,0.27678 -3.46417,2.56912 -0.5593,2.98265 0.78652,4.29163 4.15281,4.60096 -2.53433,-0.52424 -3.39426,-2.08069 -3.06916,-4.28837 0.19226,-1.33828 0.53833,-2.65052 2.38052,-2.88171 z"
     name="Layer %{number}"
     style="fill:#141112;stroke-width:0.337378"
     zoom="1"
     data-layer-id="1371761669195"
     id="path4" /><path
     fill="#D0A8BC"
     d="m 143.85845,245.08878 c -0.21324,-0.16281 -0.39851,-0.38423 -0.63971,-0.47214 -0.27965,-0.1042 -0.60824,-0.0912 -0.91585,-0.12699 0.0909,0.25398 0.11186,0.5568 0.28314,0.75217 0.43696,0.50145 0.94732,0.94103 1.40175,1.42946 0.13284,0.14327 0.17828,0.35492 0.35656,0.72287 -0.78302,-0.11722 -1.39126,-0.20514 -1.9995,-0.29631 -0.402,-0.58937 -0.84944,-1.15594 -1.19551,-1.77136 -0.86342,-1.54017 -1.71286,-3.09336 -2.50287,-4.66609 -0.61174,-1.21455 -1.16055,-2.45841 -1.67791,-3.70877 -0.52085,-1.25689 -0.92284,-2.5561 -1.45418,-3.80647 -0.8809,-2.07418 -2.56579,-3.6176 -4.13184,-5.23266 -0.8774,-0.90521 -1.76879,-1.80066 -2.69163,-2.66355 -0.97878,-0.91172 -1.96105,-1.82996 -3.03072,-2.644 -0.51036,-0.38749 -1.22696,-0.53402 -1.84919,-0.79125 -0.18876,-0.1042 -0.37752,-0.21165 -0.56978,-0.31585 -0.11186,-0.0554 -0.22372,-0.11071 -0.33558,-0.16607 0,0 0.003,0.003 0.003,0.003 -0.18527,-0.33864 -0.32859,-0.70333 -0.56629,-1.00616 -0.20974,-0.27026 -0.48589,-0.57308 -0.8005,-0.66426 -0.14332,-0.0391 -0.44395,0.40051 -0.67116,0.62519 -0.11536,-0.22142 -0.18527,-0.48517 -0.35656,-0.661 -0.2377,-0.24422 -0.54881,-0.42656 -0.82846,-0.63496 -0.21324,0.29957 -0.6432,0.63496 -0.59426,0.88568 0.10487,0.52425 0.37403,1.07454 0.74457,1.48482 0.34257,0.37771 0.87391,0.6382 1.37029,0.85962 1.9156,0.84986 3.50612,2.05465 4.89388,3.55248 1.65344,1.78438 3.51311,3.41247 5.07916,5.25872 1.70587,2.00905 2.398,4.47397 3.04469,7.03007 -2.62871,-0.57635 -5.30287,-0.59263 -7.62747,-1.88207 -0.11885,-0.0488 -0.2412,-0.10094 -0.36005,-0.14978 0,0 0.014,0.01 0.014,0.01 -0.23072,-0.10745 -0.45793,-0.21165 -0.68864,-0.3191 0,0 0.0105,0.01 0.0105,0.01 -0.60125,-0.47215 -1.18152,-0.97034 -1.80374,-1.40992 -2.03446,-1.43923 -3.65993,-3.14546 -4.57229,-5.42478 -0.72709,-1.82345 -1.66043,-3.57202 -2.39101,-5.39222 -0.38103,-0.9508 -0.59076,-1.97975 -0.75506,-2.98916 -0.18177,-1.12338 -0.18177,-2.26955 -0.33208,-3.39618 -0.19576,-1.48807 -0.58028,-2.95986 -0.66068,-4.45119 -0.12584,-2.33141 -0.11885,-4.6726 0.47541,-6.9682 1.31086,-5.06334 3.67041,-9.47545 8.42447,-12.56881 1.64644,-1.07128 3.19501,-2.36723 4.4849,-3.79995 2.01698,-2.23699 3.6774,-4.75075 5.96005,-6.79562 1.68489,-1.51087 3.30687,-3.0836 4.97079,-4.61399 0.22372,-0.20514 0.53483,-0.33539 0.80399,-0.4982 -0.35305,1.40015 -0.81797,2.78728 -1.03121,4.20697 -0.38452,2.55284 0.13284,4.99171 1.44719,7.31661 -1.69538,0.63496 -3.47116,1.17874 -4.95331,2.24676 0.0385,0.0879 0.0804,0.17583 0.11886,0.26375 0.22022,-0.0684 0.45093,-0.11722 0.65717,-0.2084 1.20949,-0.52098 2.42248,-1.03546 3.61449,-1.58901 0.68165,-0.31584 1.1955,-0.25072 1.62197,0.36144 0.14682,0.21165 0.37403,0.37771 0.58028,0.5796 -0.73059,0.53075 -1.66742,0.80101 -2.09389,1.57924 0.0629,0.0749 0.12235,0.14978 0.18527,0.22467 0.75855,-0.4754 1.5206,-0.94754 2.29663,-1.43597 0.64669,0.41679 1.25843,0.81405 1.89463,1.22432 -0.20624,0.28003 -0.41598,0.56658 -0.72359,0.98662 0.32859,-0.0326 0.4824,-0.007 0.52085,-0.0586 0.58027,-0.77822 1.25493,-0.47865 1.97153,-0.19862 0.58377,0.22793 1.206,0.37446 1.81424,0.55354 1.45068,0.42982 2.90137,0.85638 4.34856,1.28619 0.60125,0.17909 1.2025,0.3712 1.80375,0.55681 0.35306,0.17257 0.70612,0.49168 1.06267,0.49493 2.14632,0.0293 4.30313,0.0879 6.43896,-0.0716 1.52409,-0.11071 3.02022,-0.54704 4.52684,-0.83684 0.2377,0.24096 0.47191,0.48192 0.70961,0.72287 0.0874,-0.0423 0.17479,-0.0847 0.26218,-0.12699 -0.15381,-0.29957 -0.30412,-0.60239 -0.45793,-0.90196 0.51036,-0.32561 1.02072,-0.64797 1.53458,-0.97359 0.58028,0.37771 1.15356,0.76194 1.74083,1.12663 0.2377,0.14979 0.54881,0.38749 0.58726,-0.15955 0.0559,0 0.11186,0 0.16779,0 2.69863,2.90776 5.57903,5.68853 8.03646,8.76561 1.80375,2.25978 3.10412,4.88099 4.53384,7.38824 2.13583,3.74134 3.86966,7.67805 6.38302,11.2403 1.2829,1.8202 1.80375,3.9302 2.14282,6.06624 0.0804,0.51773 0.0315,1.05174 0.0524,1.57599 0.003,0.11722 0.0105,0.27677 0.0874,0.34515 0.88789,0.77497 0.70262,1.78764 0.72709,2.75798 -0.58377,-0.67403 -0.89139,-0.95732 -1.50312,-0.15956 -0.13284,-0.19211 -0.22372,-0.42655 -0.402,-0.56657 -0.25868,-0.20514 -0.58027,-0.3419 -0.87391,-0.50796 -0.0559,0.29957 -0.11535,0.59588 -0.17128,0.89545 -1.18153,-0.28329 -1.18153,-0.28329 -1.30038,0.58611 -0.35655,-0.65449 -0.4824,-1.52389 -1.58352,-1.48482 -0.12584,-0.27026 -0.37054,-0.54703 -0.36005,-0.81078 0.0979,-2.59191 -0.65368,-4.9331 -2.42247,-6.93564 -1.9261,-2.18164 -3.45718,-4.54236 -4.4045,-7.25149 -0.34257,-0.98662 -0.91586,-1.96673 -1.63596,-2.75472 -0.80749,-0.88568 -1.9191,-1.51737 -2.17078,-2.79054 -0.0524,-0.27677 -0.34258,-0.53075 -0.56979,-0.75543 -0.67116,-0.65123 -1.30387,-1.35456 -2.06592,-1.89834 -0.7236,-0.51448 -1.36679,-1.26014 -2.43995,-1.18525 -0.0804,-0.0488 -0.1608,-0.0977 -0.2377,-0.14653 -0.0874,-0.0586 -0.17479,-0.11396 -0.26218,-0.17257 -1.76879,-0.83684 -3.59001,-1.51087 -5.61748,-1.40667 -0.51036,0.026 -1.01373,0.19863 -1.5206,0.30608 0.0105,0.0879 0.0245,0.17583 0.035,0.26049 0.61523,0.0651 1.23046,0.12699 1.84569,0.19212 -0.21323,0.36794 -0.12934,0.60239 0.34607,0.63169 0.96479,0.0554 1.92959,0.0977 2.89438,0.14328 2.24769,0.87591 3.97454,2.28583 5.32036,4.43815 -1.19202,-0.22793 -2.14982,-0.44609 -3.11811,-0.58936 -3.61448,-0.53727 -7.14507,-0.29957 -10.51486,1.12663 -0.3181,0.1335 -0.56979,0.40377 -0.8005,0.7131 1.16405,0.43633 1.99251,-0.52424 3.02372,-0.53401 -0.45443,0.35818 -0.90537,0.71636 -1.38077,1.09082 0.53133,0.58285 1.02771,0.29305 1.45068,0.12699 2.83496,-1.1071 5.7678,-1.45225 8.809,-1.04849 0.90187,0.12048 1.81074,0.2084 2.7161,0.31259 1.1221,0.32562 1.95756,1.02895 2.47491,1.95371 0.59426,1.06151 1.05918,2.1914 1.48565,3.32454 0.58726,1.56297 1.49613,2.93381 2.56929,4.23302 1.28289,1.5532 2.77902,3.02824 3.16005,5.0373 0.29013,1.52063 0.35306,3.08033 0.47191,4.62701 0.014,0.16281 -0.24819,0.42656 -0.44744,0.50471 -0.50687,0.19863 -1.03821,0.39074 -1.57653,0.45586 -2.3246,0.29306 -4.09689,1.44574 -5.71536,2.94684 -0.65019,0.59913 -1.53109,0.9801 -2.31062,1.45876 -0.0419,0.0195 -0.0839,0.0456 -0.12234,0.0684 -0.12235,0.0195 -0.2412,0.0423 -0.36355,0.0619 -1.4367,-1.04198 -2.85243,-2.11326 -4.3241,-3.1129 -0.44744,-0.30283 -1.05218,-0.40377 -1.58352,-0.59914 -0.0524,0.01 -0.0944,-0.003 -0.12584,-0.0456 -0.0594,-0.0391 -0.11536,-0.0814 -0.17478,-0.12048 0,0 0.0105,0.007 0.0105,0.007 -0.0839,-0.0488 -0.1678,-0.0977 -0.25169,-0.14978 -1.40874,-0.42656 -2.81049,-0.88568 -4.23671,-1.2634 -0.53483,-0.14327 -1.15356,-0.013 -1.18152,0.64147 -0.0245,0.5568 0.47541,0.7131 1.03121,0.78799 2.00649,0.27026 3.6844,1.2113 5.33783,2.2435 1.18852,0.74241 2.42597,1.52389 3.7648,1.92114 1.13957,0.33539 1.63595,0.82056 1.77228,1.85276 0.0559,0.4233 0.30412,0.82707 0.4824,1.23083 0.77603,1.77787 1.55905,3.55574 2.41898,5.51921 -0.49988,-0.0391 -0.7236,-0.11397 -0.90188,-0.0586 -0.30761,0.10094 -0.58377,0.28329 -0.87041,0.42981 0.21673,0.19863 0.3985,0.48517 0.66068,0.58286 0.56279,0.20839 1.21648,0.23119 1.74432,0.48842 0.86691,0.42331 1.73034,0.90196 2.45743,1.50435 0.3146,0.2605 0.44045,0.90196 0.38102,1.33829 -0.12584,0.93126 -1.32834,1.38713 -2.14981,0.85312 -0.17828,-0.11397 -0.16779,-0.46889 -0.28664,-0.69031 -0.0769,-0.14327 -0.23072,-0.25073 -0.34957,-0.37446 -0.11535,0.12373 -0.27615,0.23119 -0.33907,0.37446 -0.28665,0.66751 0.0105,1.40341 0.76554,1.77461 0.4824,0.2377 1.01723,0.4233 0.79351,1.055 -0.22722,0.64146 -0.4055,1.36433 -1.31436,1.51086 -0.12934,-0.19537 -0.27266,-0.38423 -0.39151,-0.58285 -0.65368,-1.10385 -0.65019,-1.10385 -1.89463,-0.81405 -0.0594,-0.11722 -0.0874,-0.28003 -0.18527,-0.33864 -0.29014,-0.17583 -0.60824,-0.31259 -0.91236,-0.46563 -0.10837,0.30934 -0.35306,0.63821 -0.30412,0.9215 0.16429,0.95405 0.83895,1.59878 1.71635,2.06766 0.25868,0.13676 0.52085,0.26701 0.77953,0.40051 -0.46492,0.92475 -1.48215,1.40667 -2.67416,1.2927 -0.77603,-1.12989 -1.601,-2.23373 -2.31411,-3.39618 -0.92634,-1.51087 -1.74082,-3.09336 -3.25094,-4.19069 -0.70961,-0.51448 -1.32834,-1.25688 -2.38751,-1.16245 -0.0559,0 -0.0944,-0.0228 -0.11186,-0.0716 0.0315,-0.0358 0.0664,-0.0716 0.22022,-0.24096 -0.1608,0.16932 -0.19575,0.20514 -0.23071,0.24422 -0.10487,-0.0684 -0.20624,-0.13351 -0.31111,-0.20189 -0.18177,-0.10094 -0.36005,-0.20514 -0.54182,-0.30608 0,0 0.0245,0.0163 0.0245,0.0163 -0.12235,-0.0651 -0.2447,-0.1335 -0.36705,-0.19862 l -0.0664,0.003 c 0,0 -0.0455,-0.0423 -0.0455,-0.0423 -0.28314,-0.14652 -0.56629,-0.29305 -0.84594,-0.44284 -0.10836,-0.0521 -0.21673,-0.10745 -0.32509,-0.15955 -0.0804,-0.0456 -0.1608,-0.0912 -0.2412,-0.13676 l -0.0559,0.007 c 0,0 -0.042,-0.0391 -0.042,-0.0391 -0.0734,-0.0423 -0.14682,-0.0847 -0.22372,-0.12699 l -0.0664,0.003 c 0,0 -0.0454,-0.0423 -0.0454,-0.0423 -0.27965,-0.14653 -0.5593,-0.29631 -0.83895,-0.44284 0,0 0.003,0 0.003,0 -0.0909,-0.0488 -0.17827,-0.0977 -0.26916,-0.14653 -2.03096,-1.055 -4.27865,-1.45551 -6.51586,-1.89183 -0.37403,-0.0716 -0.72709,-0.21817 -1.09413,-0.33213 -0.18877,-1.21455 -0.94732,-2.13605 -1.81074,-2.98917 -0.83895,-0.83032 -1.75481,-1.60203 -2.53783,-2.47143 -1.76879,-1.96672 -2.23021,-4.39583 -2.69513,-6.82818 -0.36704,-1.92766 -0.70612,-3.86833 -1.25493,-5.75365 -0.62922,-2.16536 -1.46118,-4.27861 -2.22672,-6.40815 -0.12934,-0.35817 -0.38452,-0.67402 -0.58028,-1.00941 -0.0944,0.0228 -0.18876,0.0456 -0.28664,0.0651 -0.0559,0.31259 -0.1573,0.62518 -0.1608,0.94103 -0.014,0.70984 0.0175,1.41969 0.0315,2.12953 -0.2342,-0.82381 -0.45093,-1.65087 -0.70961,-2.46492 -0.14332,-0.44935 -0.36005,-0.87916 -0.65368,-1.2927 -0.57678,0.78474 -0.4859,1.6346 -0.26567,2.38678 0.49638,1.71274 1.23046,3.36687 1.72684,5.08288 0.6397,2.21419 1.10113,4.47397 1.71636,6.69794 0.37403,1.34805 0.74107,2.72541 1.38776,3.96601 0.61873,1.19176 1.54857,2.25652 2.42947,3.31152 0.88789,1.06151 1.95406,1.99603 2.8,3.08034 0.37753,0.48191 0.40899,1.19827 0.59775,1.81043 -0.042,0.53727 -0.3216,0.20514 -0.54532,0.13676 -0.42996,-0.13025 -0.86691,-0.24422 -1.30037,-0.36144 -0.33209,-0.17909 -0.64669,-0.41027 -1.00325,-0.51447 -0.2412,-0.0684 -0.54182,0.0456 -0.81448,0.0781 0.12934,0.20839 0.21323,0.4754 0.402,0.61867 0.59426,0.45261 1.32834,0.78148 1.40175,1.62483 0.11186,1.322 -0.31461,1.75182 -1.83521,1.83973 -0.0979,-0.98662 -0.92634,-1.52714 -1.55556,-2.18163 -0.40899,-0.43307 -0.89837,-0.83032 -1.61847,-0.52099 z"
     name="Layer %{number}"
     style="fill:#f5f5f5;fill-opacity:1;stroke-width:0.337378"
     zoom="1"
     data-layer-id="7413885269195"
     id="path6" /><path
     fill="#D0A8BC"
     d="m 232.52166,234.36296 c -1.49263,0.34841 -2.86642,-0.15304 -4.20175,-0.6089 -3.23346,-1.10384 -6.5613,-1.62483 -9.99051,-1.83323 -2.68815,-0.1628 -5.28191,-0.87265 -7.78478,-1.80717 -3.12859,-1.16896 -6.3236,-1.39364 -9.64794,-0.87916 -2.30013,0.35492 -4.63871,0.54703 -6.98078,0.21165 -0.53833,-0.0781 -0.89139,-0.21491 -0.98227,-0.82707 -0.15731,-1.04523 -0.34258,-2.10674 -0.71661,-3.09662 -0.53133,-1.40341 -1.199,-2.76774 -1.89463,-4.10603 -1.65343,-3.18453 -3.3628,-6.34301 -5.0407,-9.51778 -0.42647,-0.80753 -0.804,-1.63459 -1.2025,-2.45515 0.50337,0.0293 1.02422,-0.007 1.50662,0.10094 4.39401,0.97034 8.67616,2.29234 12.62273,4.35024 2.78252,1.45225 5.44969,3.11616 8.07141,4.81262 2.13933,1.38713 4.12135,2.98265 6.19776,4.45118 2.09738,1.48807 4.26117,2.89799 6.33758,4.40886 2.36305,1.71925 4.97079,2.70262 7.99101,2.67657 1.3668,-0.013 2.73708,-0.0521 4.10038,0.013 1.10112,0.0521 2.22672,0.14327 3.10063,0.91173 -0.51386,0.39725 -1.02422,0.79125 -1.56605,1.20804 0.58377,0.89219 1.14307,0.25398 1.68839,0.0781 -0.25168,0.32561 -0.49288,0.65774 -0.75855,0.97033 -0.27266,0.32237 -0.56629,0.62519 -0.84944,0.93778 z"
     name="Layer %{number}"
     style="fill:#f5f5f5;fill-opacity:1;stroke-width:0.337378"
     zoom="1"
     data-layer-id="6079396569195"
     id="path8" /><path
     fill="#CFA8BC"
     d="m 173.92438,164.2609 c 0.77603,0.80427 0.49638,1.77136 0.38801,2.67006 -0.4754,3.92368 -1.68839,7.67479 -3.18452,11.351 -0.028,0.0716 -0.0909,0.12699 -0.18527,0.25399 -1.39825,-0.18235 -2.82796,-0.37121 -4.25768,-0.5503 -2.31061,-0.2898 -4.59675,-0.31259 -6.87241,0.31259 -2.07291,0.56983 -4.18777,0.52099 -6.13483,-0.33864 -2.97828,-1.31875 -6.09639,-1.73879 -9.34033,-1.67041 -0.32859,0.007 -0.66068,-0.0716 -0.98927,-0.10745 0.36355,-1.16571 0.37054,-2.29886 0.0559,-3.51016 -0.45443,-1.76484 -0.58726,-3.60457 -0.17478,-5.39547 0.58727,-2.54632 1.32135,-5.06334 1.99601,-7.59338 1.09413,0.82706 2.3211,1.54016 3.25094,2.50073 1.79675,1.86253 3.41173,3.8781 5.14557,5.79599 0.20973,0.23118 0.69213,0.3712 1.0347,0.35817 2.63921,-0.11071 5.18752,0.36144 7.73933,0.88894 0.53134,0.11071 1.10462,0.0358 1.66043,0.0456 1.35281,0.14328 2.54482,-0.25072 3.65643,-0.94103 0.23421,-0.14653 0.54532,-0.18886 0.81798,-0.27677 -0.67116,0.62193 -1.34233,1.24385 -2.00999,1.86904 -0.35306,0.32887 -0.44045,0.64146 0.0874,0.92475 0.82147,-0.66426 1.62197,-1.30572 2.41898,-1.9537 1.0347,-0.84335 2.10437,-1.6118 3.53059,-1.82346 0.20973,-0.0326 0.36005,-0.41679 0.53832,-0.64146 -0.25518,-0.14327 -0.53133,-0.43633 -0.75855,-0.40377 -0.56979,0.0781 -1.11511,0.30283 -1.66742,0.46889 0.0664,-0.13676 0.0909,-0.32887 0.20275,-0.39725 1.01024,-0.62844 2.03446,-1.23083 3.05169,-1.83648 z m -22.81599,4.32094 c -0.0455,-0.026 -0.0874,-0.0521 -0.13284,-0.0781 -0.0245,-0.20514 -0.028,-0.41679 -0.0769,-0.61542 -0.67466,-2.70587 -2.78602,-4.39908 -4.91486,-6.08252 -0.021,-0.0163 -0.0524,-0.0326 -0.0769,-0.0293 -0.22372,0.0228 -0.44745,0.0488 -0.67117,0.0749 0.0315,0.2149 -0.021,0.50145 0.10837,0.6382 0.66067,0.70008 1.34931,1.37736 2.05893,2.03511 1.23395,1.14617 1.96454,2.54632 2.4784,4.07347 0.11885,0.35166 0.38102,0.66426 0.57328,0.99639 0.22023,-0.33865 0.43696,-0.67403 0.65369,-1.01267 z"
     name="Layer %{number}"
     style="fill:#f5f5f5;fill-opacity:1;stroke-width:0.337378"
     zoom="1"
     data-layer-id="1475549869195"
     id="path10" /><path
     fill="#CDA6BA"
     d="m 142.21899,178.59781 c 0.14682,1.04849 0.39501,2.09372 0.41948,3.14546 0.0629,2.47795 1.24444,3.37014 3.98502,4.07347 0.55581,0.14327 1.16055,0.14978 1.74083,0.17258 2.97128,0.11396 4.91136,-0.65775 6.51585,-4.11255 0.12235,-0.26049 0.13983,-0.59587 0.33209,-0.78473 0.27965,-0.27678 0.69213,-0.64472 1.01723,-0.62193 0.3216,0.0228 0.72359,0.43633 0.8809,0.76846 0.22022,0.46237 0.22022,1.01266 0.36354,1.51411 0.82497,2.85892 2.75456,4.28838 6.11037,4.50654 0.66417,0.0423 1.34582,0.0488 2.003,-0.0391 2.00299,-0.27352 3.39425,-1.18199 3.76479,-3.19105 0.17129,-0.93452 0.52435,-1.83648 0.83196,-2.87194 0.73059,3.0087 0.0384,6.32348 -1.78277,8.83073 -2.15331,-0.64798 -4.31711,-1.29921 -6.47741,-1.95044 -0.0489,0.13676 -0.0979,0.27351 -0.14681,0.41027 2.0799,0.65449 4.1598,1.31224 6.36904,2.0058 -0.53134,0.54378 -0.97179,0.99639 -1.44719,1.48482 -1.67791,-1.00942 -3.2859,-1.9765 -4.89389,-2.94684 -0.0839,0.12048 -0.17128,0.24096 -0.25518,0.36469 1.50312,0.94104 3.00974,1.88207 4.6422,2.90451 -0.39501,0.23119 -0.74807,0.43958 -1.08365,0.63821 -1.10462,-0.98988 -2.17428,-1.94719 -3.24394,-2.90125 -0.10138,0.0912 -0.20275,0.17909 -0.30412,0.27026 0.81797,1.055 2.05193,1.77787 2.96429,2.89799 -2.88739,0.91824 -5.80624,1.19827 -8.78103,1.11036 -1.50312,-0.41028 -3.02372,-0.77823 -4.50936,-1.23735 -1.53109,-0.4754 -3.03071,-1.04523 -4.54432,-1.57273 1.0382,-0.7131 2.0799,-1.4262 3.1181,-2.1393 -0.0804,-0.10745 -0.1608,-0.21491 -0.2377,-0.31911 -1.17453,0.72613 -2.34907,1.449 -3.5201,2.17513 -0.39851,-0.35493 -0.79701,-0.70985 -1.19551,-1.06477 1.57303,-0.56006 3.14957,-1.12012 4.7226,-1.67693 -0.035,-0.0944 -0.0699,-0.18886 -0.10137,-0.28003 -1.84919,0.25724 -3.51661,1.09407 -5.2854,1.6118 -0.22722,-0.35492 -0.45094,-0.7131 -0.67815,-1.06802 2.14282,-0.44284 4.28215,-0.88568 6.42497,-1.32852 -0.021,-0.0879 -0.0385,-0.17583 -0.0594,-0.26375 -2.33857,0.0456 -4.56879,0.75869 -6.86192,1.1071 -0.17828,-0.37771 -0.3985,-0.7424 -0.52784,-1.13315 -0.90537,-2.81333 -0.85643,-5.64294 -0.26917,-8.48883 z m 13.12261,11.46823 c 0.10487,0.1042 0.21323,0.21491 0.32859,0.32562 1.30736,1.28618 3.2789,1.21455 4.41498,-0.21491 0.19925,-0.25073 0.12584,-0.69031 0.17828,-1.04523 -0.37404,0.0228 -0.77603,-0.026 -1.11511,0.0912 -0.37753,0.13025 -0.67116,0.47866 -1.04869,0.60891 -0.64669,0.22793 -1.16404,-0.0782 -1.46816,-0.59263 -0.32859,-0.55355 0.18526,-0.75543 0.58726,-0.99964 0.41598,-0.25398 0.83196,-0.5275 1.19201,-0.84661 0.37753,-0.33212 0.70612,-0.78799 0.23771,-1.21455 -0.52085,-0.47214 -0.804,0.0391 -1.11861,0.36469 -1.13608,1.16897 -2.06592,1.16897 -3.12859,-0.003 -0.33558,-0.3712 -0.72359,-0.64472 -1.21648,-0.32887 -0.49288,0.31259 -0.30761,0.77496 -0.028,1.10058 0.52085,0.61216 1.1151,1.16897 1.6779,1.74856 -0.94732,1.2634 -2.34207,0.51122 -3.64594,0.45912 0.70961,1.31875 1.8387,1.44249 4.15281,0.54704 z"
     name="Layer %{number}"
     style="fill:#f5f5f5;fill-opacity:1;stroke-width:0.337378"
     zoom="1"
     data-layer-id="7707271669195"
     id="path12" /><path
     fill="#DAC0CD"
     d="m 140.18454,177.42559 c -0.26917,0.16281 -0.57678,0.2898 -0.804,0.4982 -1.66392,1.53039 -3.28589,3.10312 -4.97079,4.61399 -2.28614,2.04487 -3.94307,4.55863 -5.96005,6.79562 -1.28989,1.42946 -2.83846,2.72867 -4.4849,3.79995 -4.75406,3.09336 -7.11361,7.50547 -8.42447,12.56881 -0.59426,2.29886 -0.60475,4.64004 -0.47541,6.9682 0.0804,1.49133 0.46842,2.96312 0.66068,4.45119 0.14681,1.12663 0.15031,2.27606 0.33208,3.39618 0.1643,1.00941 0.37054,2.03836 0.75506,2.98916 0.73059,1.8202 1.66392,3.57202 2.39101,5.39222 0.90887,2.27932 2.53783,3.98555 4.57229,5.42478 0.62572,0.44284 1.20599,0.93777 1.80374,1.40992 -3.84519,-1.87881 -7.13109,-4.21674 -8.44195,-8.35859 -0.42996,-1.35456 -1.12909,-2.64726 -1.82122,-3.91066 -0.68864,-1.25362 -0.99626,-2.55283 -1.1186,-3.94973 -0.20275,-2.29885 -0.55231,-4.58794 -0.83546,-6.88354 -0.54882,-4.42513 0.33908,-8.61582 2.2442,-12.67952 1.53807,-3.27571 3.95006,-5.81552 7.08215,-7.80178 2.12884,-1.34806 3.88015,-3.02498 5.29937,-5.02753 1.55906,-2.19791 3.42922,-4.14836 5.50563,-5.94576 1.30736,-1.12989 2.45742,-2.41282 3.73683,-3.57528 1.13608,-1.0322 2.34207,-2.00254 3.54107,-2.97288 0.13633,-0.11071 0.45793,-0.11071 0.63621,-0.0423 0.0909,0.0358 0.13633,0.38423 0.0594,0.53076 -0.34606,0.67402 -0.74107,1.32526 -1.1186,1.983 -0.0559,0.10746 -0.10836,0.21817 -0.16429,0.32562 z"
     name="Layer %{number}"
     style="fill:#d9d9d9;fill-opacity:1;stroke-width:0.337378"
     zoom="1"
     data-layer-id="4347821369195"
     id="path14" /><path
     fill="#DAC0CD"
     d="m 234.00731,231.16866 c -0.87391,-0.76846 -2.003,-0.85963 -3.10063,-0.91173 -1.3633,-0.0651 -2.73358,-0.026 -4.10038,-0.013 -3.02022,0.026 -5.63146,-0.95732 -7.99101,-2.67657 -2.07641,-1.51087 -4.2402,-2.92404 -6.33758,-4.40886 -2.07641,-1.47178 -4.05843,-3.06731 -6.19776,-4.45118 -2.62172,-1.69972 -5.28889,-3.36037 -8.07141,-4.81262 -3.94657,-2.0579 -8.22523,-3.37664 -12.62273,-4.35024 -0.4824,-0.10745 -1.00325,-0.0716 -1.50662,-0.10094 -0.33908,-0.63821 -0.68165,-1.27642 -1.14307,-2.14256 1.8422,0.34841 3.49563,0.50471 5.03371,0.98662 4.44644,1.39364 8.95231,2.70913 12.86742,5.23592 2.8839,1.85927 5.73633,3.76088 8.5643,5.68853 3.16704,2.15884 6.29563,4.37303 9.4417,6.56118 0.53483,0.3712 1.06967,0.74892 1.63596,1.08105 2.46442,1.44248 5.2015,1.6932 8.02947,1.6411 1.32834,-0.0228 2.66367,0.0912 3.98851,0.20514 0.39501,0.0326 0.8005,0.22794 1.15007,0.42331 0.9578,0.53075 1.05568,1.17873 0.36005,2.04487 z"
     name="Layer %{number}"
     style="fill:#d9d9d9;fill-opacity:1;stroke-width:0.337378"
     zoom="1"
     data-layer-id="2791288869195"
     id="path16" /><path
     fill="#D9BCCA"
     d="m 141.71562,221.79741 c -0.014,-0.70985 -0.0454,-1.41969 -0.0315,-2.12954 0.007,-0.31259 0.10487,-0.62518 0.1608,-0.94103 0.0944,-0.0228 0.18877,-0.0456 0.28664,-0.0651 0.19576,0.33539 0.45094,0.65124 0.58028,1.00942 0.76904,2.12953 1.601,4.24279 2.22672,6.40814 0.54531,1.88532 0.88789,3.826 1.25493,5.75365 0.46142,2.43236 0.92634,4.86471 2.69513,6.82818 0.78652,0.87266 1.69888,1.64111 2.53783,2.47144 0.86342,0.85637 1.62197,1.77461 1.81074,2.98916 -0.028,0 -0.0559,0.003 -0.0839,0 -1.08015,-0.11071 -1.62547,-0.67403 -2.08689,-1.61506 -0.49289,-1.00616 -1.25493,-1.99603 -2.15331,-2.71565 -2.49588,-1.99603 -3.88714,-4.5163 -4.28914,-7.47942 -0.48939,-3.62737 -1.34582,-7.15054 -2.90837,-10.51416 z"
     name="Layer %{number}"
     style="fill:#d9d9d9;fill-opacity:1;stroke-width:0.337378"
     zoom="1"
     data-layer-id="7645609669195"
     id="path18" /><path
     fill="#D9BDCB"
     d="m 170.90066,207.12511 c 1.06966,-0.0749 1.71635,0.67077 2.43995,1.18524 0.76205,0.54378 1.39476,1.24712 2.06592,1.89835 0.22721,0.22142 0.51735,0.47866 0.56978,0.75543 0.24819,1.27642 1.3633,1.90812 2.17079,2.79054 0.71661,0.78799 1.28989,1.7681 1.63596,2.75472 0.94731,2.70913 2.4784,5.06985 4.40449,7.25149 1.76879,2.00254 2.52036,4.34372 2.42248,6.93564 -0.0105,0.267 0.23421,0.54052 0.36005,0.81078 -0.0315,0.15304 -0.0594,0.30608 -0.0909,0.45912 0.12584,0.82707 0.25518,1.65739 0.38103,2.48446 -1.16755,0.0391 -1.69189,-0.35818 -2.03446,-1.54668 0.17478,-0.24421 0.49288,-0.48192 0.49987,-0.72938 0.0175,-0.77172 -0.0454,-1.5532 -0.15031,-2.32165 -0.12584,-0.94429 -0.22372,-1.91137 -0.53134,-2.81008 -0.22022,-0.64797 -0.75505,-1.19827 -1.15006,-1.79415 0,0 0.004,0.007 0.004,0.007 -0.0559,-0.10746 -0.11536,-0.21491 -0.17129,-0.32236 0,0 0.007,0.007 0.007,0.007 -0.0629,-0.1042 -0.12584,-0.2084 -0.18876,-0.31259 -1.2025,-1.55645 -2.51336,-3.05103 -3.56904,-4.68889 -0.804,-1.24711 -1.33883,-2.65703 -1.90512,-4.02462 -0.62922,-1.52714 -1.3633,-2.95335 -2.94682,-3.83577 -0.17478,-0.0977 -0.36355,-0.28654 -0.40549,-0.46563 -0.44744,-1.86253 -1.91561,-2.99242 -3.37329,-4.13208 -0.15031,-0.12048 -0.29713,-0.2377 -0.44394,-0.35492 z"
     name="Layer %{number}"
     style="fill:#d9d9d9;fill-opacity:1;stroke-width:0.337378"
     zoom="1"
     data-layer-id="9387852669195"
     id="path20" /><path
     fill="#D9BECB"
     d="m 123.81099,221.81694 c 0.62223,0.25724 1.33883,0.40377 1.84919,0.79125 1.06967,0.81404 2.05194,1.73228 3.03072,2.64401 0.92634,0.86289 1.81423,1.75833 2.69163,2.66355 1.56605,1.6118 3.24745,3.15848 4.13184,5.23266 0.53134,1.25037 0.93683,2.54958 1.45418,3.80646 0.51736,1.25037 1.06617,2.49423 1.67791,3.70878 0.79351,1.57273 1.64294,3.12592 2.50287,4.66609 0.34607,0.61541 0.79351,1.18199 1.19551,1.77135 -1.19201,-0.0423 -1.96455,-0.6903 -2.4854,-1.59877 -0.75855,-1.32527 -1.36679,-2.72867 -2.17778,-4.02137 -1.37028,-2.18489 -2.38751,-4.47398 -3.08664,-6.92587 -0.70612,-2.47795 -2.18477,-4.57492 -4.10737,-6.41466 -1.41923,-1.35782 -2.75805,-2.78728 -4.17378,-4.15161 -0.79351,-0.7652 -1.66742,-1.45225 -2.50288,-2.17187 z"
     name="Layer %{number}"
     style="fill:#f5f5f5;fill-opacity:1;stroke-width:0.337378"
     zoom="1"
     data-layer-id="0714681369195"
     id="path22" /><path
     fill="#D8BECB"
     d="m 145.22873,159.67947 c -0.67116,2.53004 -1.40874,5.04706 -1.996,7.59339 -0.41249,1.78763 -0.27965,3.63063 0.17478,5.39547 0.31111,1.21129 0.30412,2.34444 -0.0559,3.51015 -0.46842,0.0749 -0.93334,0.15304 -1.40175,0.22793 -0.0489,-0.0423 -0.0979,-0.0814 -0.14682,-0.12373 0.70612,-1.38062 0.38802,-2.75472 0.0839,-4.1679 -0.56979,-2.65052 -0.11536,-5.27499 0.53483,-7.86365 0.33558,-1.33177 0.73408,-2.65052 1.17803,-3.95299 0.24819,-0.73264 0.81448,-1.03546 1.62896,-0.61867 z"
     name="Layer %{number}"
     style="fill:#d9d9d9;fill-opacity:1;stroke-width:0.337378"
     zoom="1"
     data-layer-id="6051932769195"
     id="path24" /><path
     fill="#D8BECB"
     d="m 142.21899,178.59781 c -0.58377,2.84589 -0.6362,5.67876 0.27616,8.47907 0.12584,0.39074 0.34956,0.75543 0.52784,1.13314 -1.12559,0.48192 -1.18152,0.50145 -1.65693,-0.55355 -0.33908,-0.75543 -0.65718,-1.55644 -0.75156,-2.36397 -0.36005,-3.08034 -0.48939,-6.15416 1.18851,-9.00982 0.0489,0.0423 0.0979,0.0814 0.14682,0.12373 -0.0489,0.74566 -0.34956,1.51738 0.26916,2.1914 z"
     name="Layer %{number}"
     style="fill:#f5f5f5;fill-opacity:1;stroke-width:0.337378"
     zoom="1"
     data-layer-id="3273157269195"
     id="path26" /><path
     fill="#D8BECB"
     d="m 165.22375,248.67382 c 1.06267,-0.0912 1.6814,0.64798 2.38752,1.16246 1.51011,1.09733 2.32809,2.67982 3.25093,4.19069 0.71311,1.16245 1.53808,2.26629 2.31411,3.39618 -0.95081,-0.003 -1.66741,-0.49168 -2.16729,-1.14617 -0.76904,-1.00616 -1.47516,-2.07093 -2.0764,-3.17477 -0.93334,-1.70297 -2.04845,-3.25617 -3.70887,-4.42839 z"
     name="Layer %{number}"
     style="fill:#f5f5f5;fill-opacity:1;stroke-width:0.337378"
     zoom="1"
     data-layer-id="0568907469195"
     id="path28" /><path
     fill="#D8BECB"
     d="m 166.28992,194.91447 c -1.51012,0.2898 -3.00625,0.72287 -4.52685,0.83684 -2.13583,0.1563 -4.29263,0.0977 -6.43895,0.0716 -0.35656,-0.003 -0.70961,-0.32236 -1.06267,-0.49494 3.74032,0.0977 7.4387,-0.0749 11.09513,-1.44248 0.26218,0.29305 0.59776,0.661 0.93334,1.02894 z"
     name="Layer %{number}"
     style="fill:#f5f5f5;fill-opacity:1;stroke-width:0.337378"
     zoom="1"
     data-layer-id="2960625469195"
     id="path30" /><path
     fill="#D6BCC9"
     d="m 173.88243,212.56942 c -0.90537,-0.10419 -1.81423,-0.19211 -2.71611,-0.31259 -3.0412,-0.40376 -5.97403,-0.0586 -8.80899,1.04849 -0.42297,0.16606 -0.91935,0.45586 -1.45069,-0.12699 0.47191,-0.37446 0.92635,-0.73264 1.38078,-1.09082 0,0 0.0524,-0.0163 0.0524,-0.0163 0.19925,-0.0554 0.39501,-0.11397 0.59076,-0.16932 0,0 -0.014,0.013 -0.014,0.013 0.23421,-0.0488 0.46492,-0.10094 0.69913,-0.14978 3.50612,-0.64798 6.93184,-0.40702 10.26667,0.80427 z"
     name="Layer %{number}"
     style="fill:#d9d9d9;fill-opacity:1;stroke-width:0.337378"
     zoom="1"
     data-layer-id="4797127969195"
     id="path32" /><path
     fill="#C6C1BB"
     d="m 163.23124,186.20422 c -2.34907,-0.0781 -4.01299,-1.67692 -4.29264,-4.01485 -0.0315,-0.25724 -0.0734,-0.51122 -0.11535,-0.76846 -0.15731,-0.96383 0.18177,-1.56622 1.20249,-1.82671 1.24095,-0.3191 2.51336,-0.53401 3.77179,-0.79451 0.021,0.0912 0.0454,0.17909 0.0664,0.27027 -0.79351,0.17909 -1.59051,0.33864 -2.37354,0.54378 -1.34931,0.35166 -1.66741,0.88568 -1.48913,2.16535 0.27265,1.97975 1.03121,3.6404 3.22996,4.42513 z"
     name="Layer %{number}"
     style="fill:#ffffff;fill-opacity:1;stroke-width:0.337378"
     zoom="1"
     data-layer-id="2317365669195"
     id="path34" /><path
     fill="#C8C3BD"
     d="m 147.27717,177.80005 c -1.84219,0.23445 -2.18477,1.54343 -2.38402,2.88171 -0.32509,2.20768 0.53483,3.76413 3.06917,4.28837 -3.3628,-0.31259 -4.70862,-1.61831 -4.15281,-4.60096 0.42996,-2.29234 1.18152,-2.81008 3.46766,-2.56912 z"
     name="Layer %{number}"
     style="fill:#ffffff;fill-opacity:1;stroke-width:0.337378"
     zoom="1"
     data-layer-id="2175267369195"
     id="path36" /><path
     fill="#D6BCC9"
     d="m 173.92438,164.2609 c -1.02073,0.6089 -2.04495,1.20804 -3.05169,1.82997 -0.11186,0.0684 -0.13633,0.26375 -0.20275,0.39725 -0.7131,0.52099 -1.42272,1.04197 -2.13583,1.55971 -0.27615,0.0912 -0.58377,0.13024 -0.81797,0.27677 -1.11162,0.69356 -2.30013,1.0843 -3.65644,0.94103 1.91211,-0.49168 3.33484,-1.71925 4.86592,-2.79053 1.02422,-0.71636 2.06942,-1.40993 3.15306,-2.04488 0.54183,-0.30933 1.17454,-0.64798 1.8457,-0.16932 z"
     name="Layer %{number}"
     style="fill:#d9d9d9;fill-opacity:1;stroke-width:0.337378"
     zoom="1"
     data-layer-id="1353040469195"
     id="path38" /><path
     fill="#CCA6B9"
     d="m 183.89043,225.24894 c 0.395,0.59588 0.93333,1.14943 1.15006,1.79415 0.30412,0.89871 0.402,1.86579 0.53134,2.81008 0.10486,0.76845 0.16429,1.54668 0.15031,2.32165 -0.007,0.24746 -0.3251,0.48517 -0.49988,0.72938 -0.15031,-1.11687 -0.402,-2.23373 -0.42647,-3.35386 -0.0315,-1.49783 -0.34956,-2.91427 -0.90536,-4.3014 z"
     name="Layer %{number}"
     style="fill:#d9d9d9;fill-opacity:1;stroke-width:0.337378"
     zoom="1"
     data-layer-id="9329999969195"
     id="path40" /><path
     fill="#D1B7C3"
     d="m 146.6934,191.45968 c 1.51361,0.5275 3.00974,1.09407 4.54432,1.57273 1.48565,0.46238 3.00625,0.83032 4.50937,1.23734 -1.16055,-0.19537 -2.33508,-0.32887 -3.47466,-0.60239 -2.08339,-0.49819 -4.14232,-1.08105 -6.45643,-1.69321 0.44744,-0.26375 0.66417,-0.39074 0.8774,-0.51447 z"
     name="Layer %{number}"
     style="fill:#d9d9d9;fill-opacity:1;stroke-width:0.337378"
     zoom="1"
     data-layer-id="9771974269195"
     id="path42" /><path
     fill="#D8BDCA"
     d="m 143.85845,245.08878 c 0.7201,-0.30933 1.20948,0.0879 1.63246,0.52425 0.62921,0.65123 1.45767,1.19501 1.55555,2.18163 -0.38452,0 -0.76904,0.0326 -1.14657,-0.0163 -0.17827,-0.0228 -0.47191,-0.18886 -0.48239,-0.30934 -0.10487,-1.04197 -0.89838,-1.67041 -1.55905,-2.38026 z"
     name="Layer %{number}"
     style="fill:#d9d9d9;fill-opacity:1;stroke-width:0.337378"
     zoom="1"
     data-layer-id="6720899169195"
     id="path44" /><path
     fill="#D3B9C5"
     d="m 167.60428,233.53589 c 0.53133,0.19537 1.13608,0.29632 1.58352,0.59914 1.47166,0.99639 2.88739,2.06767 4.32409,3.1129 -0.25518,-0.0586 -0.5593,-0.0521 -0.75855,-0.1856 -1.72684,-1.16246 -3.43271,-2.3477 -5.14906,-3.52644 z"
     name="Layer %{number}"
     style="fill:#d9d9d9;fill-opacity:1;stroke-width:0.337378"
     zoom="1"
     data-layer-id="3542136769195"
     id="path46" /><path
     fill="#D6BCC8"
     d="m 168.33836,193.63806 c -0.51036,0.32561 -1.02073,0.64797 -1.53458,0.97359 -0.33559,-0.33213 -0.67117,-0.66426 -1.01723,-1.01267 0.42996,-0.28654 0.81098,-0.54052 1.26192,-0.84009 0.41948,0.28654 0.85643,0.58286 1.28989,0.87917 z"
     name="Layer %{number}"
     style="fill:#d9d9d9;fill-opacity:1;stroke-width:0.337378"
     zoom="1"
     data-layer-id="4754684469195"
     id="path48" /><path
     fill="#D9BDCB"
     d="m 188.5501,232.99211 c 0.11886,-0.87265 0.11886,-0.87265 1.30038,-0.58611 0.028,0.0423 0.0559,0.0879 0.0839,0.13025 0.7271,1.20153 0.7271,1.20153 -0.66766,1.77136 -0.17478,-0.44284 0.0874,-1.09408 -0.68515,-1.25363 l -0.0384,-0.0228 z"
     name="Layer %{number}"
     style="fill:#d9d9d9;fill-opacity:1;stroke-width:0.337378"
     zoom="1"
     data-layer-id="2701917969195"
     id="path50" /><path
     fill="#D2B8C4"
     d="m 168.98505,193.37105 c -0.49638,-0.29631 -0.99276,-0.58937 -1.54857,-0.9215 0.47891,-0.47214 0.89838,-0.88893 1.34582,-1.33177 0.25518,0.6317 0.4859,1.20153 0.71661,1.7681 -0.16779,0.15955 -0.34257,0.32236 -0.51386,0.48517 z"
     name="Layer %{number}"
     style="fill:#d9d9d9;fill-opacity:1;stroke-width:0.337378"
     zoom="1"
     data-layer-id="9400667769195"
     id="path52" /><path
     fill="#D4BAC7"
     d="m 232.52166,234.36296 c 0.28315,-0.31259 0.57678,-0.61541 0.84595,-0.93778 0.26566,-0.31584 0.50686,-0.64797 0.75855,-0.97033 0,0 0.0105,-0.003 0.0105,-0.003 0.0315,0.01 0.0629,0.0195 0.0944,0.0326 -0.014,-0.0195 -0.0315,-0.0358 -0.0455,-0.0554 0.26917,-0.21165 0.54183,-0.42005 0.81798,-0.63496 0.41249,1.16246 -0.66067,2.25979 -2.4819,2.56912 z"
     name="Layer %{number}"
     style="fill:#d4bac7;stroke-width:0.337378"
     zoom="1"
     data-layer-id="1060636469195"
     id="path54" /><path
     fill="#D5B9C7"
     d="m 191.30117,232.58509 c 0.61173,-0.79776 0.91585,-0.51447 1.50312,0.15956 0.0384,0.68053 -0.12235,1.26013 -0.9648,1.57598 -0.18876,-0.60239 -0.36354,-1.16896 -0.53832,-1.73554 z"
     name="Layer %{number}"
     style="fill:#d5b9c7;stroke-width:0.337378"
     zoom="1"
     data-layer-id="8726927469195"
     id="path56" /><path
     fill="#D3B7C5"
     d="m 148.89565,244.14775 c 0.43346,0.12048 0.87041,0.23119 1.30038,0.36143 0.22372,0.0684 0.50337,0.40051 0.54532,-0.13676 0.26566,0.80102 -0.0455,1.46528 -0.6467,2.31188 0.014,-1.17873 -0.41248,-1.94393 -1.199,-2.53655 z"
     name="Layer %{number}"
     style="fill:#d3b7c5;stroke-width:0.337378"
     zoom="1"
     data-layer-id="1766900869195"
     id="path58" /><path
     fill="#DAC0CD"
     d="m 174.75634,253.55156 c 1.24095,-0.28979 1.24095,-0.28979 1.89463,0.81405 0.11885,0.20188 0.25868,0.39074 0.39151,0.58285 -1.05917,-0.0456 -1.77578,-0.57308 -2.28614,-1.3969 z"
     name="Layer %{number}"
     style="fill:#d9d9d9;fill-opacity:1;stroke-width:0.337378"
     zoom="1"
     data-layer-id="3920807269195"
     id="path60" /><path
     fill="#D8BECB"
     d="m 120.87117,220.2898 c 0.22721,-0.22468 0.52784,-0.66426 0.67116,-0.62519 0.31461,0.0879 0.59076,0.39075 0.8005,0.66426 0.23421,0.30283 0.38102,0.66752 0.56629,1.00616 -0.67815,-0.34841 -1.3598,-0.69682 -2.03795,-1.04523 z"
     name="Layer %{number}"
     style="fill:#f5f5f5;fill-opacity:1;stroke-width:0.337378"
     zoom="1"
     data-layer-id="5263806969195"
     id="path62" /><path
     fill="#D6BCC8"
     d="m 143.51587,188.69194 c 0.22722,0.35492 0.45094,0.7131 0.67816,1.06802 -1.00325,0.50145 -1.00325,0.50145 -1.95406,-0.77171 0.44045,-0.10094 0.85992,-0.19863 1.2759,-0.29631 z"
     name="Layer %{number}"
     style="fill:#d9d9d9;fill-opacity:1;stroke-width:0.337378"
     zoom="1"
     data-layer-id="5645801969195"
     id="path64" /><path
     fill="#D3B9C5"
     d="m 144.8582,190.10837 c 0.3985,0.35492 0.797,0.70984 1.1955,1.06477 -0.35655,0.51447 -0.77253,0.47214 -1.23745,0.13024 -0.3216,-0.23444 -0.66068,-0.4526 -1.1221,-0.76845 0.47191,-0.17258 0.81798,-0.29957 1.16405,-0.42656 z"
     name="Layer %{number}"
     style="fill:#d9d9d9;fill-opacity:1;stroke-width:0.337378"
     zoom="1"
     data-layer-id="8492966169195"
     id="path66" /><path
     fill="#D4B9C6"
     d="m 168.38031,206.93625 c -0.9648,-0.0488 -1.92959,-0.0879 -2.89439,-0.14327 -0.4754,-0.026 -0.5593,-0.26375 -0.34607,-0.6317 1.08015,0.25724 2.16031,0.51448 3.24046,0.77497 z"
     name="Layer %{number}"
     style="fill:#d4b9c6;stroke-width:0.337378"
     zoom="1"
     data-layer-id="7111064369195"
     id="path68" /><path
     fill="#D0A8BC"
     d="m 187.25672,234.45088 c -0.12584,-0.82707 -0.25518,-1.65739 -0.38102,-2.48446 0.2377,0.7131 0.48938,1.41969 0.69563,2.1393 0.028,0.0814 -0.20275,0.22794 -0.31461,0.34516 z"
     name="Layer %{number}"
     style="fill:#f5f5f5;fill-opacity:1;stroke-width:0.337378"
     zoom="1"
     data-layer-id="8799273869195"
     id="path70" /><path
     fill="#C09CAE"
     d="m 168.98505,193.37105 c 0.17129,-0.16281 0.34607,-0.32562 0.51735,-0.48517 0.34258,0.46238 0.68165,0.92475 1.02422,1.38387 -0.0385,0.0391 -0.0769,0.0782 -0.11535,0.11723 -0.47541,-0.3419 -0.95081,-0.68054 -1.42622,-1.01593 z"
     name="Layer %{number}"
     style="fill:#c09cae;stroke-width:0.337378"
     zoom="1"
     data-layer-id="8369712369195"
     id="path72" /><path
     fill="#D0A8BC"
     d="m 188.58156,233.05398 c 0.77254,0.15955 0.51386,0.81079 0.68515,1.25363 -0.18527,-0.0716 -0.49289,-0.10746 -0.53134,-0.22142 -0.10836,-0.32562 -0.10836,-0.68705 -0.15381,-1.03221 z"
     name="Layer %{number}"
     style="fill:#f5f5f5;fill-opacity:1;stroke-width:0.337378"
     zoom="1"
     data-layer-id="0266189669195"
     id="path74" /><path
     fill="#D8BECB"
     d="m 161.11289,246.49545 c 0.27965,0.14652 0.5593,0.29631 0.83895,0.44284 -0.27616,-0.14653 -0.55581,-0.29632 -0.83895,-0.44284 z"
     name="Layer %{number}"
     style="fill:#f5f5f5;fill-opacity:1;stroke-width:0.337378"
     zoom="1"
     data-layer-id="5761834769195"
     id="path76" /><path
     fill="#D8BECB"
     d="m 162.95159,247.43322 c 0.28314,0.14653 0.56629,0.29306 0.84594,0.44284 -0.28314,-0.14653 -0.56629,-0.29305 -0.84594,-0.44284 z"
     name="Layer %{number}"
     style="fill:#f5f5f5;fill-opacity:1;stroke-width:0.337378"
     zoom="1"
     data-layer-id="6790254869195"
     id="path78" /><path
     fill="#DAC0CD"
     d="m 125.5658,235.72404 c 0.23071,0.10745 0.45793,0.21165 0.68864,0.3191 -0.23071,-0.10419 -0.45793,-0.21165 -0.68864,-0.3191 z"
     name="Layer %{number}"
     style="fill:#d9d9d9;fill-opacity:1;stroke-width:0.337378"
     zoom="1"
     data-layer-id="0653640169195"
     id="path80" /><path
     fill="#D8BECB"
     d="m 164.25196,248.09748 c 0.18178,0.10094 0.36005,0.20514 0.54183,0.30608 -0.18178,-0.10094 -0.36005,-0.20514 -0.54183,-0.30608 z"
     name="Layer %{number}"
     style="fill:#f5f5f5;fill-opacity:1;stroke-width:0.337378"
     zoom="1"
     data-layer-id="4013157969195"
     id="path82" /><path
     fill="#D0A8BC"
     d="m 163.61576,211.76189 c -0.23421,0.0489 -0.46492,0.10094 -0.69913,0.14979 0.23421,-0.0488 0.46842,-0.0977 0.69913,-0.14979 z"
     name="Layer %{number}"
     style="fill:#f5f5f5;fill-opacity:1;stroke-width:0.337378"
     zoom="1"
     data-layer-id="0001294669195"
     id="path84" /><path
     fill="#D0A8BC"
     d="m 162.93411,211.90191 c -0.19575,0.0554 -0.39501,0.11396 -0.59076,0.16932 0.19575,-0.0586 0.39151,-0.11397 0.59076,-0.16932 z"
     name="Layer %{number}"
     style="fill:#f5f5f5;fill-opacity:1;stroke-width:0.337378"
     zoom="1"
     data-layer-id="0250685569195"
     id="path86" /><path
     fill="#D8BECB"
     d="m 122.90563,221.33177 c 0.11186,0.0554 0.22372,0.11071 0.33558,0.16607 -0.11186,-0.0521 -0.22372,-0.11071 -0.33558,-0.16607 z"
     name="Layer %{number}"
     style="fill:#f5f5f5;fill-opacity:1;stroke-width:0.337378"
     zoom="1"
     data-layer-id="6126408169196"
     id="path88" /><path
     fill="#CCA6B9"
     d="m 183.54086,224.62376 c 0.0629,0.1042 0.12585,0.20839 0.18877,0.31259 -0.0629,-0.1042 -0.12585,-0.20839 -0.18877,-0.31259 z"
     name="Layer %{number}"
     style="fill:#d9d9d9;fill-opacity:1;stroke-width:0.337378"
     zoom="1"
     data-layer-id="4527131269196"
     id="path90" /><path
     fill="#CCA6B9"
     d="m 183.72613,224.9331 c 0.0559,0.10745 0.11536,0.2149 0.17129,0.32236 -0.0594,-0.11071 -0.11536,-0.21817 -0.17129,-0.32236 z"
     name="Layer %{number}"
     style="fill:#d9d9d9;fill-opacity:1;stroke-width:0.337378"
     zoom="1"
     data-layer-id="8083482569196"
     id="path92" /><path
     fill="#DAC0CD"
     d="m 126.24046,236.03338 c 0.11885,0.0488 0.2412,0.10094 0.36005,0.14978 -0.12235,-0.0488 -0.2412,-0.0977 -0.36005,-0.14978 z"
     name="Layer %{number}"
     style="fill:#d9d9d9;fill-opacity:1;stroke-width:0.337378"
     zoom="1"
     data-layer-id="0146937469196"
     id="path94" /><path
     fill="#D8BECB"
     d="m 163.90939,247.91514 c 0.12235,0.0651 0.2447,0.13024 0.36704,0.19862 -0.12234,-0.0651 -0.24469,-0.13024 -0.36704,-0.19862 z"
     name="Layer %{number}"
     style="fill:#f5f5f5;fill-opacity:1;stroke-width:0.337378"
     zoom="1"
     data-layer-id="5620713969196"
     id="path96" /><path
     fill="#D0A8BC"
     d="m 140.18104,177.42885 c 0.0559,-0.10746 0.10836,-0.21817 0.16429,-0.32562 -0.0559,0.10745 -0.10836,0.21491 -0.16429,0.32562 z"
     name="Layer %{number}"
     style="fill:#f5f5f5;fill-opacity:1;stroke-width:0.337378"
     zoom="1"
     data-layer-id="7508803369196"
     id="path98" /><path
     fill="#D9BDCB"
     d="m 170.39729,206.80926 c 0.0874,0.0586 0.17478,0.11397 0.26217,0.17258 -0.0874,-0.0586 -0.17478,-0.11723 -0.26217,-0.17258 z"
     name="Layer %{number}"
     style="fill:#d9d9d9;fill-opacity:1;stroke-width:0.337378"
     zoom="1"
     data-layer-id="2772521869196"
     id="path100" /><path
     fill="#D0A8BC"
     d="m 234.18558,232.4288 c 0.014,0.0195 0.0315,0.0358 0.0455,0.0554 -0.0315,-0.01 -0.0629,-0.0195 -0.0944,-0.0326 0,0 0.0489,-0.0228 0.0489,-0.0228 z"
     name="Layer %{number}"
     style="fill:#f5f5f5;fill-opacity:1;stroke-width:0.337378"
     zoom="1"
     data-layer-id="4270453869196"
     id="path102" /><path
     fill="#C09CAE"
     d="m 170.83774,194.60514 c -0.0559,0 -0.11187,0 -0.1678,0 -0.0489,-0.0163 -0.0664,-0.0488 -0.0454,-0.0944 0.014,-0.0228 0.0315,-0.0456 0.0489,-0.0651 0.0524,0.0521 0.10836,0.10745 0.1643,0.15955 z"
     name="Layer %{number}"
     style="fill:#c09cae;stroke-width:0.337378"
     zoom="1"
     data-layer-id="0911027269196"
     id="path104" /><path
     fill="#D3B9C5"
     d="m 167.06245,233.22656 c 0.0839,0.0488 0.16779,0.0977 0.25169,0.14978 -0.0839,-0.0488 -0.16779,-0.10094 -0.25169,-0.14978 z"
     name="Layer %{number}"
     style="fill:#d9d9d9;fill-opacity:1;stroke-width:0.337378"
     zoom="1"
     data-layer-id="1941972569196"
     id="path106" /><path
     fill="#D3B9C5"
     d="m 167.30365,233.36983 c 0.0594,0.0391 0.11536,0.0814 0.17478,0.12048 -0.0559,-0.0391 -0.11535,-0.0814 -0.17478,-0.12048 z"
     name="Layer %{number}"
     style="fill:#d9d9d9;fill-opacity:1;stroke-width:0.337378"
     zoom="1"
     data-layer-id="6229162569196"
     id="path108" /><path
     fill="#C09CAE"
     d="m 170.52662,194.26975 c 0.0489,0.0586 0.0979,0.11723 0.14332,0.17584 -0.0175,0.0195 -0.035,0.0423 -0.0489,0.0651 -0.0699,-0.0423 -0.13983,-0.0847 -0.20974,-0.12699 0.0385,-0.0391 0.0769,-0.0782 0.11535,-0.11397 z"
     name="Layer %{number}"
     style="fill:#c09cae;stroke-width:0.337378"
     zoom="1"
     data-layer-id="9613069569196"
     id="path110" /><path
     fill="#D3B9C5"
     d="m 173.87544,237.18606 c 0.0385,-0.026 0.0804,-0.0488 0.12235,-0.0684 -0.021,0.0586 -0.0629,0.0814 -0.12235,0.0684 z"
     name="Layer %{number}"
     style="fill:#d9d9d9;fill-opacity:1;stroke-width:0.337378"
     zoom="1"
     data-layer-id="3059339269196"
     id="path112" /><path
     fill="#D8BECB"
     d="m 160.84722,246.35218 c 0.0909,0.0488 0.17828,0.0977 0.26916,0.14652 -0.0909,-0.0521 -0.18177,-0.10094 -0.26916,-0.14652 z"
     name="Layer %{number}"
     style="fill:#f5f5f5;fill-opacity:1;stroke-width:0.337378"
     zoom="1"
     data-layer-id="5682557169196"
     id="path114" /><path
     fill="#D8BECB"
     d="m 162.0637,246.97736 c 0.0734,0.0423 0.14681,0.0847 0.22372,0.12699 -0.0734,-0.0423 -0.14682,-0.0847 -0.22372,-0.12699 z"
     name="Layer %{number}"
     style="fill:#f5f5f5;fill-opacity:1;stroke-width:0.337378"
     zoom="1"
     data-layer-id="6764550569196"
     id="path116" /><path
     fill="#D8BECB"
     d="m 162.3853,247.13691 c 0.0804,0.0456 0.1608,0.0912 0.24119,0.13676 -0.0804,-0.0456 -0.16079,-0.0912 -0.24119,-0.13676 z"
     name="Layer %{number}"
     style="fill:#f5f5f5;fill-opacity:1;stroke-width:0.337378"
     zoom="1"
     data-layer-id="4054241669196"
     id="path118" /><path
     fill="#D8BECB"
     d="m 165.1014,248.60544 c 0.035,-0.0358 0.0699,-0.0749 0.23071,-0.24421 -0.1538,0.16932 -0.18876,0.20514 -0.22022,0.24096 0,0 -0.0105,0.003 -0.0105,0.003 z"
     name="Layer %{number}"
     style="fill:#f5f5f5;fill-opacity:1;stroke-width:0.337378"
     zoom="1"
     data-layer-id="1773762569196"
     id="path120" /><path
     fill="#150F12"
     d="m 151.10839,168.58184 c -0.21673,0.33538 -0.42997,0.67402 -0.6467,1.00941 -0.19575,-0.33213 -0.45443,-0.64147 -0.57328,-0.99639 -0.51386,-1.52714 -1.24444,-2.92729 -2.4784,-4.07347 -0.70962,-0.65774 -1.39826,-1.33503 -2.05893,-2.0351 -0.12934,-0.13676 -0.0769,-0.42005 -0.10836,-0.63821 0.22372,-0.026 0.44744,-0.0521 0.67116,-0.0749 0.0245,-0.003 0.0559,0.013 0.0769,0.0293 2.12884,1.68344 4.2402,3.37665 4.91486,6.08253 0.0489,0.20188 0.0524,0.41027 0.0769,0.61541 0.0385,0.0326 0.0804,0.0554 0.12585,0.0814 z"
     name="Layer %{number}"
     style="fill:#150f12;stroke-width:0.337378"
     zoom="1"
     data-layer-id="4303906869197"
     id="path122" /><path
     fill="#181215"
     d="m 168.53411,168.05108 c 0.71311,-0.52099 1.42273,-1.04197 2.13583,-1.5597 0.55581,-0.16607 1.10113,-0.39074 1.66742,-0.46889 0.22722,-0.0326 0.50337,0.26049 0.75855,0.40376 -0.17827,0.22142 -0.32859,0.60891 -0.53832,0.64147 -1.42622,0.21165 -2.49239,0.98011 -3.53059,1.82345 -0.79701,0.64798 -1.59751,1.28945 -2.41898,1.9537 -0.52784,-0.28328 -0.44045,-0.59587 -0.0874,-0.92475 0.67116,-0.62518 1.34232,-1.24711 2.01348,-1.86904 z"
     name="Layer %{number}"
     style="fill:#181215;stroke-width:0.337378"
     zoom="1"
     data-layer-id="1077370369197"
     id="path124" /><path
     fill="#161013"
     d="m 155.3416,190.06604 c -2.31761,0.89219 -3.4432,0.77171 -4.15281,-0.54704 1.30037,0.0521 2.69862,0.80428 3.64594,-0.45912 -0.5628,-0.57959 -1.15705,-1.1364 -1.6779,-1.74856 -0.27616,-0.32562 -0.46143,-0.78799 0.028,-1.10058 0.49289,-0.31585 0.8809,-0.0423 1.21648,0.32887 1.06617,1.17222 1.99251,1.17548 3.12859,0.003 0.31461,-0.32561 0.60125,-0.83683 1.11861,-0.36469 0.46841,0.42656 0.13982,0.88243 -0.23771,1.21455 -0.36005,0.31911 -0.77253,0.59263 -1.19201,0.84661 -0.40549,0.24421 -0.91585,0.44609 -0.58726,0.99964 0.30412,0.51448 0.82147,0.82056 1.46816,0.59263 0.37753,-0.13351 0.66767,-0.47866 1.04869,-0.60891 0.33908,-0.11722 0.74107,-0.0651 1.11511,-0.0912 -0.0524,0.35167 0.021,0.7945 -0.17828,1.04523 -1.13608,1.42946 -3.10762,1.50109 -4.41498,0.21491 -0.11186,-0.10746 -0.22372,-0.22142 -0.32859,-0.32562 z"
     name="Layer %{number}"
     style="fill:#550000;stroke-width:0.337378"
     zoom="1"
     data-layer-id="2227320669197"
     id="path126" /></svg>
